<svg id="Layer_1" enable-background="new 0 0 510 510" height="512" viewBox="0 0 510 510" width="512" xmlns="http://www.w3.org/2000/svg"><g><path d="m90 0-90 90v225l90 90h75l10-202.5-10-202.5z" fill="#d9e5ff"/><path d="m240 0h-75v405h15l150-270v-45z" fill="#c9d4ec"/><path d="m90 15c0-5.246 0-9.754 0-15-10.889 0-79.039 0-90 0v90h15c20.711 0 39.461-8.395 53.033-21.967s21.967-32.322 21.967-53.033z" fill="#bc00a2"/><path d="m315 90h15c0-10.889 0-79.039 0-90-10.889 0-79.039 0-90 0v15c0 41.42 33.577 75 75 75z" fill="#7a3db4"/><path d="m15 315c-5.246 0-9.754 0-15 0v45 45h90c0-5.246 0-9.754 0-15 0-41.42-33.577-75-75-75z" fill="#bc00a2"/><path d="m270 135-90 90v195l90 90h75l15-187.5-15-187.5z" fill="#ecf2ff"/><path d="m420 135h-75v375h75l90-90v-195z" fill="#d9e5ff"/><path d="m195 420c-5.246 0-9.754 0-15 0v90h90c0-5.246 0-9.754 0-15 0-20.711-8.395-39.461-21.967-53.033s-32.322-21.967-53.033-21.967z" fill="#ff3d7d"/><path d="m495 225h15c0-10.889 0-79.039 0-90-10.889 0-79.039 0-90 0v15c0 41.42 33.577 75 75 75z" fill="#bc00a2"/><path d="m510 420c-5.246 0-9.754 0-15 0-41.42 0-75 33.577-75 75v15h90v-45z" fill="#bc00a2"/><path d="m270 150c0-5.246 0-9.754 0-15-10.889 0-79.039 0-90 0v90h15c41.42 0 75-33.577 75-75z" fill="#ff3d7d"/><path d="m345 200.694c-3.981 8.066-28.788 58.332-32.784 66.428-19.425 2.879-60.239 8.928-71.682 10.624 6.248 6.26 45.189 45.275 51.462 51.56-1.413 8.234-11.054 64.438-12.542 73.115 7.974-4.192 57.56-30.261 65.546-34.46l10-63.633z" fill="#fedb41"/><path d="m398.005 329.306c6.248-6.26 45.189-45.275 51.462-51.56-19.425-2.879-60.239-8.928-71.683-10.624-3.982-8.065-28.789-58.333-32.784-66.428v167.267c7.967 4.189 57.558 30.26 65.545 34.459-1.413-8.234-11.053-64.438-12.54-73.114z" fill="#fcbf2a"/></g></svg>