<svg id="Layer_1" enable-background="new 0 0 256 256" height="512" viewBox="0 0 256 256" width="512" xmlns="http://www.w3.org/2000/svg"><g fill="#ebe7f2"><path d="m122.548 92.703c-2.425-1.971-5.564-3.096-8.972-2.918-7.354.384-12.858 7.156-12.396 14.505.866 13.776 14.337 29.141 21.369 36.274v-47.861z"/><path d="m97.916 223.039-52.387-126.136-6.666 2.768c-2.55 1.059-3.759 3.985-2.7 6.535l52.835 127.215c1.059 2.55 3.985 3.759 6.535 2.7l68.487-28.444c2.627-1.091 3.816-4.152 2.614-6.73l-2.518-5.402z"/><circle cx="86.381" cy="65.611" r="7.155"/><circle cx="63.381" cy="96.923" r="7.155"/></g><path d="m182.808 176.347-77.212 18.412c-.649.154-1.32.047-1.889-.302-.569-.35-.967-.9-1.123-1.55l-31.952-133.993c-.155-.649-.047-1.32.302-1.889.35-.568.9-.967 1.55-1.122l41.044-9.788c1.343-.32 2.172-1.668 1.852-3.012-.32-1.343-1.665-2.174-3.012-1.852l-41.043 9.787c-1.949.465-3.6 1.66-4.649 3.367-1.05 1.707-1.372 3.72-.907 5.668l31.952 133.993c.465 1.949 1.66 3.6 3.367 4.649 1.197.736 2.544 1.114 3.915 1.114.583 0 1.172-.068 1.754-.208l77.212-18.412c1.343-.32 2.172-1.668 1.852-3.012-.321-1.341-1.67-2.172-3.013-1.85z" fill="#846f75"/><path d="m174.88 188.367-73.306 30.445c-.616.257-1.296.257-1.913.001-.617-.255-1.098-.735-1.354-1.352l-52.835-127.213c-.256-.617-.256-1.296-.001-1.914s.735-1.098 1.352-1.354l16.271-6.758c1.275-.529 1.879-1.992 1.35-3.268-.53-1.275-1.993-1.88-3.268-1.35l-16.271 6.758c-1.85.768-3.29 2.211-4.055 4.063s-.763 3.89.006 5.74l52.833 127.215c.768 1.85 2.211 3.29 4.062 4.055.924.381 1.894.572 2.864.572.975 0 1.949-.193 2.876-.578l73.306-30.445c1.275-.529 1.879-1.992 1.35-3.268-.528-1.274-1.992-1.88-3.267-1.349z" fill="#846f75"/><path d="m212.72 19.495h-85.172c-4.136 0-7.5 3.364-7.5 7.5v137.75c0 4.136 3.364 7.5 7.5 7.5h85.172c4.136 0 7.5-3.364 7.5-7.5v-137.75c0-4.136-3.364-7.5-7.5-7.5zm2.5 145.25c0 1.378-1.122 2.5-2.5 2.5h-85.172c-1.378 0-2.5-1.122-2.5-2.5v-137.75c0-1.378 1.122-2.5 2.5-2.5h85.172c1.378 0 2.5 1.122 2.5 2.5z" fill="#846f75"/><path d="m169.514 58.942c-4.045 3.225-26.55 21.968-27.763 40.694-.542 8.364 5.684 15.875 14.061 16.143 4.052.13 7.744-1.394 10.458-3.947.687-.646 1.799-.087 1.678.848l-.132 1.012c-.491 3.778-1.67 7.435-3.476 10.79l-1.934 3.591c-.478.887.165 1.962 1.172 1.962h13.112c1.007 0 1.649-1.075 1.172-1.962l-1.934-3.592c-1.806-3.354-2.984-7.011-3.476-10.789l-.132-1.012c-.122-.935.991-1.494 1.678-.848 2.715 2.553 6.407 4.077 10.459 3.947 8.377-.269 14.602-7.78 14.06-16.144-1.214-18.727-23.718-37.469-27.763-40.694-.363-.289-.876-.289-1.24.001z" fill="#65c1d6"/><circle cx="141.7" cy="39.709" fill="#ebe7f2" r="7.155"/><circle cx="199.966" cy="152.518" fill="#ebe7f2" r="7.155"/></svg>