<svg id="Layer_1" enable-background="new 0 0 256 256" height="512" viewBox="0 0 256 256" width="512" xmlns="http://www.w3.org/2000/svg"><path d="m181.445 252h-153.625c-4.928 0-8.923-3.995-8.923-8.923v-230.154c0-4.928 3.995-8.923 8.923-8.923h153.624c4.928 0 8.923 3.995 8.923 8.923v230.154c.001 4.928-3.994 8.923-8.922 8.923z" fill="#ff4397"/><path d="m181.445 4h-10c4.928 0 8.923 3.995 8.923 8.923v230.154c0 4.928-3.995 8.923-8.923 8.923h10c4.928 0 8.923-3.995 8.923-8.923v-230.154c0-4.928-3.995-8.923-8.923-8.923z" fill="#d6d1cf"/><path d="m27.82 252h10c-4.928 0-8.923-3.995-8.923-8.923v-230.154c0-4.928 3.995-8.923 8.923-8.923h-10c-4.928 0-8.923 3.995-8.923 8.923v230.154c0 4.928 3.995 8.923 8.923 8.923z" fill="#ff61b5"/><path d="m181.445 254h-153.625c-6.023 0-10.923-4.9-10.923-10.923v-230.154c0-6.023 4.9-10.923 10.923-10.923h153.624c6.023 0 10.923 4.9 10.923 10.923v230.154c.001 6.023-4.899 10.923-10.922 10.923zm-153.625-248c-3.817 0-6.923 3.106-6.923 6.923v230.154c0 3.817 3.105 6.923 6.923 6.923h153.624c3.817 0 6.923-3.105 6.923-6.923v-230.154c0-3.817-3.105-6.923-6.923-6.923z" fill="#690589"/><path d="m34.725 35.172c.715 2.186 2.782 3.776 5.206 3.776 3.02 0 5.484-2.464 5.484-5.444v-15.778c0-1.232.994-2.186 2.226-2.186 1.192 0 2.186.954 2.186 2.186v15.777c0 5.444-4.451 9.855-9.896 9.855-4.372 0-8.107-2.861-9.379-6.835-.398-1.192.278-2.424 1.391-2.742 1.192-.398 2.424.238 2.782 1.391z" fill="#690589"/><path d="m173.203 222.201c-.715-2.186-2.782-3.775-5.206-3.775-3.02 0-5.484 2.464-5.484 5.444v15.777c0 1.232-.994 2.186-2.226 2.186-1.192 0-2.186-.954-2.186-2.186v-15.777c0-5.444 4.451-9.855 9.896-9.855 4.372 0 8.107 2.861 9.379 6.835.398 1.192-.278 2.424-1.391 2.742-1.192.397-2.424-.238-2.782-1.391z" fill="#690589"/><path d="m228.18 252h-153.625c-4.928 0-8.923-3.995-8.923-8.923v-230.154c0-4.928 3.995-8.923 8.923-8.923h153.625c4.928 0 8.923 3.995 8.923 8.923v230.154c0 4.928-3.995 8.923-8.923 8.923z" fill="#f4efed"/><path d="m228.18 4h-10c4.928 0 8.923 3.995 8.923 8.923v230.154c0 4.928-3.995 8.923-8.923 8.923h10c4.928 0 8.923-3.995 8.923-8.923v-230.154c0-4.928-3.995-8.923-8.923-8.923z" fill="#d6d1cf"/><path d="m74.555 252h10c-4.928 0-8.923-3.995-8.923-8.923v-230.154c0-4.928 3.995-8.923 8.923-8.923h-10c-4.928 0-8.923 3.995-8.923 8.923v230.154c0 4.928 3.995 8.923 8.923 8.923z" fill="#fff"/><path d="m164.605 167.053-5.216-16.951c8.671 4.791 19.793 3.525 27.148-3.83 8.909-8.909 8.909-23.353 0-32.261l-35.17-35.17-35.17 35.17c-8.909 8.909-8.909 23.353 0 32.261 7.356 7.355 18.477 8.621 27.148 3.83l-5.216 16.951z" fill="#7bac51"/><g fill="#690589"><path d="m164.605 169.053h-26.475c-.635 0-1.232-.301-1.609-.812-.377-.51-.489-1.169-.303-1.776l3.937-12.794c-8.765 2.9-18.688.7-25.372-5.984-9.674-9.674-9.674-25.415 0-35.089l35.17-35.17c.78-.781 2.047-.781 2.828 0l35.17 35.17c9.674 9.674 9.674 25.415 0 35.089-6.683 6.683-16.607 8.883-25.372 5.984l3.936 12.795c.187.607.074 1.266-.303 1.776-.375.509-.972.811-1.607.811zm-23.767-4h21.059l-4.419-14.363c-.24-.779.018-1.626.65-2.14.633-.514 1.514-.594 2.229-.198 8.068 4.458 18.253 3.021 24.767-3.494 3.931-3.931 6.096-9.157 6.096-14.716 0-5.56-2.165-10.786-6.096-14.717l-33.756-33.755-33.756 33.755c-8.115 8.115-8.115 21.318 0 29.433 6.515 6.514 16.699 7.951 24.767 3.494.714-.395 1.596-.316 2.229.198s.89 1.361.65 2.141z"/><path d="m228.18 254h-153.625c-6.023 0-10.923-4.9-10.923-10.923v-230.154c0-6.023 4.9-10.923 10.923-10.923h153.625c6.023 0 10.923 4.9 10.923 10.923v230.154c-.001 6.023-4.9 10.923-10.923 10.923zm-153.625-248c-3.817 0-6.923 3.106-6.923 6.923v230.154c0 3.817 3.105 6.923 6.923 6.923h153.625c3.817 0 6.923-3.105 6.923-6.923v-230.154c0-3.817-3.105-6.923-6.923-6.923z"/><path d="m73.632 74.316c-1.104 0-2-.896-2-2v-12c0-1.104.896-2 2-2s2 .896 2 2v12c0 1.104-.895 2-2 2z"/><path d="m93.059 36.792h-9.67l-1.95 5.173c-.358.876-1.195 1.393-2.069 1.393-.28 0-.519-.04-.756-.119-1.154-.438-1.712-1.711-1.314-2.865l8.794-23.439c.359-.875 1.234-1.433 2.11-1.393.915-.04 1.751.517 2.109 1.393l8.796 23.439c.398 1.154-.16 2.428-1.314 2.865-.198.079-.477.119-.756.119-.876 0-1.711-.517-2.03-1.393zm-1.632-4.377-3.223-8.556-3.223 8.556z"/><path d="m209.676 220.581h9.67l1.95-5.173c.358-.876 1.194-1.393 2.069-1.393.28 0 .518.04.756.119 1.154.438 1.712 1.711 1.314 2.865l-8.795 23.439c-.358.876-1.234 1.433-2.109 1.393-.915.04-1.751-.517-2.109-1.393l-8.796-23.439c-.398-1.154.16-2.428 1.314-2.865.198-.079.477-.119.756-.119.876 0 1.711.517 2.03 1.393zm1.632 4.377 3.223 8.556 3.223-8.556z"/></g></svg>