<svg height="512" viewBox="0 0 64 64" width="512" xmlns="http://www.w3.org/2000/svg"><g id="flat"><rect fill="#9b1e5a" height="58" rx="6" width="58" x="3" y="3"/><path d="m54 57h-44l-3-3v-44l3-3h44l3 3v44z" fill="#f9bb4b"/><path d="m14 43v-22c0-1.105 4-1.105 4 0v22c0 1.105-4 1.105-4 0z" fill="#f4f4e6"/><path d="m46 43v-22c0-1.105 4-1.105 4 0v22c0 1.105-4 1.105-4 0z" fill="#f4f4e6"/><path d="m21 14h22c1.1 0 1.1 4 0 4h-22c-1.1 0-1.1-4 0-4z" fill="#f4f4e6"/><path d="m21 46h22c1.1 0 1.1 4 0 4h-22c-1.1 0-1.1-4 0-4z" fill="#f4f4e6"/><circle cx="10" cy="10" fill="#fff69a" r="3"/><circle cx="54" cy="10" fill="#fff69a" r="3"/><circle cx="10" cy="54" fill="#fff69a" r="3"/><circle cx="54" cy="54" fill="#fff69a" r="3"/><g fill="#e97424"><circle cx="16" cy="21" r="2"/><circle cx="16" cy="43" r="2"/><circle cx="48" cy="21" r="2"/><circle cx="48" cy="43" r="2"/><circle cx="43" cy="16" r="2"/><circle cx="21" cy="16" r="2"/><circle cx="43" cy="48" r="2"/><circle cx="21" cy="48" r="2"/><circle cx="29" cy="29" r="2"/><circle cx="35" cy="29" r="2"/><circle cx="35" cy="35" r="2"/><circle cx="29" cy="35" r="2"/></g><path d="m23 27a4.173 4.173 0 0 1 -2.667-1.255l1.334-1.49a2.6 2.6 0 0 0 1.333.745 2 2 0 0 0 2-2 2.6 2.6 0 0 0 -.745-1.333l1.49-1.334a4.173 4.173 0 0 1 1.255 2.667 4 4 0 0 1 -4 4z" fill="#32b1cc"/><path d="m41 27a4 4 0 0 1 -4-4 4.173 4.173 0 0 1 1.255-2.667l1.49 1.334a2.6 2.6 0 0 0 -.745 1.333 2 2 0 0 0 2 2 2.6 2.6 0 0 0 1.333-.745l1.334 1.49a4.173 4.173 0 0 1 -2.667 1.255z" fill="#32b1cc"/><path d="m25.745 43.667-1.49-1.334a2.6 2.6 0 0 0 .745-1.333 2 2 0 0 0 -2-2 2.6 2.6 0 0 0 -1.333.745l-1.334-1.49a4.173 4.173 0 0 1 2.667-1.255 4 4 0 0 1 4 4 4.173 4.173 0 0 1 -1.255 2.667z" fill="#32b1cc"/><path d="m38.255 43.667a4.173 4.173 0 0 1 -1.255-2.667 4 4 0 0 1 4-4 4.173 4.173 0 0 1 2.667 1.255l-1.334 1.49a2.6 2.6 0 0 0 -1.333-.745 2 2 0 0 0 -2 2 2.6 2.6 0 0 0 .745 1.333z" fill="#32b1cc"/><path d="m14 13.586h2v2.828h-2z" fill="#32b1cc" transform="matrix(.707 -.707 .707 .707 -6.213 15)"/><path d="m47.586 14h2.828v2h-2.828z" fill="#32b1cc" transform="matrix(.707 -.707 .707 .707 3.745 39.042)"/><path d="m48 47.586h2v2.828h-2z" fill="#32b1cc" transform="matrix(.707 -.707 .707 .707 -20.296 49)"/><path d="m13.586 48h2.828v2h-2.828z" fill="#32b1cc" transform="matrix(.707 -.707 .707 .707 -30.255 24.958)"/></g></svg>