<svg height="512" viewBox="0 0 64 64" width="512" xmlns="http://www.w3.org/2000/svg"><g id="flat"><path d="m3 3h58v58h-58z" fill="#f98c96"/><path d="m7 7h50v50h-50z" fill="#32b1cc"/><g fill="#ffd782"><path d="m24 7h16v16h-16z"/><path d="m24 41h16v16h-16z" transform="matrix(-1 0 0 -1 64 98)"/><path d="m7 23h17v18h-17z"/><path d="m40 23h17v18h-17z"/></g><path d="m19 15h-1v-2a1 1 0 0 0 -2 0v2h-3v-4a1 1 0 0 0 -2 0v5a1 1 0 0 0 1 1h4v3a1 1 0 0 0 2 0v-3h1a1 1 0 0 0 0-2z" fill="#d9176c"/><path d="m51 10h-6a1 1 0 0 0 0 2h5v2h-4a1 1 0 0 0 0 2h4v2h-5a1 1 0 0 0 0 2h6a1 1 0 0 0 1-1v-8a1 1 0 0 0 -1-1z" fill="#d9176c"/><path d="m33 38h-4a1 1 0 0 1 0-2h4a1 1 0 0 0 1-1v-1a1 1 0 0 0 -1-1h-4a1 1 0 0 1 -1-1v-4a1 1 0 0 1 1-1h6a1 1 0 0 1 0 2h-5v2h3a3 3 0 0 1 3 3v1a3 3 0 0 1 -3 3z" fill="#d9176c"/><path d="m48 54a1 1 0 0 1 -.894-1.447l3.276-6.553h-5.382a1 1 0 0 1 0-2h7a1 1 0 0 1 .9 1.447l-4 8a1 1 0 0 1 -.9.553z" fill="#d9176c"/><path d="m11 45h2v2h-2z" fill="#f4f4e6"/><path d="m46 28h2v2h-2z" fill="#f4f4e6"/><path d="m50 31h2v2h-2z" fill="#f4f4e6"/></g></svg>