<svg height="512" viewBox="0 0 64 64" width="512" xmlns="http://www.w3.org/2000/svg"><g id="flat"><path d="m3 3h58v58h-58z" fill="#f9bb4b"/><g fill="#d3843d"><path d="m12 53h40v2h-40z"/><path d="m33 52v-9h9v-2h-21v-7h-2v9h12v9z"/><path d="m43 24h2v16h-2z"/><path d="m61 31h-6v-19h-2v19h-7v2h7v19h2v-19h6z"/><path d="m18 33v-2h-7v-20h20v10h-12v9h2v-7h21v-2h-9v-10h19v-2h-19v-6h-2v6h-22v22h-6v2h6v19h2v-19z"/></g><path d="m13 13h2v2h-2z" fill="#fcf05a"/><path d="m16 16h2v2h-2z" fill="#fcf05a"/><circle cx="54" cy="32" fill="#66342e" r="3"/><circle cx="54" cy="10" fill="#66342e" r="3"/><circle cx="54" cy="54" fill="#66342e" r="3"/><circle cx="44" cy="32" fill="#f4f4e6" r="3"/><circle cx="44" cy="42" fill="#f4f4e6" r="3"/><circle cx="44" cy="22" fill="#f4f4e6" r="3"/><circle cx="10" cy="32" fill="#66342e" r="3"/><circle cx="10" cy="54" fill="#f4f4e6" r="3"/><circle cx="32" cy="54" fill="#f4f4e6" r="3"/><circle cx="20" cy="32" fill="#66342e" r="3"/></g></svg>