<svg height="512" viewBox="0 0 58 58" width="512" xmlns="http://www.w3.org/2000/svg"><g id="085---Board-Games" fill="none"><rect id="Rectangle-path" fill="#7ed09e" height="58" rx="3" width="58"/><path id="Rectangle-path" d="m0 8h8v7h-8z" fill="#f3d55b"/><path id="Rectangle-path" d="m0 15h8v7h-8z" fill="#f0c419"/><path id="Rectangle-path" d="m0 22h8v7h-8z" fill="#f3d55b"/><path id="Rectangle-path" d="m0 29h8v7h-8z" fill="#e64c3c"/><path id="Rectangle-path" d="m0 36h8v7h-8z" fill="#c03a2b"/><path id="Rectangle-path" d="m0 43h8v7h-8z" fill="#e64c3c"/><path id="Rectangle-path" d="m8 50h7v8h-7z" fill="#f29c1f"/><path id="Rectangle-path" d="m15 50h7v8h-7z" fill="#e57e25"/><path id="Rectangle-path" d="m22 50h7v8h-7z" fill="#f29c1f"/><path id="Rectangle-path" d="m29 50h7v8h-7z" fill="#cc66a1"/><path id="Rectangle-path" d="m36 50h7v8h-7z" fill="#804169"/><path id="Rectangle-path" d="m43 50h7v8h-7z" fill="#cc66a1"/><path id="Rectangle-path" d="m50 43h8v7h-8z" fill="#b0d3f0"/><path id="Rectangle-path" d="m50 36h8v7h-8z" fill="#90bae1"/><path id="Rectangle-path" d="m50 29h8v7h-8z" fill="#b0d3f0"/><path id="Rectangle-path" d="m50 22h8v7h-8z" fill="#a56a43"/><path id="Rectangle-path" d="m50 15h8v7h-8z" fill="#805333"/><path id="Rectangle-path" d="m50 8h8v7h-8z" fill="#a56a43"/><path id="Rectangle-path" d="m43 0h7v8h-7z" fill="#4482c3"/><path id="Rectangle-path" d="m36 0h7v8h-7z" fill="#285680"/><path id="Rectangle-path" d="m22 0h7v8h-7z" fill="#4fba6f"/><path id="Rectangle-path" d="m15 0h7v8h-7z" fill="#24ae5f"/><path id="Rectangle-path" d="m8 0h7v8h-7z" fill="#4fba6f"/><path id="Rectangle-path" d="m29 0h7v8h-7z" fill="#4482c3"/><path id="Shape" d="m32.87 23.16c-.02 4.93.56 10.08 3.13 14.84h-14c2.57-4.76 3.15-9.91 3.13-14.84z" fill="#c03a2b"/><rect id="Rectangle-path" fill="#e64c3c" height="5" rx="1" width="18" x="20" y="38"/><path id="Shape" d="m12 15c-.5522847 0-1-.4477153-1-1v-2c0-.5522847.4477153-1 1-1s1 .4477153 1 1v2c0 .5522847-.4477153 1-1 1z" fill="#fff"/><path id="Shape" d="m12 47c-.5522847 0-1-.4477153-1-1v-28c0-.5522847.4477153-1 1-1s1 .4477153 1 1v28c0 .5522847-.4477153 1-1 1z" fill="#fff"/><circle id="Oval" cx="29" cy="20" fill="#e64c3c" r="5"/><path id="Shape" d="m27 21c-.5522847 0-1-.4477153-1-1-.0234737-.8026156.2850527-1.5793921.8528303-2.1471697s1.3445541-.876304 2.1471697-.8528303c.5522847-.0027614 1.0022386.4427153 1.005.995s-.4427153 1.0022386-.995 1.005c-.2739117-.0288437-.5463007.0668224-.742023.2606068-.1957222.1937844-.2940938.4652081-.267977.7393932 0 .5522847-.4477153 1-1 1z" fill="#fb7b76"/></g></svg>