<svg id="Layer_1" enable-background="new 0 0 256 256" height="512" viewBox="0 0 256 256" width="512" xmlns="http://www.w3.org/2000/svg"><path d="m242 252h-228c-5.523 0-10-4.477-10-10v-228c0-5.523 4.477-10 10-10h228c5.523 0 10 4.477 10 10v228c0 5.523-4.477 10-10 10z" fill="#7bac51"/><path d="m242 4h-114v248h114c5.523 0 10-4.477 10-10v-228c0-5.523-4.477-10-10-10z" fill="#f4efed"/><path d="m90.249 4h16.182l-8.091 49.017-8.091 49.017-8.091-49.017-8.091-49.017z" fill="#f4efed"/><path d="m38.536 4h16.182l-8.091 49.017-8.091 49.017-8.091-49.017-8.091-49.017z" fill="#f4efed"/><path d="m165.751 252h-16.182l8.091-49.017 8.091-49.017 8.091 49.017 8.091 49.017z" fill="#7bac51"/><path d="m217.464 252h-16.182l8.091-49.017 8.091-49.017 8.091 49.017 8.091 49.017z" fill="#7bac51"/><path d="m242 4h-10c5.523 0 10 4.477 10 10v228c0 5.523-4.477 10-10 10h10c5.523 0 10-4.477 10-10v-228c0-5.523-4.477-10-10-10z" fill="#d6d1cf"/><path d="m14 252h10c-5.523 0-10-4.477-10-10v-228c0-5.523 4.477-10 10-10h-10c-5.523 0-10 4.477-10 10v228c0 5.523 4.477 10 10 10z" fill="#99ca6f"/><g fill="#690589"><path d="m242 254h-228c-6.617 0-12-5.383-12-12v-228c0-6.617 5.383-12 12-12h228c6.617 0 12 5.383 12 12v228c0 6.617-5.383 12-12 12zm-228-248c-4.411 0-8 3.589-8 8v228c0 4.411 3.589 8 8 8h228c4.411 0 8-3.589 8-8v-228c0-4.411-3.589-8-8-8z"/><path d="m12 84.811c-1.104 0-2-.896-2-2v-12c0-1.104.896-2 2-2s2 .896 2 2v12c0 1.104-.896 2-2 2z"/><path d="m128 252.629c-1.104 0-2-.896-2-2v-245.258c0-1.104.896-2 2-2s2 .896 2 2v245.258c0 1.104-.896 2-2 2z"/><path d="m90.249 104.034c-.979 0-1.814-.708-1.973-1.674l-16.182-98.034c-.096-.58.068-1.172.448-1.62s.937-.706 1.525-.706h32.364c.587 0 1.145.258 1.525.706s.544 1.04.448 1.62l-16.182 98.034c-.159.965-.994 1.674-1.973 1.674zm-13.825-98.034 13.825 83.753 13.825-83.753z"/><path d="m38.536 104.034c-.979 0-1.814-.708-1.973-1.674l-16.183-98.034c-.096-.58.068-1.172.448-1.62s.938-.706 1.526-.706h32.364c.587 0 1.145.258 1.525.706s.544 1.04.448 1.62l-16.182 98.034c-.159.965-.994 1.674-1.973 1.674zm-13.825-98.034 13.825 83.753 13.824-83.753z"/><path d="m181.933 254h-32.364c-.587 0-1.145-.258-1.525-.706s-.544-1.04-.448-1.62l16.182-98.034c.159-.966.994-1.674 1.973-1.674s1.814.709 1.973 1.674l16.182 98.034c.096.58-.068 1.172-.448 1.62s-.938.706-1.525.706zm-30.007-4h27.65l-13.825-83.753z"/><path d="m233.646 254h-32.364c-.587 0-1.145-.258-1.525-.706s-.544-1.04-.448-1.62l16.182-98.034c.159-.966.994-1.674 1.973-1.674s1.814.709 1.973 1.674l16.182 98.034c.096.58-.068 1.172-.448 1.62-.379.448-.937.706-1.525.706zm-30.006-4h27.649l-13.825-83.753z"/></g><circle cx="38.536" cy="223.962" fill="#f4efed" r="15.038"/><path d="m38.536 241c-9.394 0-17.038-7.643-17.038-17.038s7.643-17.038 17.038-17.038 17.038 7.643 17.038 17.038-7.644 17.038-17.038 17.038zm0-30.075c-7.189 0-13.038 5.849-13.038 13.038s5.849 13.037 13.038 13.037 13.038-5.849 13.038-13.038-5.849-13.037-13.038-13.037z" fill="#690589"/><circle cx="38.536" cy="171.726" fill="#fcc24c" r="15.038"/><path d="m38.536 188.764c-9.394 0-17.038-7.643-17.038-17.038s7.643-17.038 17.038-17.038 17.038 7.643 17.038 17.038c-.001 9.395-7.644 17.038-17.038 17.038zm0-30.075c-7.189 0-13.038 5.849-13.038 13.038s5.849 13.038 13.038 13.038 13.038-5.849 13.038-13.038c-.001-7.19-5.849-13.038-13.038-13.038z" fill="#690589"/><circle cx="90.249" cy="223.962" fill="#fcc24c" r="15.038"/><path d="m90.249 241c-9.395 0-17.038-7.643-17.038-17.038s7.643-17.038 17.038-17.038 17.038 7.643 17.038 17.038-7.643 17.038-17.038 17.038zm0-30.075c-7.189 0-13.038 5.849-13.038 13.038s5.849 13.037 13.038 13.037 13.038-5.849 13.038-13.038-5.849-13.037-13.038-13.037z" fill="#690589"/><circle cx="217.464" cy="32.038" fill="#fcc24c" r="15.038"/><path d="m217.464 49.075c-9.395 0-17.038-7.643-17.038-17.038s7.644-17.037 17.038-17.037c9.395 0 17.038 7.643 17.038 17.038s-7.643 17.037-17.038 17.037zm0-30.075c-7.189 0-13.038 5.849-13.038 13.038s5.849 13.038 13.038 13.038 13.038-5.849 13.038-13.038-5.849-13.038-13.038-13.038z" fill="#690589"/><circle cx="217.464" cy="84.274" fill="#f4efed" r="15.038"/><path d="m217.464 101.312c-9.395 0-17.038-7.643-17.038-17.038s7.643-17.038 17.038-17.038 17.038 7.643 17.038 17.038-7.643 17.038-17.038 17.038zm0-30.076c-7.189 0-13.038 5.849-13.038 13.038s5.849 13.038 13.038 13.038 13.038-5.849 13.038-13.038-5.849-13.038-13.038-13.038z" fill="#690589"/><circle cx="165.751" cy="32.038" fill="#f4efed" r="15.038"/><path d="m165.751 49.075c-9.395 0-17.038-7.643-17.038-17.038s7.643-17.037 17.038-17.037c9.394 0 17.038 7.643 17.038 17.038s-7.644 17.037-17.038 17.037zm0-30.075c-7.189 0-13.038 5.849-13.038 13.038s5.849 13.038 13.038 13.038 13.038-5.849 13.038-13.038-5.849-13.038-13.038-13.038z" fill="#690589"/><path d="m153.861 158.861h-51.721c-2.761 0-5-2.239-5-5v-51.721c0-2.761 2.239-5 5-5h51.721c2.761 0 5 2.239 5 5v51.721c0 2.761-2.239 5-5 5z" fill="#ff4397"/><path d="m153.861 97.139h-7c2.761 0 5 2.239 5 5v51.721c0 2.761-2.239 5-5 5h7c2.761 0 5-2.239 5-5v-51.721c0-2.761-2.239-5-5-5z" fill="#e12579"/><path d="m102.14 158.861h7c-2.762 0-5-2.239-5-5v-51.721c0-2.761 2.238-5 5-5h-7c-2.762 0-5 2.239-5 5v51.721c0 2.761 2.238 5 5 5z" fill="#ff61b5"/><path d="m153.86 160.86h-51.72c-3.86 0-7-3.14-7-7v-51.72c0-3.86 3.14-7 7-7h51.721c3.86 0 7 3.14 7 7v51.721c-.001 3.859-3.141 6.999-7.001 6.999zm-51.72-61.72c-1.654 0-3 1.346-3 3v51.721c0 1.654 1.346 3 3 3h51.721c1.654 0 3-1.346 3-3v-51.721c0-1.654-1.346-3-3-3z" fill="#690589"/><circle cx="128" cy="128" fill="#f4efed" r="11.319"/><path d="m128 141.319c-7.344 0-13.319-5.975-13.319-13.319s5.975-13.319 13.319-13.319 13.319 5.975 13.319 13.319-5.975 13.319-13.319 13.319zm0-22.638c-5.139 0-9.319 4.181-9.319 9.319s4.181 9.319 9.319 9.319c5.139 0 9.319-4.181 9.319-9.319s-4.18-9.319-9.319-9.319z" fill="#690589"/></svg>