<?xml version="1.0" encoding="iso-8859-1"?>
<!-- Generator: Adobe Illustrator 19.0.0, SVG Export Plug-In . SVG Version: 6.00 Build 0)  -->
<svg version="1.1" id="Layer_1" xmlns="http://www.w3.org/2000/svg" xmlns:xlink="http://www.w3.org/1999/xlink" x="0px" y="0px"
	 viewBox="0 0 511.983 511.983" style="enable-background:new 0 0 511.983 511.983;" xml:space="preserve">
<g>
	<rect x="10.671" y="32.002" style="fill:#7F4545;" width="245.32" height="447.99"/>
	<rect x="255.991" y="32.002" style="fill:#7F4545;" width="245.34" height="447.99"/>
</g>
<path style="fill:#A85D5D;" d="M501.327,21.34H255.991H10.671C4.781,21.34,0,26.112,0,32.003v447.985
	c0,5.906,4.781,10.656,10.671,10.656h245.32h245.336c5.891,0,10.656-4.75,10.656-10.656V32.003
	C511.983,26.112,507.218,21.34,501.327,21.34z M21.343,42.667h223.993v426.665H21.343V42.667z M490.655,469.332H266.663V42.667
	h223.992V469.332z"/>
<path style="fill:#ED5564;" d="M85.34,85.337c0,11.781-9.546,21.328-21.343,21.328c-11.781,0-21.328-9.547-21.328-21.328
	c0-11.78,9.547-21.335,21.328-21.335C75.794,64.002,85.34,73.556,85.34,85.337z"/>
<g>
	<path style="fill:#FFCE54;" d="M149.338,85.337c0,11.781-9.546,21.328-21.343,21.328c-11.781,0-21.328-9.547-21.328-21.328
		c0-11.78,9.546-21.335,21.328-21.335C139.792,64.002,149.338,73.556,149.338,85.337z"/>
	<path style="fill:#FFCE54;" d="M149.338,149.335c0,11.781-9.546,21.328-21.343,21.328c-11.781,0-21.328-9.547-21.328-21.328
		c0-11.78,9.546-21.335,21.328-21.335C139.792,128,149.338,137.554,149.338,149.335z"/>
</g>
<path style="fill:#ED5564;" d="M213.336,85.337c0,11.781-9.546,21.328-21.343,21.328c-11.781,0-21.327-9.547-21.327-21.328
	c0-11.78,9.546-21.335,21.327-21.335C203.79,64.002,213.336,73.556,213.336,85.337z"/>
<path style="fill:#FFCE54;" d="M341.331,85.337c0,11.781-9.545,21.328-21.342,21.328c-11.781,0-21.328-9.547-21.328-21.328
	c0-11.78,9.547-21.335,21.328-21.335C331.786,64.002,341.331,73.556,341.331,85.337z"/>
<g>
	<path style="fill:#ED5564;" d="M405.329,85.337c0,11.781-9.545,21.328-21.342,21.328c-11.781,0-21.328-9.547-21.328-21.328
		c0-11.78,9.547-21.335,21.328-21.335C395.784,64.002,405.329,73.556,405.329,85.337z"/>
	<path style="fill:#ED5564;" d="M469.327,85.337c0,11.781-9.545,21.328-21.342,21.328c-11.781,0-21.328-9.547-21.328-21.328
		c0-11.78,9.547-21.335,21.328-21.335C459.782,64.002,469.327,73.556,469.327,85.337z"/>
	<path style="fill:#ED5564;" d="M405.329,149.335c0,11.781-9.545,21.328-21.342,21.328c-11.781,0-21.328-9.547-21.328-21.328
		c0-11.78,9.547-21.335,21.328-21.335C395.784,128,405.329,137.554,405.329,149.335z"/>
	<path style="fill:#ED5564;" d="M405.329,213.333c0,11.781-9.545,21.327-21.342,21.327c-11.781,0-21.328-9.546-21.328-21.327
		c0-11.78,9.547-21.335,21.328-21.335C395.784,191.998,405.329,201.553,405.329,213.333z"/>
</g>
<path style="fill:#FFCE54;" d="M85.34,426.646c0,11.781-9.546,21.344-21.343,21.344c-11.781,0-21.328-9.562-21.328-21.344
	s9.547-21.312,21.328-21.312C75.794,405.334,85.34,414.865,85.34,426.646z"/>
<path style="fill:#ED5564;" d="M149.338,426.646c0,11.781-9.546,21.344-21.343,21.344c-11.781,0-21.328-9.562-21.328-21.344
	s9.546-21.312,21.328-21.312C139.792,405.334,149.338,414.865,149.338,426.646z"/>
<path style="fill:#FFCE54;" d="M213.336,426.646c0,11.781-9.546,21.344-21.343,21.344c-11.781,0-21.327-9.562-21.327-21.344
	s9.546-21.312,21.327-21.312C203.79,405.334,213.336,414.865,213.336,426.646z"/>
<path style="fill:#ED5564;" d="M405.329,426.646c0,11.781-9.545,21.344-21.342,21.344c-11.781,0-21.328-9.562-21.328-21.344
	s9.547-21.312,21.328-21.312C395.784,405.334,405.329,414.865,405.329,426.646z"/>
<g>
	<path style="fill:#FFCE54;" d="M469.327,426.646c0,11.781-9.545,21.344-21.342,21.344c-11.781,0-21.328-9.562-21.328-21.344
		s9.547-21.312,21.328-21.312C459.782,405.334,469.327,414.865,469.327,426.646z"/>
	<path style="fill:#FFCE54;" d="M85.34,362.648c0,11.781-9.546,21.344-21.343,21.344c-11.781,0-21.328-9.562-21.328-21.344
		s9.547-21.312,21.328-21.312C75.794,341.337,85.34,350.867,85.34,362.648z"/>
	<path style="fill:#FFCE54;" d="M469.327,362.648c0,11.781-9.545,21.344-21.342,21.344c-11.781,0-21.328-9.562-21.328-21.344
		s9.547-21.312,21.328-21.312C459.782,341.337,469.327,350.867,469.327,362.648z"/>
</g>
<polygon style="fill:#EDAB35;" points="145.401,230.731 127.027,272.682 166.322,309.338 205.617,290.931 223.992,248.988 
	187.353,212.348 "/>
<polygon style="fill:#F6BB42;" points="168.963,254.293 127.027,272.682 166.322,309.338 205.617,290.931 "/>
<polygon style="fill:#FFCE54;" points="145.401,230.731 127.027,272.682 168.963,254.293 187.353,212.348 "/>
<polygon style="fill:#F6BB42;" points="373.237,309.338 356.581,266.659 304.755,266.659 288.083,309.338 304.755,351.992 
	356.581,351.992 "/>
<polygon style="fill:#EDAB35;" points="356.581,266.659 339.911,309.338 356.581,351.992 373.237,309.338 "/>
<polygon style="fill:#FFCE54;" points="304.755,266.659 288.083,309.338 339.911,309.338 356.581,266.659 "/>
<g>
</g>
<g>
</g>
<g>
</g>
<g>
</g>
<g>
</g>
<g>
</g>
<g>
</g>
<g>
</g>
<g>
</g>
<g>
</g>
<g>
</g>
<g>
</g>
<g>
</g>
<g>
</g>
<g>
</g>
</svg>
