<?xml version="1.0" encoding="iso-8859-1"?>
<!-- Generator: Adobe Illustrator 19.0.0, SVG Export Plug-In . SVG Version: 6.00 Build 0)  -->
<svg version="1.1" id="Layer_1" xmlns="http://www.w3.org/2000/svg" xmlns:xlink="http://www.w3.org/1999/xlink" x="0px" y="0px"
	 viewBox="0 0 503.467 503.467" style="enable-background:new 0 0 503.467 503.467;" xml:space="preserve">
<g transform="translate(1 1)">
	<path style="fill:#AE938D;" d="M464.067,464.067v-85.333V293.4v-85.333v-85.333V37.4h-85.333H293.4h-85.333h-85.333H37.4v85.333
		v85.333V293.4v85.333v85.333h85.333h85.333H293.4h85.333H464.067z M498.2,37.4v426.667c0,18.773-15.36,34.133-34.133,34.133H37.4
		c-18.773,0-34.133-15.36-34.133-34.133V37.4c0-18.773,15.36-34.133,34.133-34.133h426.667C482.84,3.267,498.2,18.627,498.2,37.4
		L498.2,37.4z"/>
	<rect x="37.4" y="37.4" style="fill:#F2EDDA;" width="426.667" height="426.667"/>
	<path style="fill:#ECF4F7;" d="M250.733,63c9.387,0,17.067,7.68,17.067,17.067s-7.68,17.067-17.067,17.067
		c-9.387,0-17.067-7.68-17.067-17.067S241.347,63,250.733,63z M165.4,148.333c9.387,0,17.067,7.68,17.067,17.067
		s-7.68,17.067-17.067,17.067s-17.067-7.68-17.067-17.067S156.013,148.333,165.4,148.333z M165.4,233.667
		c9.387,0,17.067,7.68,17.067,17.067c0,9.387-7.68,17.067-17.067,17.067s-17.067-7.68-17.067-17.067
		C148.333,241.347,156.013,233.667,165.4,233.667z M250.733,404.333c9.387,0,17.067,7.68,17.067,17.067s-7.68,17.067-17.067,17.067
		c-9.387,0-17.067-7.68-17.067-17.067S241.347,404.333,250.733,404.333z"/>
	<path style="fill:#FF7474;" d="M80.067,404.333c9.387,0,17.067,7.68,17.067,17.067s-7.68,17.067-17.067,17.067S63,430.787,63,421.4
		S70.68,404.333,80.067,404.333z M336.067,319c9.387,0,17.067,7.68,17.067,17.067s-7.68,17.067-17.067,17.067
		S319,345.453,319,336.067S326.68,319,336.067,319z M421.4,63c9.387,0,17.067,7.68,17.067,17.067s-7.68,17.067-17.067,17.067
		s-17.067-7.68-17.067-17.067S412.013,63,421.4,63z"/>
</g>
<path style="fill:#51565F;" d="M465.067,503.467H38.4c-21.333,0-38.4-17.067-38.4-38.4V38.4C0,17.067,17.067,0,38.4,0h426.667
	c21.333,0,38.4,17.067,38.4,38.4v426.667C503.467,486.4,486.4,503.467,465.067,503.467z M38.4,8.533
	C22.187,8.533,8.533,22.187,8.533,38.4v426.667c0,16.213,13.653,29.867,29.867,29.867h426.667c16.213,0,29.867-13.653,29.867-29.867
	V38.4c0-16.213-13.653-29.867-29.867-29.867H38.4z M465.067,469.333h-51.2c-2.56,0-4.267-1.707-4.267-4.267
	c0-2.56,1.707-4.267,4.267-4.267H460.8V384H384v81.067c0,2.56-1.707,4.267-4.267,4.267H38.4c-2.56,0-4.267-1.707-4.267-4.267V38.4
	c0-2.56,1.707-4.267,4.267-4.267h426.667c2.56,0,4.267,1.707,4.267,4.267v426.667C469.333,467.627,467.627,469.333,465.067,469.333z
	 M298.667,460.8h76.8V384h-76.8V460.8z M213.333,460.8h76.8V384h-76.8V460.8z M128,460.8h76.8V384H128V460.8z M42.667,460.8h76.8
	V384h-76.8V460.8z M384,375.467h76.8v-76.8H384V375.467z M298.667,375.467h76.8v-76.8h-76.8V375.467z M213.333,375.467h76.8v-76.8
	h-76.8V375.467z M128,375.467h76.8v-76.8H128V375.467z M42.667,375.467h76.8v-76.8h-76.8V375.467z M384,290.133h76.8v-76.8H384
	V290.133z M298.667,290.133h76.8v-76.8h-76.8V290.133z M213.333,290.133h76.8v-76.8h-76.8V290.133z M128,290.133h76.8v-76.8H128
	V290.133z M42.667,290.133h76.8v-76.8h-76.8V290.133z M384,204.8h76.8V128H384V204.8z M298.667,204.8h76.8V128h-76.8V204.8z
	 M213.333,204.8h76.8V128h-76.8V204.8z M128,204.8h76.8V128H128V204.8z M42.667,204.8h76.8V128h-76.8V204.8z M384,119.467h76.8
	v-76.8H384V119.467z M298.667,119.467h76.8v-76.8h-76.8V119.467z M213.333,119.467h76.8v-76.8h-76.8V119.467z M128,119.467h76.8
	v-76.8H128V119.467z M42.667,119.467h76.8v-76.8h-76.8V119.467z M251.733,443.733c-11.947,0-21.333-9.387-21.333-21.333
	s9.387-21.333,21.333-21.333c11.947,0,21.333,9.387,21.333,21.333S263.68,443.733,251.733,443.733z M251.733,409.6
	c-6.827,0-12.8,5.973-12.8,12.8s5.973,12.8,12.8,12.8c6.827,0,12.8-5.973,12.8-12.8S258.56,409.6,251.733,409.6z M81.067,443.733
	c-11.947,0-21.333-9.387-21.333-21.333s9.387-21.333,21.333-21.333S102.4,410.453,102.4,422.4S93.013,443.733,81.067,443.733z
	 M81.067,409.6c-6.827,0-12.8,5.973-12.8,12.8s5.973,12.8,12.8,12.8c6.827,0,12.8-5.973,12.8-12.8S87.893,409.6,81.067,409.6z
	 M337.067,358.4c-11.947,0-21.333-9.387-21.333-21.333s9.387-21.333,21.333-21.333s21.333,9.387,21.333,21.333
	S349.013,358.4,337.067,358.4z M337.067,324.267c-6.827,0-12.8,5.973-12.8,12.8s5.973,12.8,12.8,12.8s12.8-5.973,12.8-12.8
	S343.893,324.267,337.067,324.267z M166.4,273.067c-11.947,0-21.333-9.387-21.333-21.333c0-11.947,9.387-21.333,21.333-21.333
	s21.333,9.387,21.333,21.333C187.733,263.68,178.347,273.067,166.4,273.067z M166.4,238.933c-6.827,0-12.8,5.973-12.8,12.8
	c0,6.827,5.973,12.8,12.8,12.8s12.8-5.973,12.8-12.8C179.2,244.907,173.227,238.933,166.4,238.933z M166.4,187.733
	c-11.947,0-21.333-9.387-21.333-21.333s9.387-21.333,21.333-21.333s21.333,9.387,21.333,21.333S178.347,187.733,166.4,187.733z
	 M166.4,153.6c-6.827,0-12.8,5.973-12.8,12.8s5.973,12.8,12.8,12.8s12.8-5.973,12.8-12.8S173.227,153.6,166.4,153.6z M422.4,102.4
	c-11.947,0-21.333-9.387-21.333-21.333s9.387-21.333,21.333-21.333s21.333,9.387,21.333,21.333S434.347,102.4,422.4,102.4z
	 M422.4,68.267c-6.827,0-12.8,5.973-12.8,12.8c0,6.827,5.973,12.8,12.8,12.8s12.8-5.973,12.8-12.8
	C435.2,74.24,429.227,68.267,422.4,68.267z M251.733,102.4c-11.947,0-21.333-9.387-21.333-21.333s9.387-21.333,21.333-21.333
	c11.947,0,21.333,9.387,21.333,21.333S263.68,102.4,251.733,102.4z M251.733,68.267c-6.827,0-12.8,5.973-12.8,12.8
	c0,6.827,5.973,12.8,12.8,12.8c6.827,0,12.8-5.973,12.8-12.8C264.533,74.24,258.56,68.267,251.733,68.267z"/>
<g>
</g>
<g>
</g>
<g>
</g>
<g>
</g>
<g>
</g>
<g>
</g>
<g>
</g>
<g>
</g>
<g>
</g>
<g>
</g>
<g>
</g>
<g>
</g>
<g>
</g>
<g>
</g>
<g>
</g>
</svg>
