<svg height="512pt" viewBox="0 0 512 512" width="512pt" xmlns="http://www.w3.org/2000/svg"><path d="m508 0h-504c-2.207031 0-4 1.792969-4 4v504c0 2.207031 1.792969 4 4 4h504c2.207031 0 4-1.792969 4-4v-504c0-2.207031-1.792969-4-4-4zm0 0" fill="#965353"/><path d="m20 20h224v472h-224zm0 0" fill="#ffd2a6"/><path d="m268 20h224v472h-224zm0 0" fill="#ffd2a6"/><path d="m256 104c-4.414062 0-8 3.585938-8 8v64c0 4.414062 3.585938 8 8 8s8-3.585938 8-8v-64c0-4.414062-3.585938-8-8-8zm0 0" fill="#e6e9ed"/><path d="m256 328c-4.414062 0-8 3.585938-8 8v64c0 4.414062 3.585938 8 8 8s8-3.585938 8-8v-64c0-4.414062-3.585938-8-8-8zm0 0" fill="#e6e9ed"/><path d="m428 256c0 26.507812-21.492188 48-48 48s-48-21.492188-48-48 21.492188-48 48-48 48 21.492188 48 48zm0 0" fill="#965353"/><path d="m400 256c0 11.046875-8.953125 20-20 20s-20-8.953125-20-20 8.953125-20 20-20 20 8.953125 20 20zm0 0" fill="#773e3e"/><path d="m180 256c0 26.507812-21.492188 48-48 48s-48-21.492188-48-48 21.492188-48 48-48 48 21.492188 48 48zm0 0" fill="#965353"/><path d="m152 256c0 11.046875-8.953125 20-20 20s-20-8.953125-20-20 8.953125-20 20-20 20 8.953125 20 20zm0 0" fill="#773e3e"/><path d="m68 164-16-72h32zm0 0" fill="#656d78"/><path d="m196 164-16-72h32zm0 0" fill="#656d78"/><path d="m132 163.984375-16-72h32zm0 0" fill="#f5f7fa"/><path d="m316 164-16-72h32zm0 0" fill="#f5f7fa"/><path d="m444 164-16-72h32zm0 0" fill="#f5f7fa"/><path d="m380 163.984375-16-72h32zm0 0" fill="#656d78"/><path d="m444 348 16 72h-32zm0 0" fill="#656d78"/><path d="m316 348 16 72h-32zm0 0" fill="#656d78"/><path d="m380 348.015625 16 72h-32zm0 0" fill="#f5f7fa"/><path d="m196 348 16 72h-32zm0 0" fill="#f5f7fa"/><path d="m68 348 16 72h-32zm0 0" fill="#f5f7fa"/><path d="m132 348.015625 16 72h-32zm0 0" fill="#656d78"/><path d="m84 68c0 8.835938-7.164062 16-16 16s-16-7.164062-16-16 7.164062-16 16-16 16 7.164062 16 16zm0 0" fill="#f5f7fa"/><path d="m212 68c0 8.835938-7.164062 16-16 16s-16-7.164062-16-16 7.164062-16 16-16 16 7.164062 16 16zm0 0" fill="#f5f7fa"/><path d="m332 444c0 8.835938-7.164062 16-16 16s-16-7.164062-16-16 7.164062-16 16-16 16 7.164062 16 16zm0 0" fill="#f5f7fa"/><path d="m148 444c0 8.835938-7.164062 16-16 16s-16-7.164062-16-16 7.164062-16 16-16 16 7.164062 16 16zm0 0" fill="#f5f7fa"/><path d="m148 68c0 8.835938-7.164062 16-16 16s-16-7.164062-16-16 7.164062-16 16-16 16 7.164062 16 16zm0 0" fill="#656d78"/><path d="m396 444c0 8.835938-7.164062 16-16 16s-16-7.164062-16-16 7.164062-16 16-16 16 7.164062 16 16zm0 0" fill="#656d78"/><path d="m212 444c0 8.835938-7.164062 16-16 16s-16-7.164062-16-16 7.164062-16 16-16 16 7.164062 16 16zm0 0" fill="#656d78"/><path d="m332 68c0 8.835938-7.164062 16-16 16s-16-7.164062-16-16 7.164062-16 16-16 16 7.164062 16 16zm0 0" fill="#656d78"/><path d="m460 68c0 8.835938-7.164062 16-16 16s-16-7.164062-16-16 7.164062-16 16-16 16 7.164062 16 16zm0 0" fill="#656d78"/><g fill="#f7c292"><path d="m316 480c-19.847656 0-36-16.152344-36-36 0-2.207031 1.792969-4 4-4s4 1.792969 4 4c0 15.441406 12.558594 28 28 28s28-12.558594 28-28c0-2.207031 1.792969-4 4-4s4 1.792969 4 4c0 19.847656-16.152344 36-36 36zm0 0"/><path d="m380 480c-19.847656 0-36-16.152344-36-36 0-2.207031 1.792969-4 4-4s4 1.792969 4 4c0 15.441406 12.558594 28 28 28s28-12.558594 28-28c0-2.207031 1.792969-4 4-4s4 1.792969 4 4c0 19.847656-16.152344 36-36 36zm0 0"/><path d="m444 480c-19.847656 0-36-16.152344-36-36 0-2.207031 1.792969-4 4-4s4 1.792969 4 4c0 15.441406 12.558594 28 28 28s28-12.558594 28-28c0-2.207031 1.792969-4 4-4s4 1.792969 4 4c0 19.847656-16.152344 36-36 36zm0 0"/><path d="m476 72c-2.207031 0-4-1.792969-4-4 0-15.441406-12.558594-28-28-28s-28 12.558594-28 28c0 2.207031-1.792969 4-4 4s-4-1.792969-4-4c0-19.847656 16.152344-36 36-36s36 16.152344 36 36c0 2.207031-1.792969 4-4 4zm0 0"/><path d="m412 72c-2.207031 0-4-1.792969-4-4 0-15.441406-12.558594-28-28-28s-28 12.558594-28 28c0 2.207031-1.792969 4-4 4s-4-1.792969-4-4c0-19.847656 16.152344-36 36-36s36 16.152344 36 36c0 2.207031-1.792969 4-4 4zm0 0"/><path d="m348 72c-2.207031 0-4-1.792969-4-4 0-15.441406-12.558594-28-28-28s-28 12.558594-28 28c0 2.207031-1.792969 4-4 4s-4-1.792969-4-4c0-19.847656 16.152344-36 36-36s36 16.152344 36 36c0 2.207031-1.792969 4-4 4zm0 0"/><path d="m68 480c-19.847656 0-36-16.152344-36-36 0-2.207031 1.792969-4 4-4s4 1.792969 4 4c0 15.441406 12.558594 28 28 28s28-12.558594 28-28c0-2.207031 1.792969-4 4-4s4 1.792969 4 4c0 19.847656-16.152344 36-36 36zm0 0"/><path d="m132 480c-19.847656 0-36-16.152344-36-36 0-2.207031 1.792969-4 4-4s4 1.792969 4 4c0 15.441406 12.558594 28 28 28s28-12.558594 28-28c0-2.207031 1.792969-4 4-4s4 1.792969 4 4c0 19.847656-16.152344 36-36 36zm0 0"/><path d="m196 480c-19.847656 0-36-16.152344-36-36 0-2.207031 1.792969-4 4-4s4 1.792969 4 4c0 15.441406 12.558594 28 28 28s28-12.558594 28-28c0-2.207031 1.792969-4 4-4s4 1.792969 4 4c0 19.847656-16.152344 36-36 36zm0 0"/><path d="m228 72c-2.207031 0-4-1.792969-4-4 0-15.441406-12.558594-28-28-28s-28 12.558594-28 28c0 2.207031-1.792969 4-4 4s-4-1.792969-4-4c0-19.847656 16.152344-36 36-36s36 16.152344 36 36c0 2.207031-1.792969 4-4 4zm0 0"/><path d="m164 72c-2.207031 0-4-1.792969-4-4 0-15.441406-12.558594-28-28-28s-28 12.558594-28 28c0 2.207031-1.792969 4-4 4s-4-1.792969-4-4c0-19.847656 16.152344-36 36-36s36 16.152344 36 36c0 2.207031-1.792969 4-4 4zm0 0"/><path d="m100 72c-2.207031 0-4-1.792969-4-4 0-15.441406-12.558594-28-28-28s-28 12.558594-28 28c0 2.207031-1.792969 4-4 4s-4-1.792969-4-4c0-19.847656 16.152344-36 36-36s36 16.152344 36 36c0 2.207031-1.792969 4-4 4zm0 0"/></g></svg>