<svg height="512" viewBox="0 0 64 64" width="512" xmlns="http://www.w3.org/2000/svg"><g id="flat"><path d="m3 3h58v58h-58z" fill="#ffd782"/><circle cx="16" cy="16" fill="#8ec13f" r="9"/><g fill="#c8d952"><circle cx="13" cy="13" r="2"/><circle cx="19" cy="13" r="2"/><circle cx="13" cy="19" r="2"/><circle cx="19" cy="19" r="2"/></g><circle cx="48" cy="16" fill="#e97424" r="9"/><circle cx="45" cy="13" fill="#fcf05a" r="2"/><circle cx="51" cy="13" fill="#fcf05a" r="2"/><circle cx="45" cy="19" fill="#fcf05a" r="2"/><circle cx="51" cy="19" fill="#fcf05a" r="2"/><circle cx="16" cy="48" fill="#e1462b" r="9"/><circle cx="13" cy="45" fill="#f98c96" r="2"/><circle cx="19" cy="45" fill="#f98c96" r="2"/><circle cx="13" cy="51" fill="#f98c96" r="2"/><circle cx="19" cy="51" fill="#f98c96" r="2"/><circle cx="48" cy="48" fill="#2d75bb" r="9"/><circle cx="45" cy="45" fill="#32b1cc" r="2"/><circle cx="51" cy="45" fill="#32b1cc" r="2"/><circle cx="45" cy="51" fill="#32b1cc" r="2"/><circle cx="51" cy="51" fill="#32b1cc" r="2"/><path d="m27 27 5 5-5 5z" fill="#78a528"/><path d="m32 32 5-5v10z" fill="#1a68a8"/><path d="m27 27 5 5 5-5z" fill="#d15a09"/><path d="m27 37 5-5 5 5z" fill="#c92d18"/><path d="m55.5 26.5h5v6h-5z" fill="#1a68a8" transform="matrix(0 1 -1 0 87.5 -28.5)"/><path d="m55.5 31.5h5v6h-5z" fill="#f4f4e6" transform="matrix(0 1 -1 0 92.5 -23.5)"/><path d="m49.5 26.5h5v6h-5z" fill="#2d75bb" transform="matrix(0 1 -1 0 81.5 -22.5)"/><path d="m49.5 31.5h5v6h-5z" fill="#e0dec6" transform="matrix(0 1 -1 0 86.5 -17.5)"/><path d="m43.5 26.5h5v6h-5z" fill="#1a68a8" transform="matrix(0 1 -1 0 75.5 -16.5)"/><path d="m43.5 31.5h5v6h-5z" fill="#f4f4e6" transform="matrix(0 1 -1 0 80.5 -11.5)"/><path d="m37.5 26.5h5v6h-5z" fill="#2d75bb" transform="matrix(0 1 -1 0 69.5 -10.5)"/><path d="m37.5 31.5h5v6h-5z" fill="#e0dec6" transform="matrix(0 1 -1 0 74.5 -5.5)"/><path d="m21.5 26.5h5v6h-5z" fill="#e0dec6" transform="matrix(0 1 -1 0 53.5 5.5)"/><path d="m21.5 31.5h5v6h-5z" fill="#8ec13f" transform="matrix(0 1 -1 0 58.5 10.5)"/><path d="m15.5 26.5h5v6h-5z" fill="#f4f4e6" transform="matrix(0 1 -1 0 47.5 11.5)"/><path d="m15.5 31.5h5v6h-5z" fill="#78a528" transform="matrix(0 1 -1 0 52.5 16.5)"/><path d="m9.5 26.5h5v6h-5z" fill="#e0dec6" transform="matrix(0 1 -1 0 41.5 17.5)"/><path d="m9.5 31.5h5v6h-5z" fill="#8ec13f" transform="matrix(0 1 -1 0 46.5 22.5)"/><path d="m3.5 26.5h5v6h-5z" fill="#f4f4e6" transform="matrix(0 1 -1 0 35.5 23.5)"/><path d="m3.5 31.5h5v6h-5z" fill="#78a528" transform="matrix(0 1 -1 0 40.5 28.5)"/><path d="m27 3h5v6h-5z" fill="#d15a09"/><path d="m32 3h5v6h-5z" fill="#f4f4e6"/><path d="m27 9h5v6h-5z" fill="#e97424"/><path d="m32 9h5v6h-5z" fill="#e0dec6"/><path d="m27 15h5v6h-5z" fill="#d15a09"/><path d="m32 15h5v6h-5z" fill="#f4f4e6"/><path d="m27 21h5v6h-5z" fill="#e97424"/><path d="m32 21h5v6h-5z" fill="#e0dec6"/><path d="m27 37h5v6h-5z" fill="#e0dec6"/><path d="m32 37h5v6h-5z" fill="#e1462b"/><path d="m27 43h5v6h-5z" fill="#f4f4e6"/><path d="m32 43h5v6h-5z" fill="#c92d18"/><path d="m27 49h5v6h-5z" fill="#e0dec6"/><path d="m32 49h5v6h-5z" fill="#e1462b"/><path d="m27 55h5v6h-5z" fill="#f4f4e6"/><path d="m32 55h5v6h-5z" fill="#c92d18"/><path d="m6 6h2v2h-2z" fill="#f4f4e6"/><path d="m56 6h2v2h-2z" fill="#f4f4e6"/><path d="m56 56h2v2h-2z" fill="#f4f4e6"/><path d="m6 56h2v2h-2z" fill="#f4f4e6"/></g></svg>