<svg id="Capa_1" enable-background="new 0 0 512 512" height="512" viewBox="0 0 512 512" width="512" xmlns="http://www.w3.org/2000/svg"><g><path d="m61 61h390v390h-390z" fill="#00eed1"/><g><path d="m256 61h195v390h-195z" fill="#00b6bd"/></g><path d="m497 70.333h-55.333v-55.333c0-8.284-6.716-15-15-15h-85.334l-37.333 10.333-48-10.333h-85.333l-42.667 6.333-42.667-6.333h-70.333c-8.284 0-15 6.716-15 15v70.333l7 37.667-7 47.667v85.333l10.333 40-10.333 45.333v85.334c0 8.284 6.716 15 15 15h55.333v55.333c0 8.284 6.716 15 15 15h85.334l37.333-10.333 48 10.333h85.333l42.667-6.333 42.667 6.333h70.333c8.284 0 15-6.716 15-15v-70.333l-7-37.667 7-47.667v-85.333l-10.333-40 10.333-45.333v-85.334c0-8.284-6.716-15-15-15zm-64 313.667-6.333 42.667-37.667 7-47.667-7h-85.333l-40 10.333-45.333-10.333h-85.334v-85.333l-10.333-37.334 10.333-48v-85.333l-6.333-42.667 6.333-42.667 37.667-7 47.667 7h85.333l40-10.333 45.333 10.333h85.333v85.333l10.334 37.334-10.333 48v85.333z" fill="#f9f9f9"/><path d="m256 85.333 40-10.333 45.333 10.333h85.333v85.333l10.334 37.334-10.333 48v85.333l6.333 42.667-6.333 42.667-37.667 7-47.667-7h-85.333v85.333h85.333l42.667-6.333 42.667 6.333h70.333c8.284 0 15-6.716 15-15v-70.333l-7-37.667 7-47.667v-85.333l-10.333-40 10.333-45.333v-85.334c0-8.284-6.716-15-15-15h-55.333v-55.333c0-8.284-6.716-15-15-15h-85.334l-37.333 10.333-48-10.333z" fill="#e2dff4"/><g><path d="m0 426.667v70.333c0 8.284 6.716 15 15 15h70.333v-85.333z" fill="#ff8659"/><path d="m170.667 426.667h85.333v85.333h-85.333z" fill="#ff8659"/><path d="m341.333 426.667h85.333v85.333h-85.333z" fill="#ff4a4a"/></g><g><path d="m85.333 0h85.333v85.333h-85.333z" fill="#ff8659"/><g fill="#ff4a4a"><path d="m426.667 0v85.333h85.333v-70.333c0-8.284-6.716-15-15-15z"/><path d="m256 0h85.333v85.333h-85.333z"/></g></g><g fill="#ff4a4a"><path d="m426.667 341.333h85.333v85.333h-85.333z"/><path d="m426.667 170.667h85.333v85.333h-85.333z"/></g><g fill="#ff8659"><path d="m0 256h85.333v85.333h-85.333z"/><path d="m0 85.333h85.333v85.333h-85.333z"/></g><path d="m361 376h-60c-8.284 0-15-6.716-15-15v-60c0-8.284 6.716-15 15-15h60c8.284 0 15 6.716 15 15v60c0 8.284-6.716 15-15 15z" fill="#5e54ac"/><g><path d="m361 286h-30v90h30c8.284 0 15-6.716 15-15v-60c0-8.284-6.716-15-15-15z" fill="#453d81"/></g><path d="m211 226h-60c-8.284 0-15-6.716-15-15v-60c0-8.284 6.716-15 15-15h60c8.284 0 15 6.716 15 15v60c0 8.284-6.716 15-15 15z" fill="#f9f9f9"/><g><path d="m211 136h-30v90h30c8.284 0 15-6.716 15-15v-60c0-8.284-6.716-15-15-15z" fill="#e2dff4"/></g></g></svg>