<svg id="Layer_1" height="512" viewBox="0 0 512 512" width="512" xmlns="http://www.w3.org/2000/svg" data-name="Layer 1"><path d="m227.54 106.075h-191.95a20.581 20.581 0 0 0 -20.6 20.56v328.48a20.583 20.583 0 0 0 20.6 20.57h228.25a20.583 20.583 0 0 0 20.6-20.57v-51.5z" fill="#8dd85b"/><rect fill="#ffe4a9" height="369.61" rx="17.61" width="269.45" x="226.55" y="36.16"/><path d="m461.92 368.91a4.585 4.585 0 1 1 -4.58 4.59 4.584 4.584 0 0 1 4.58-4.59z" fill="#8fc2ff"/><path d="m361.92 130.21a93 93 0 1 1 -93.15 93 93.082 93.082 0 0 1 93.15-93z" fill="#a4b1ff"/><path d="m420.57 185.86a3.553 3.553 0 0 1 3.07 5.33l-18.52 32.03-21.6-37.36z" fill="#8dd85b"/><path d="m423.64 255.24a3.545 3.545 0 0 1 -3.07 5.32h-37.04l21.59-37.34z" fill="#ff6161"/><path d="m383.52 185.86 21.6 37.36-21.59 37.34h-43.21l-21.59-37.34 21.6-37.36z" fill="#ed5a5a"/><path d="m383.53 260.56-18.53 32.04a3.556 3.556 0 0 1 -6.15 0l-18.53-32.04z" fill="#8dd85b"/><path d="m365 153.83 18.52 32.03h-43.19l18.52-32.03a3.556 3.556 0 0 1 6.15 0z" fill="#ff6161"/><path d="m340.33 185.86-21.6 37.36-18.52-32.03a3.553 3.553 0 0 1 3.07-5.33z" fill="#8dd85b"/><path d="m318.73 223.22 21.59 37.34h-37.04a3.545 3.545 0 0 1 -3.07-5.32z" fill="#ff6161"/><path d="m264.26 67.49a5.58 5.58 0 1 1 -5.6 5.58 5.591 5.591 0 0 1 5.6-5.58z" fill="#8fc2ff"/><g fill="#ffd366"><path d="m226.55 324.66v16.02a86.025 86.025 0 0 1 -68.32 30.21c-44.86-1.39-81.45-37.96-82.79-82.75a85.328 85.328 0 0 1 43.53-77.03 3.532 3.532 0 0 1 4.87 4.71 78.892 78.892 0 0 0 69.51 116.22 79.787 79.787 0 0 0 33.2-7.38z"/><ellipse cx="249.81" cy="441.74" rx="5.59" ry="5.58"/><ellipse cx="53.7" cy="143.14" rx="5.59" ry="5.58"/></g><path d="m45 455.115v-328.48a20.637 20.637 0 0 1 20.59-20.635h-30a20.637 20.637 0 0 0 -20.59 20.635v328.48a20.846 20.846 0 0 0 20.59 20.885h30a20.846 20.846 0 0 1 -20.59-20.885z" fill="#73ad4d"/><path d="m256 388.39v-334.78a17.61 17.61 0 0 1 17.61-17.61h-30a17.61 17.61 0 0 0 -17.61 17.61v334.78a17.61 17.61 0 0 0 17.61 17.61h30a17.61 17.61 0 0 1 -17.61-17.61z" fill="#d1b886"/></svg>