<svg id="Layer_1" enable-background="new 0 0 512 512" height="512" viewBox="0 0 512 512" width="512" xmlns="http://www.w3.org/2000/svg"><path d="m166 0h330v451h-330z" fill="#766e6e"/><path d="m331 0h165v451h-165z" fill="#5b5555"/><path d="m421 90c-8.276 0-15-6.724-15-15v-15h-60l-30 30v271l15 30h75v-15c0-8.276 6.724-15 15-15h15v-271z" fill="#4bb9ec"/><path d="m16 60v452h330v-452z" fill="#fef8c9"/><path d="m181 60h165v452h-165z" fill="#ffe9cb"/><path d="m136 346h90v105h-90z" fill="#766e6e"/><path d="m181 346h45v105h-45z" fill="#5b5555"/><path d="m76 121h30v30h-30z" fill="#766e6e"/><path d="m256 421h30v30h-30z" fill="#5b5555"/><path d="m226 226v120h-90v-195h15c10.499 0 20.7 2.1 30 6.301 26.4 11.4 45 37.798 45 68.699z" fill="#ffda2d"/><path d="m226 226v120h-45v-188.699c26.4 11.4 45 37.798 45 68.699z" fill="#fdbf00"/><path d="m106 331h150v30h-150z" fill="#fdbf00"/><path d="m181 331h75v30h-75z" fill="#ff9100"/></svg>