<?xml version="1.0" encoding="UTF-8"?>
<svg width="568.2" height="371.58" viewBox="0 0 568.20133 371.58172" xmlns="http://www.w3.org/2000/svg" xmlns:xlink="http://www.w3.org/1999/xlink">
 <defs>
  <linearGradient id="e">
   <stop stop-color="#000086" offset="0"/>
   <stop stop-color="#005aff" offset="1"/>
  </linearGradient>
  <linearGradient id="a" x1="2" x2="109" y1="62.1" y2="127.7" gradientUnits="userSpaceOnUse">
   <stop stop-color="#ebf0d0" offset="0"/>
   <stop stop-color="#ffffeb" offset="1"/>
  </linearGradient>
  <linearGradient id="d" x1="138.23" x2="36.52" y1="146.62" y2="18.728" gradientTransform="scale(.85424 1.1706)" gradientUnits="userSpaceOnUse" xlink:href="#e"/>
  <linearGradient id="c" x1="22.029" x2="146.4" y1="17.153" y2="140.45" gradientTransform="scale(.85537 1.1691)" gradientUnits="userSpaceOnUse" xlink:href="#e"/>
  <pattern id="b" width="14.14216" height="13.75001" patternTransform="translate(15 -5)" patternUnits="userSpaceOnUse">
   <g transform="translate(31.25 -2.9289)" fill="#fff">
    <path transform="rotate(45)" d="m-17.526 21.668h5v5h-5z"/>
    <path transform="rotate(45)" d="m-12.803 26.391h5v5h-5z"/>
    <path transform="rotate(45)" d="m-12.526 16.668h5v5h-5z"/>
    <path transform="rotate(45)" d="m-7.8033 21.391h5v5h-5z"/>
   </g>
  </pattern>
 </defs>
 <g transform="translate(-165.04 -162.15)">
  <g transform="matrix(.67334 0 -.09611 .4952 446.37 191.85)">
   <path d="m21 5h103c8.864 0 16 7.136 16 16v153c0 8.864-7.136 16-16 16h-103c-8.864 0-16-7.136-16-16v-153c0-8.864 7.136-16 16-16z" fill-opacity=".49804"/>
   <path d="m17 1h103c8.864 0 16 7.136 16 16v153c0 8.864-7.136 16-16 16h-103c-8.864 0-16-7.136-16-16v-153c0-8.864 7.136-16 16-16z" fill="#fff"/>
   <path d="m19 3h103c8.864 0 16 7.136 16 16v153c0 8.864-7.136 16-16 16h-103c-8.864 0-16-7.136-16-16v-153c0-8.864 7.136-16 16-16z" fill="#c7891f"/>
   <path d="m18 2h103c8.864 0 16 7.136 16 16v153c0 8.864-7.136 16-16 16h-103c-8.864 0-16-7.136-16-16v-153c0-8.864 7.136-16 16-16z" fill="url(#a)"/>
   <path d="m22.167 10h94.417c8.1253 0 14.667 6.5413 14.667 14.667v140.25c0 8.1253-6.5413 14.667-14.667 14.667h-94.417c-8.1253 0-14.667-6.5413-14.667-14.667v-140.25c0-8.1253 6.5413-14.667 14.667-14.667z" fill="url(#d)"/>
   <path d="m22.167 10h94.417c8.1253 0 14.667 6.5413 14.667 14.667v140.25c0 8.1253-6.5413 14.667-14.667 14.667h-94.417c-8.1253 0-14.667-6.5413-14.667-14.667v-140.25c0-8.1253 6.5413-14.667 14.667-14.667z" fill="url(#b)"/>
   <path d="m22.156 9.375c-8.4608 0-15.281 6.8205-15.281 15.281v140.25c0 8.4608 6.8205 15.312 15.281 15.312h94.438c8.4608 0 15.281-6.8517 15.281-15.312v-140.25c0-8.4608-6.8205-15.281-15.281-15.281h-94.438zm0 1.25h94.438c7.7899 0 14.031 6.2414 14.031 14.031v140.25c0 7.7899-6.2414 14.062-14.031 14.062h-94.438c-7.7899 0-14.031-6.2726-14.031-14.062v-140.25c0-7.7899 6.2414-14.031 14.031-14.031z" fill="url(#c)"/>
  </g>
  <g transform="matrix(.66035 0 -.12816 .66035 136.01 188.85)">
   <g transform="matrix(1.0197 0 0 .74991 320.95 4.5442)">
    <path d="m21 5h103c8.864 0 16 7.136 16 16v153c0 8.864-7.136 16-16 16h-103c-8.864 0-16-7.136-16-16v-153c0-8.864 7.136-16 16-16z" fill-opacity=".49804"/>
    <path d="m17 1h103c8.864 0 16 7.136 16 16v153c0 8.864-7.136 16-16 16h-103c-8.864 0-16-7.136-16-16v-153c0-8.864 7.136-16 16-16z" fill="#fff"/>
    <path d="m19 3h103c8.864 0 16 7.136 16 16v153c0 8.864-7.136 16-16 16h-103c-8.864 0-16-7.136-16-16v-153c0-8.864 7.136-16 16-16z" fill="#c7891f"/>
    <path d="m18 2h103c8.864 0 16 7.136 16 16v153c0 8.864-7.136 16-16 16h-103c-8.864 0-16-7.136-16-16v-153c0-8.864 7.136-16 16-16z" fill="url(#a)"/>
   </g>
   <g transform="matrix(.20837 0 0 .20837 328 -11.051)">
    <path transform="translate(-188.77 11.294)" d="m344.43 534.69 51.63 82.284 66.957 33.882 101.65-33.075 61.31-95.192-6.453-88.739-50.017-111.33-23.394-44.369-125.04 1.613-6.454 37.916-43.562 73.41-29.042 79.865 2.42 63.731z" fill="#fff"/>
    <g transform="translate(107.66 -154.86)">
     <path d="m329.34 727.55c-14.112-1.224-25.2-11.736-26.208-32.616 3.24-55.44 6.48-112.82-31.896-149.83-5.976-46.08-27.216-63-37.224-92.592l-15.768-11.304 18.864-29.52 8.064 0.216 78.768 159.26 16.488 80.28-11.088 76.104z" fill="#c1c1bf"/>
     <path d="m136.23 439.7c-2.376 15.552-3.672 30.816-1.44 45.576-16.416 22.32-28.872 44.856-30.312 68.04-12.456 33.192-42.048 61.272-36.936 126.79 16.632 17.352 39.888 33.48 59.832 50.256 25.056 20.952 10.152 48.6-25.128 42.048-7.848-8.64-25.632-62.784-59.328-96.12l6.624-43.704 31.824-85.176 39.6-63.36 4.392-27.36-5.544-69.912 4.608-25.56 11.808 78.48z" fill="#c1c1bf"/>
     <path d="m115.64 341.42c0.936-5.04 2.16-9.792 3.672-14.256l2.376 15.624-6.048-1.368z" fill="#c1c1bf"/>
     <path d="m120.97 500.46c-12.6 23.328-16.992 45.792 11.952 49.752-15.912 3.672-35.712 18.432-55.728 43.272l0.432-50.472 23.832-39.744 19.512-2.808z" fill="#c1c1bf"/>
     <path d="m-33.256 818.49c43.776 19.656 74.664 18.576 102.53 32.472 22.032 11.592 44.28 10.224 57.672-3.816 11.376-14.688 19.8-15.408 36.576-16.92 27.432-1.656 54.216-1.944 78.408 0.576l27.648 2.232c-0.504 31.032 58.464 34.848 75.816 11.304 20.952-24.912 49.752-36.072 74.448-54.144l-130.54-64.656c-33.48 80.928-158.26 102.1-175.54 37.728l-147.02 55.224z" fill="#c1c1bf"/>
     <path d="m286.42 711.57c-12.6-0.072-25.488 4.032-24.48 20.592l4.248 44.28 38.232-19.8-18-45.072z" fill="#c1c1bf"/>
     <path d="m-37.36 821.22c44.496 19.656 75.96 18.504 104.33 32.472 22.392 11.52 45 10.224 58.68-3.888 11.592-14.616 20.16-15.336 37.224-16.848 27.864-1.728 55.152-1.944 79.776 0.504l28.08 2.304c-0.504 31.032 59.544 34.776 77.184 11.232 21.312-24.912 50.616-36 75.744-54.144l-132.84-64.584c-34.056 80.856-160.99 102.02-178.56 37.728l-149.62 55.224z"/>
     <path d="m382.33 691.98c21.312 6.984 7.56 28.296 18.432 40.536 4.68 10.368 14.544 19.512 31.032 28.008 27.576 13.896-5.544 38.808-39.024 51.552-40.824 13.536-48.744 50.832-93.456 39.816-16.2-5.4-20.952-20.088-20.448-42.768 5.4-46.368-1.08-78.696-0.072-110.3-0.072-12.672 4.752-14.184 28.44-10.872 2.808 38.376 45.144 39.384 75.096 4.032z" fill="#b77200"/>
     <path d="m339.632,826.624c31.968-12.312 64.224-28.512 90.216-44.496 7.992-4.68 9.072-16.2-2.16-19.8-24.336-13.824-37.584-31.104-34.776-53.568 .432-7.848-9.216-16.2-11.808-8.712-21.24,71.424-89.784,67.608-80.352-3.096 .504-2.088 1.008-4.176 1.512-6.192-12.312-2.52-17.064.216-16.488,9.648l9.504,106.2c2.376,24.192 22.032,29.52 44.352,20.016z" fill="#f2b700"/>
     <path d="m354.46 537.54c24.696 32.256 49.968 113.54 29.952 154.01-23.472 46.224-76.608 51.696-78.912 4.248 3.312-56.16 6.48-114.26-31.824-151.7-5.976-46.728-27.288-63.864-37.296-93.816l-33.264-24.192-69.552 9c-2.808 17.064-4.464 33.696-2.016 49.824-16.488 22.464-28.944 45.144-30.384 68.4-12.456 33.336-42.048 61.632-36.936 127.44 16.632 17.496 39.888 33.696 59.832 50.544 25.056 21.096 11.448 45-23.832 38.376-21.384-23.616-43.488-46.8-64.944-70.344-22.896-16.272-31.392-37.152-7.92-68.832 16.056-21.456 20.592-68.04 34.632-86.832 12.312-18.504 30.24-35.064 43.272-53.568 6.912-12.168 9.072-21.528 7.992-35.64l-2.952-85.32c-1.944-61.92 32.112-94.896 79.488-93.888 53.712 0.504 97.776 37.224 98.352 103.03 4.536 32.04-4.896 50.4 20.52 96.192 25.848 48.24 29.88 45.648 45.792 63.072z"/>
     <path d="m261.3 503.63 2.232 8.568c-5.832-10.512-12.816-28.584-21.6-36.504-2.664-2.16-6.12-2.088-8.208-0.072-11.664 11.304-40.608 34.488-63.792 31.464-17.856-1.8-35.28-13.824-39.096-26.856-2.016-9.36-1.08-17.064 0.144-24.912l109.73-1.8c-2.232 9.648 12.384 33.48 20.592 50.112z" fill="#c1c1bf"/>
     <path d="m143.14 363.23c10.944 0 20.736 13.608 20.664 32.4-0.072 12.6-8.28 15.84-14.472 21.384-2.736 2.52-3.384 16.128-6.768 16.128-10.872 0-19.08-19.368-19.08-37.512 0-18.072 8.784-32.4 19.656-32.4z" fill="#c1c1bf"/>
     <path d="m144.368,375.04c9.72,0 16.488,4.896 17.28,16.272 .576,7.848-1.512,20.448-6.984,23.112-2.52,1.224-11.232,12.24-14.256,12.096-12.312-.576-15.408-24.408-14.472-35.784 .864-11.376 8.784-15.696 18.432-15.696z" fill="#fff"/>
     <path d="m141.85 382.67c6.696-0.576 12.888 7.056 13.752 16.992s-3.96 18.576-10.656 19.152-12.888-7.056-13.752-17.064c-0.864-9.936 3.96-18.504 10.656-19.08z"/>
     <path d="m151.064,397.288c.36,1.8-1.656,2.736-2.232.936-.576-2.232-1.944-4.896-3.744-7.056-1.152-1.296 0-2.736 1.44-1.728 2.52,2.088 3.96,4.68 4.536,7.848z" fill="#c1c1bf"/>
     <path d="m216.94 360.71c15.768 0 28.656 16.704 28.656 37.08 0 20.448-12.888 37.08-28.656 37.08s-28.512-16.632-28.512-37.08c0-20.376 12.744-37.08 28.512-37.08z" fill="#c1c1bf"/>
     <path d="m224.79 374.97c10.872 3.888 17.136 12.456 17.928 21.6 0.936 10.512-3.312 22.392-12.456 29.376-2.592 1.944-32.544-9.864-34.272-14.328-2.592-6.408-4.176-18.72-2.232-25.992 0.792-2.88 3.456-7.056 7.416-9.288 6.264-3.528 15.48-4.248 23.616-1.368z" fill="#fff"/>
     <path d="m216.87 380.94c8.712 0 15.84 8.352 15.84 18.504 0 10.224-7.128 18.576-15.84 18.576s-15.84-8.352-15.84-18.576c0-10.152 7.128-18.504 15.84-18.504z"/>
     <path d="m227.096,392.392c1.008,1.656-.648,3.384-1.872,1.728-1.44-2.016-3.816-4.176-6.336-5.688-1.656-.864-1.08-2.808.792-2.232 3.24,1.08 5.688,3.168 7.416,6.192z" fill="#c1c1bf"/>
     <path d="m164.96,404.488c7.416-2.16 19.152-1.44 27.288.144 8.136,2.16 29.808,13.608 52.776,26.064 2.952,1.512 3.816,6.408 0,7.992-5.904.432 4.248,14.976-6.12,20.16-15.552,4.032-40.464,27.144-52.776,29.016-6.84,1.512-13.896,1.728-21.528,0-24.048-4.896-30.384-32.256-41.688-37.8-3.096-3.24-1.512-8.856-.504-10.008 1.224-5.832 27.288-33.84 42.552-35.568z" fill="#b77200"/>
     <path d="m185.408,405.856c13.032,1.44 40.68,18.072 54,24.768 3.312,1.8 3.096,7.2.144,8.064-3.168,1.8-4.104-.432-6.624-.792-4.032-2.16-10.656,3.024-15.912,6.984-30.312,22.896-36.36,20.376-60.84,17.784-8.496-2.088-14.04-4.68-16.488-6.696 1.8-10.08 20.808-48.312 27.072-49.176 1.584-2.088 13.176-2.16 18.648-.936z" fill="#f2b700"/>
     <path d="m190.664,412.048 3.096,1.368c2.304,1.296-.504,4.752-3.024,3.672l-4.536-1.584c-2.664-2.232.504-5.4 4.464-3.456z" fill="#b77200"/>
     <path d="m268.568,452.368c4.464,2.016 10.656,4.824 13.968,7.776 2.952,3.96 4.248,7.92 3.888,11.88-.648,2.52-2.304,4.32-5.184,5.4-3.384.792-7.56,0-9.864-3.312-1.512-2.664-6.12-11.952-7.416-13.536-1.728-3.456-2.016-6.12-1.08-8.208 1.152-1.08 3.168-1.368 5.688,0z" fill="#b77200"/>
     <path d="m273.752,461.584c1.728.792 4.176,1.872 5.472,3.096 1.152,1.584 1.656,3.096 1.512,4.68-.216.936-.936,1.656-2.016,2.088-1.368.36-2.952,0-3.888-1.296-.576-1.008-2.376-4.68-2.88-5.328-.72-1.368-.864-2.376-.504-3.24 .504-.432 1.296-.504 2.304,0z" fill="#c1c1bf"/>
     <path d="m238.616,358.552c.432.648.36,1.224-.216,1.728-.504.504-1.224.432-2.16-.072l-4.608-3.96c-.576-.504-.72-1.296-.36-2.16 1.008-.648 1.872-.648 2.664,0l4.68,4.464z" fill="#b77200"/>
     <path d="m235.59 305.99c4.032 2.232 5.256 7.92 2.592 12.6-2.592 4.608-8.064 6.552-12.168 4.248-4.032-2.304-5.256-7.92-2.592-12.6 2.592-4.68 8.064-6.552 12.168-4.248z" fill="#b77200"/>
     <path d="m374.912,680.536c3.384,2.592-1.656,6.84-3.888,5.76-1.872-.648-3.24-2.808-4.104-3.888-.792-1.224-.72-3.24 0-3.96 .792-1.008 2.808-.792 4.104.072 1.296.648 2.592,1.368 3.888,2.016z" fill="#b77200"/>
     <path d="m297.44 551.51c41.544 21.384 52.56 60.048 34.632 112.68-1.08 2.448 2.088 4.176 3.168 1.872 19.584-55.728 6.192-94.752-36.216-117.5-2.16-1.008-3.744 1.872-1.584 2.952z" fill="#b77200"/>
     <path d="m72.008,569.512c-33.696,57.744-33.912,93.168-9.504,111.816 1.224.936 1.944-1.296.792-2.16-27-23.688-14.4-63.648 10.872-108.288 .72-1.296-1.656-2.448-2.16-1.368z" fill="#b77200"/>
     <path d="m289.376,586.864c-.144,2.304-1.008,2.664-2.952.504-6.624-11.52-51.336-35.928-73.08-38.664-4.104-1.44-3.888-3.312.144-3.888 15.696,0 27.792-6.912 41.472-6.912 3.744.144 7.344,1.584 9.432,3.744 5.112,3.312 23.688,28.944 24.984,45.216z" fill="#c1c1bf"/>
     <path d="m180.152,546.832c.72,3.96-16.344-1.152-15.408,9.864 .288,3.024-4.248,4.68-4.104,0 0-8.424.432-8.28-7.92-9.864-1.512-.072-1.368-2.304 0-2.016 5.976,1.656 14.04-1.944 13.68-5.976-.144-1.368 2.16-1.152 2.088,0-.504,6.408 13.176,3.312 11.664,7.992z" fill="#c1c1bf"/>
     <path d="m151.57 705.38c0.072 2.952-2.808 2.304-3.024 0.216-8.352-25.056-4.824-86.76 3.312-106.63 0.576-2.88 4.392-2.016 3.888 0-8.64 36.504-8.496 74.088-4.176 106.42z" fill="#c1c1bf"/>
     <path d="m51.704,684.424c23.976,23.4 39.672,58.824 62.928,90.864 33.84,40.752 6.84,83.016-48.168,70.272-27.576-10.368-67.248-9.216-99.144-19.728-22.392-5.472-23.184-16.56-11.736-38.232 4.032-13.824 4.392-36.288.648-55.008-2.016-14.184 4.536-22.104 19.656-23.76 12.816-.144 30.672,5.04 40.392-22.392 7.272-13.104 24.696-13.464 35.424-2.016z" fill="#b77200"/>
     <path d="m24.632,699.04c-.792-18.072 14.688-21.744 25.056-10.728 18.504,22.68 35.424,47.736 50.688,76.68 24.336,39.168 4.248,77.688-32.472,63.072-18.216-10.224-61.776-14.76-85.248-18.936-15.696-1.296-17.784-11.52-11.808-17.28 8.208-9.432 9.072-32.04 1.296-51.336-7.704-11.952 6.768-25.128 18.144-19.656 10.512,6.192 35.352-7.776 34.344-21.816z" fill="#f2b700"/>
    </g>
   </g>
  </g>
  <g transform="matrix(.67334 0 -.09611 .4952 544.37 191.85)">
   <path d="m21 5h103c8.864 0 16 7.136 16 16v153c0 8.864-7.136 16-16 16h-103c-8.864 0-16-7.136-16-16v-153c0-8.864 7.136-16 16-16z" fill-opacity=".49804"/>
   <path d="m17 1h103c8.864 0 16 7.136 16 16v153c0 8.864-7.136 16-16 16h-103c-8.864 0-16-7.136-16-16v-153c0-8.864 7.136-16 16-16z" fill="#fff"/>
   <path d="m19 3h103c8.864 0 16 7.136 16 16v153c0 8.864-7.136 16-16 16h-103c-8.864 0-16-7.136-16-16v-153c0-8.864 7.136-16 16-16z" fill="#c7891f"/>
   <path d="m18 2h103c8.864 0 16 7.136 16 16v153c0 8.864-7.136 16-16 16h-103c-8.864 0-16-7.136-16-16v-153c0-8.864 7.136-16 16-16z" fill="url(#a)"/>
   <path d="m22.167 10h94.417c8.1253 0 14.667 6.5413 14.667 14.667v140.25c0 8.1253-6.5413 14.667-14.667 14.667h-94.417c-8.1253 0-14.667-6.5413-14.667-14.667v-140.25c0-8.1253 6.5413-14.667 14.667-14.667z" fill="url(#d)"/>
   <path d="m22.167 10h94.417c8.1253 0 14.667 6.5413 14.667 14.667v140.25c0 8.1253-6.5413 14.667-14.667 14.667h-94.417c-8.1253 0-14.667-6.5413-14.667-14.667v-140.25c0-8.1253 6.5413-14.667 14.667-14.667z" fill="url(#b)"/>
   <path d="m22.156 9.375c-8.4608 0-15.281 6.8205-15.281 15.281v140.25c0 8.4608 6.8205 15.312 15.281 15.312h94.438c8.4608 0 15.281-6.8517 15.281-15.312v-140.25c0-8.4608-6.8205-15.281-15.281-15.281h-94.438zm0 1.25h94.438c7.7899 0 14.031 6.2414 14.031 14.031v140.25c0 7.7899-6.2414 14.062-14.031 14.062h-94.438c-7.7899 0-14.031-6.2726-14.031-14.062v-140.25c0-7.7899 6.2414-14.031 14.031-14.031z" fill="url(#c)"/>
  </g>
  <g transform="matrix(.67334 0 -.09611 .4952 328.37 289.85)">
   <path d="m21 5h103c8.864 0 16 7.136 16 16v153c0 8.864-7.136 16-16 16h-103c-8.864 0-16-7.136-16-16v-153c0-8.864 7.136-16 16-16z" fill-opacity=".49804"/>
   <path d="m17 1h103c8.864 0 16 7.136 16 16v153c0 8.864-7.136 16-16 16h-103c-8.864 0-16-7.136-16-16v-153c0-8.864 7.136-16 16-16z" fill="#fff"/>
   <path d="m19 3h103c8.864 0 16 7.136 16 16v153c0 8.864-7.136 16-16 16h-103c-8.864 0-16-7.136-16-16v-153c0-8.864 7.136-16 16-16z" fill="#c7891f"/>
   <path d="m18 2h103c8.864 0 16 7.136 16 16v153c0 8.864-7.136 16-16 16h-103c-8.864 0-16-7.136-16-16v-153c0-8.864 7.136-16 16-16z" fill="url(#a)"/>
   <path d="m22.167 10h94.417c8.1253 0 14.667 6.5413 14.667 14.667v140.25c0 8.1253-6.5413 14.667-14.667 14.667h-94.417c-8.1253 0-14.667-6.5413-14.667-14.667v-140.25c0-8.1253 6.5413-14.667 14.667-14.667z" fill="url(#d)"/>
   <path d="m22.167 10h94.417c8.1253 0 14.667 6.5413 14.667 14.667v140.25c0 8.1253-6.5413 14.667-14.667 14.667h-94.417c-8.1253 0-14.667-6.5413-14.667-14.667v-140.25c0-8.1253 6.5413-14.667 14.667-14.667z" fill="url(#b)"/>
   <path d="m22.156 9.375c-8.4608 0-15.281 6.8205-15.281 15.281v140.25c0 8.4608 6.8205 15.312 15.281 15.312h94.438c8.4608 0 15.281-6.8517 15.281-15.312v-140.25c0-8.4608-6.8205-15.281-15.281-15.281h-94.438zm0 1.25h94.438c7.7899 0 14.031 6.2414 14.031 14.031v140.25c0 7.7899-6.2414 14.062-14.031 14.062h-94.438c-7.7899 0-14.031-6.2726-14.031-14.062v-140.25c0-7.7899 6.2414-14.031 14.031-14.031z" fill="url(#c)"/>
  </g>
  <g transform="matrix(.67334 0 -.09611 .4952 426.37 289.85)">
   <path d="m21 5h103c8.864 0 16 7.136 16 16v153c0 8.864-7.136 16-16 16h-103c-8.864 0-16-7.136-16-16v-153c0-8.864 7.136-16 16-16z" fill-opacity=".49804"/>
   <path d="m17 1h103c8.864 0 16 7.136 16 16v153c0 8.864-7.136 16-16 16h-103c-8.864 0-16-7.136-16-16v-153c0-8.864 7.136-16 16-16z" fill="#fff"/>
   <path d="m19 3h103c8.864 0 16 7.136 16 16v153c0 8.864-7.136 16-16 16h-103c-8.864 0-16-7.136-16-16v-153c0-8.864 7.136-16 16-16z" fill="#c7891f"/>
   <path d="m18 2h103c8.864 0 16 7.136 16 16v153c0 8.864-7.136 16-16 16h-103c-8.864 0-16-7.136-16-16v-153c0-8.864 7.136-16 16-16z" fill="url(#a)"/>
   <path d="m22.167 10h94.417c8.1253 0 14.667 6.5413 14.667 14.667v140.25c0 8.1253-6.5413 14.667-14.667 14.667h-94.417c-8.1253 0-14.667-6.5413-14.667-14.667v-140.25c0-8.1253 6.5413-14.667 14.667-14.667z" fill="url(#d)"/>
   <path d="m22.167 10h94.417c8.1253 0 14.667 6.5413 14.667 14.667v140.25c0 8.1253-6.5413 14.667-14.667 14.667h-94.417c-8.1253 0-14.667-6.5413-14.667-14.667v-140.25c0-8.1253 6.5413-14.667 14.667-14.667z" fill="url(#b)"/>
   <path d="m22.156 9.375c-8.4608 0-15.281 6.8205-15.281 15.281v140.25c0 8.4608 6.8205 15.312 15.281 15.312h94.438c8.4608 0 15.281-6.8517 15.281-15.312v-140.25c0-8.4608-6.8205-15.281-15.281-15.281h-94.438zm0 1.25h94.438c7.7899 0 14.031 6.2414 14.031 14.031v140.25c0 7.7899-6.2414 14.062-14.031 14.062h-94.438c-7.7899 0-14.031-6.2726-14.031-14.062v-140.25c0-7.7899 6.2414-14.031 14.031-14.031z" fill="url(#c)"/>
  </g>
  <g transform="matrix(.67334 0 -.09611 .4952 526.37 289.85)">
   <path d="m21 5h103c8.864 0 16 7.136 16 16v153c0 8.864-7.136 16-16 16h-103c-8.864 0-16-7.136-16-16v-153c0-8.864 7.136-16 16-16z" fill-opacity=".49804"/>
   <path d="m17 1h103c8.864 0 16 7.136 16 16v153c0 8.864-7.136 16-16 16h-103c-8.864 0-16-7.136-16-16v-153c0-8.864 7.136-16 16-16z" fill="#fff"/>
   <path d="m19 3h103c8.864 0 16 7.136 16 16v153c0 8.864-7.136 16-16 16h-103c-8.864 0-16-7.136-16-16v-153c0-8.864 7.136-16 16-16z" fill="#c7891f"/>
   <path d="m18 2h103c8.864 0 16 7.136 16 16v153c0 8.864-7.136 16-16 16h-103c-8.864 0-16-7.136-16-16v-153c0-8.864 7.136-16 16-16z" fill="url(#a)"/>
   <path d="m22.167 10h94.417c8.1253 0 14.667 6.5413 14.667 14.667v140.25c0 8.1253-6.5413 14.667-14.667 14.667h-94.417c-8.1253 0-14.667-6.5413-14.667-14.667v-140.25c0-8.1253 6.5413-14.667 14.667-14.667z" fill="url(#d)"/>
   <path d="m22.167 10h94.417c8.1253 0 14.667 6.5413 14.667 14.667v140.25c0 8.1253-6.5413 14.667-14.667 14.667h-94.417c-8.1253 0-14.667-6.5413-14.667-14.667v-140.25c0-8.1253 6.5413-14.667 14.667-14.667z" fill="url(#b)"/>
   <path d="m22.156 9.375c-8.4608 0-15.281 6.8205-15.281 15.281v140.25c0 8.4608 6.8205 15.312 15.281 15.312h94.438c8.4608 0 15.281-6.8517 15.281-15.312v-140.25c0-8.4608-6.8205-15.281-15.281-15.281h-94.438zm0 1.25h94.438c7.7899 0 14.031 6.2414 14.031 14.031v140.25c0 7.7899-6.2414 14.062-14.031 14.062h-94.438c-7.7899 0-14.031-6.2726-14.031-14.062v-140.25c0-7.7899 6.2414-14.031 14.031-14.031z" fill="url(#c)"/>
  </g>
  <g transform="matrix(.67334 0 -.09611 .4952 308.37 389.85)">
   <path d="m21 5h103c8.864 0 16 7.136 16 16v153c0 8.864-7.136 16-16 16h-103c-8.864 0-16-7.136-16-16v-153c0-8.864 7.136-16 16-16z" fill-opacity=".49804"/>
   <path d="m17 1h103c8.864 0 16 7.136 16 16v153c0 8.864-7.136 16-16 16h-103c-8.864 0-16-7.136-16-16v-153c0-8.864 7.136-16 16-16z" fill="#fff"/>
   <path d="m19 3h103c8.864 0 16 7.136 16 16v153c0 8.864-7.136 16-16 16h-103c-8.864 0-16-7.136-16-16v-153c0-8.864 7.136-16 16-16z" fill="#c7891f"/>
   <path d="m18 2h103c8.864 0 16 7.136 16 16v153c0 8.864-7.136 16-16 16h-103c-8.864 0-16-7.136-16-16v-153c0-8.864 7.136-16 16-16z" fill="url(#a)"/>
   <path d="m22.167 10h94.417c8.1253 0 14.667 6.5413 14.667 14.667v140.25c0 8.1253-6.5413 14.667-14.667 14.667h-94.417c-8.1253 0-14.667-6.5413-14.667-14.667v-140.25c0-8.1253 6.5413-14.667 14.667-14.667z" fill="url(#d)"/>
   <path d="m22.167 10h94.417c8.1253 0 14.667 6.5413 14.667 14.667v140.25c0 8.1253-6.5413 14.667-14.667 14.667h-94.417c-8.1253 0-14.667-6.5413-14.667-14.667v-140.25c0-8.1253 6.5413-14.667 14.667-14.667z" fill="url(#b)"/>
   <path d="m22.156 9.375c-8.4608 0-15.281 6.8205-15.281 15.281v140.25c0 8.4608 6.8205 15.312 15.281 15.312h94.438c8.4608 0 15.281-6.8517 15.281-15.312v-140.25c0-8.4608-6.8205-15.281-15.281-15.281h-94.438zm0 1.25h94.438c7.7899 0 14.031 6.2414 14.031 14.031v140.25c0 7.7899-6.2414 14.062-14.031 14.062h-94.438c-7.7899 0-14.031-6.2726-14.031-14.062v-140.25c0-7.7899 6.2414-14.031 14.031-14.031z" fill="url(#c)"/>
  </g>
  <g transform="matrix(.67334 0 -.09611 .4952 506.37 389.85)">
   <path d="m21 5h103c8.864 0 16 7.136 16 16v153c0 8.864-7.136 16-16 16h-103c-8.864 0-16-7.136-16-16v-153c0-8.864 7.136-16 16-16z" fill-opacity=".49804"/>
   <path d="m17 1h103c8.864 0 16 7.136 16 16v153c0 8.864-7.136 16-16 16h-103c-8.864 0-16-7.136-16-16v-153c0-8.864 7.136-16 16-16z" fill="#fff"/>
   <path d="m19 3h103c8.864 0 16 7.136 16 16v153c0 8.864-7.136 16-16 16h-103c-8.864 0-16-7.136-16-16v-153c0-8.864 7.136-16 16-16z" fill="#c7891f"/>
   <path d="m18 2h103c8.864 0 16 7.136 16 16v153c0 8.864-7.136 16-16 16h-103c-8.864 0-16-7.136-16-16v-153c0-8.864 7.136-16 16-16z" fill="url(#a)"/>
   <path d="m22.167 10h94.417c8.1253 0 14.667 6.5413 14.667 14.667v140.25c0 8.1253-6.5413 14.667-14.667 14.667h-94.417c-8.1253 0-14.667-6.5413-14.667-14.667v-140.25c0-8.1253 6.5413-14.667 14.667-14.667z" fill="url(#d)"/>
   <path d="m22.167 10h94.417c8.1253 0 14.667 6.5413 14.667 14.667v140.25c0 8.1253-6.5413 14.667-14.667 14.667h-94.417c-8.1253 0-14.667-6.5413-14.667-14.667v-140.25c0-8.1253 6.5413-14.667 14.667-14.667z" fill="url(#b)"/>
   <path d="m22.156 9.375c-8.4608 0-15.281 6.8205-15.281 15.281v140.25c0 8.4608 6.8205 15.312 15.281 15.312h94.438c8.4608 0 15.281-6.8517 15.281-15.312v-140.25c0-8.4608-6.8205-15.281-15.281-15.281h-94.438zm0 1.25h94.438c7.7899 0 14.031 6.2414 14.031 14.031v140.25c0 7.7899-6.2414 14.062-14.031 14.062h-94.438c-7.7899 0-14.031-6.2726-14.031-14.062v-140.25c0-7.7899 6.2414-14.031 14.031-14.031z" fill="url(#c)"/>
  </g>
  <g transform="matrix(.66035 0 -.12816 .66035 196.53 389.66)">
   <g transform="matrix(1.0197 0 0 .74991 320.95 4.5442)">
    <path d="m21 5h103c8.864 0 16 7.136 16 16v153c0 8.864-7.136 16-16 16h-103c-8.864 0-16-7.136-16-16v-153c0-8.864 7.136-16 16-16z" fill-opacity=".49804"/>
    <path d="m17 1h103c8.864 0 16 7.136 16 16v153c0 8.864-7.136 16-16 16h-103c-8.864 0-16-7.136-16-16v-153c0-8.864 7.136-16 16-16z" fill="#fff"/>
    <path d="m19 3h103c8.864 0 16 7.136 16 16v153c0 8.864-7.136 16-16 16h-103c-8.864 0-16-7.136-16-16v-153c0-8.864 7.136-16 16-16z" fill="#c7891f"/>
    <path d="m18 2h103c8.864 0 16 7.136 16 16v153c0 8.864-7.136 16-16 16h-103c-8.864 0-16-7.136-16-16v-153c0-8.864 7.136-16 16-16z" fill="url(#a)"/>
   </g>
   <g transform="matrix(.20837 0 0 .20837 328 -11.051)">
    <path transform="translate(-188.77 11.294)" d="m344.43 534.69 51.63 82.284 66.957 33.882 101.65-33.075 61.31-95.192-6.453-88.739-50.017-111.33-23.394-44.369-125.04 1.613-6.454 37.916-43.562 73.41-29.042 79.865 2.42 63.731z" fill="#fff"/>
    <g transform="translate(107.66 -154.86)">
     <path d="m329.34 727.55c-14.112-1.224-25.2-11.736-26.208-32.616 3.24-55.44 6.48-112.82-31.896-149.83-5.976-46.08-27.216-63-37.224-92.592l-15.768-11.304 18.864-29.52 8.064 0.216 78.768 159.26 16.488 80.28-11.088 76.104z" fill="#c1c1bf"/>
     <path d="m136.23 439.7c-2.376 15.552-3.672 30.816-1.44 45.576-16.416 22.32-28.872 44.856-30.312 68.04-12.456 33.192-42.048 61.272-36.936 126.79 16.632 17.352 39.888 33.48 59.832 50.256 25.056 20.952 10.152 48.6-25.128 42.048-7.848-8.64-25.632-62.784-59.328-96.12l6.624-43.704 31.824-85.176 39.6-63.36 4.392-27.36-5.544-69.912 4.608-25.56 11.808 78.48z" fill="#c1c1bf"/>
     <path d="m115.64 341.42c0.936-5.04 2.16-9.792 3.672-14.256l2.376 15.624-6.048-1.368z" fill="#c1c1bf"/>
     <path d="m120.97 500.46c-12.6 23.328-16.992 45.792 11.952 49.752-15.912 3.672-35.712 18.432-55.728 43.272l0.432-50.472 23.832-39.744 19.512-2.808z" fill="#c1c1bf"/>
     <path d="m-33.256 818.49c43.776 19.656 74.664 18.576 102.53 32.472 22.032 11.592 44.28 10.224 57.672-3.816 11.376-14.688 19.8-15.408 36.576-16.92 27.432-1.656 54.216-1.944 78.408 0.576l27.648 2.232c-0.504 31.032 58.464 34.848 75.816 11.304 20.952-24.912 49.752-36.072 74.448-54.144l-130.54-64.656c-33.48 80.928-158.26 102.1-175.54 37.728l-147.02 55.224z" fill="#c1c1bf"/>
     <path d="m286.42 711.57c-12.6-0.072-25.488 4.032-24.48 20.592l4.248 44.28 38.232-19.8-18-45.072z" fill="#c1c1bf"/>
     <path d="m-37.36 821.22c44.496 19.656 75.96 18.504 104.33 32.472 22.392 11.52 45 10.224 58.68-3.888 11.592-14.616 20.16-15.336 37.224-16.848 27.864-1.728 55.152-1.944 79.776 0.504l28.08 2.304c-0.504 31.032 59.544 34.776 77.184 11.232 21.312-24.912 50.616-36 75.744-54.144l-132.84-64.584c-34.056 80.856-160.99 102.02-178.56 37.728l-149.62 55.224z"/>
     <path d="m382.33 691.98c21.312 6.984 7.56 28.296 18.432 40.536 4.68 10.368 14.544 19.512 31.032 28.008 27.576 13.896-5.544 38.808-39.024 51.552-40.824 13.536-48.744 50.832-93.456 39.816-16.2-5.4-20.952-20.088-20.448-42.768 5.4-46.368-1.08-78.696-0.072-110.3-0.072-12.672 4.752-14.184 28.44-10.872 2.808 38.376 45.144 39.384 75.096 4.032z" fill="#b77200"/>
     <path d="m339.632,826.624c31.968-12.312 64.224-28.512 90.216-44.496 7.992-4.68 9.072-16.2-2.16-19.8-24.336-13.824-37.584-31.104-34.776-53.568 .432-7.848-9.216-16.2-11.808-8.712-21.24,71.424-89.784,67.608-80.352-3.096 .504-2.088 1.008-4.176 1.512-6.192-12.312-2.52-17.064.216-16.488,9.648l9.504,106.2c2.376,24.192 22.032,29.52 44.352,20.016z" fill="#f2b700"/>
     <path d="m354.46 537.54c24.696 32.256 49.968 113.54 29.952 154.01-23.472 46.224-76.608 51.696-78.912 4.248 3.312-56.16 6.48-114.26-31.824-151.7-5.976-46.728-27.288-63.864-37.296-93.816l-33.264-24.192-69.552 9c-2.808 17.064-4.464 33.696-2.016 49.824-16.488 22.464-28.944 45.144-30.384 68.4-12.456 33.336-42.048 61.632-36.936 127.44 16.632 17.496 39.888 33.696 59.832 50.544 25.056 21.096 11.448 45-23.832 38.376-21.384-23.616-43.488-46.8-64.944-70.344-22.896-16.272-31.392-37.152-7.92-68.832 16.056-21.456 20.592-68.04 34.632-86.832 12.312-18.504 30.24-35.064 43.272-53.568 6.912-12.168 9.072-21.528 7.992-35.64l-2.952-85.32c-1.944-61.92 32.112-94.896 79.488-93.888 53.712 0.504 97.776 37.224 98.352 103.03 4.536 32.04-4.896 50.4 20.52 96.192 25.848 48.24 29.88 45.648 45.792 63.072z"/>
     <path d="m261.3 503.63 2.232 8.568c-5.832-10.512-12.816-28.584-21.6-36.504-2.664-2.16-6.12-2.088-8.208-0.072-11.664 11.304-40.608 34.488-63.792 31.464-17.856-1.8-35.28-13.824-39.096-26.856-2.016-9.36-1.08-17.064 0.144-24.912l109.73-1.8c-2.232 9.648 12.384 33.48 20.592 50.112z" fill="#c1c1bf"/>
     <path d="m143.14 363.23c10.944 0 20.736 13.608 20.664 32.4-0.072 12.6-8.28 15.84-14.472 21.384-2.736 2.52-3.384 16.128-6.768 16.128-10.872 0-19.08-19.368-19.08-37.512 0-18.072 8.784-32.4 19.656-32.4z" fill="#c1c1bf"/>
     <path d="m144.368,375.04c9.72,0 16.488,4.896 17.28,16.272 .576,7.848-1.512,20.448-6.984,23.112-2.52,1.224-11.232,12.24-14.256,12.096-12.312-.576-15.408-24.408-14.472-35.784 .864-11.376 8.784-15.696 18.432-15.696z" fill="#fff"/>
     <path d="m141.85 382.67c6.696-0.576 12.888 7.056 13.752 16.992s-3.96 18.576-10.656 19.152-12.888-7.056-13.752-17.064c-0.864-9.936 3.96-18.504 10.656-19.08z"/>
     <path d="m151.064,397.288c.36,1.8-1.656,2.736-2.232.936-.576-2.232-1.944-4.896-3.744-7.056-1.152-1.296 0-2.736 1.44-1.728 2.52,2.088 3.96,4.68 4.536,7.848z" fill="#c1c1bf"/>
     <path d="m216.94 360.71c15.768 0 28.656 16.704 28.656 37.08 0 20.448-12.888 37.08-28.656 37.08s-28.512-16.632-28.512-37.08c0-20.376 12.744-37.08 28.512-37.08z" fill="#c1c1bf"/>
     <path d="m224.79 374.97c10.872 3.888 17.136 12.456 17.928 21.6 0.936 10.512-3.312 22.392-12.456 29.376-2.592 1.944-32.544-9.864-34.272-14.328-2.592-6.408-4.176-18.72-2.232-25.992 0.792-2.88 3.456-7.056 7.416-9.288 6.264-3.528 15.48-4.248 23.616-1.368z" fill="#fff"/>
     <path d="m216.87 380.94c8.712 0 15.84 8.352 15.84 18.504 0 10.224-7.128 18.576-15.84 18.576s-15.84-8.352-15.84-18.576c0-10.152 7.128-18.504 15.84-18.504z"/>
     <path d="m227.096,392.392c1.008,1.656-.648,3.384-1.872,1.728-1.44-2.016-3.816-4.176-6.336-5.688-1.656-.864-1.08-2.808.792-2.232 3.24,1.08 5.688,3.168 7.416,6.192z" fill="#c1c1bf"/>
     <path d="m164.96,404.488c7.416-2.16 19.152-1.44 27.288.144 8.136,2.16 29.808,13.608 52.776,26.064 2.952,1.512 3.816,6.408 0,7.992-5.904.432 4.248,14.976-6.12,20.16-15.552,4.032-40.464,27.144-52.776,29.016-6.84,1.512-13.896,1.728-21.528,0-24.048-4.896-30.384-32.256-41.688-37.8-3.096-3.24-1.512-8.856-.504-10.008 1.224-5.832 27.288-33.84 42.552-35.568z" fill="#b77200"/>
     <path d="m185.408,405.856c13.032,1.44 40.68,18.072 54,24.768 3.312,1.8 3.096,7.2.144,8.064-3.168,1.8-4.104-.432-6.624-.792-4.032-2.16-10.656,3.024-15.912,6.984-30.312,22.896-36.36,20.376-60.84,17.784-8.496-2.088-14.04-4.68-16.488-6.696 1.8-10.08 20.808-48.312 27.072-49.176 1.584-2.088 13.176-2.16 18.648-.936z" fill="#f2b700"/>
     <path d="m190.664,412.048 3.096,1.368c2.304,1.296-.504,4.752-3.024,3.672l-4.536-1.584c-2.664-2.232.504-5.4 4.464-3.456z" fill="#b77200"/>
     <path d="m268.568,452.368c4.464,2.016 10.656,4.824 13.968,7.776 2.952,3.96 4.248,7.92 3.888,11.88-.648,2.52-2.304,4.32-5.184,5.4-3.384.792-7.56,0-9.864-3.312-1.512-2.664-6.12-11.952-7.416-13.536-1.728-3.456-2.016-6.12-1.08-8.208 1.152-1.08 3.168-1.368 5.688,0z" fill="#b77200"/>
     <path d="m273.752,461.584c1.728.792 4.176,1.872 5.472,3.096 1.152,1.584 1.656,3.096 1.512,4.68-.216.936-.936,1.656-2.016,2.088-1.368.36-2.952,0-3.888-1.296-.576-1.008-2.376-4.68-2.88-5.328-.72-1.368-.864-2.376-.504-3.24 .504-.432 1.296-.504 2.304,0z" fill="#c1c1bf"/>
     <path d="m238.616,358.552c.432.648.36,1.224-.216,1.728-.504.504-1.224.432-2.16-.072l-4.608-3.96c-.576-.504-.72-1.296-.36-2.16 1.008-.648 1.872-.648 2.664,0l4.68,4.464z" fill="#b77200"/>
     <path d="m235.59 305.99c4.032 2.232 5.256 7.92 2.592 12.6-2.592 4.608-8.064 6.552-12.168 4.248-4.032-2.304-5.256-7.92-2.592-12.6 2.592-4.68 8.064-6.552 12.168-4.248z" fill="#b77200"/>
     <path d="m374.912,680.536c3.384,2.592-1.656,6.84-3.888,5.76-1.872-.648-3.24-2.808-4.104-3.888-.792-1.224-.72-3.24 0-3.96 .792-1.008 2.808-.792 4.104.072 1.296.648 2.592,1.368 3.888,2.016z" fill="#b77200"/>
     <path d="m297.44 551.51c41.544 21.384 52.56 60.048 34.632 112.68-1.08 2.448 2.088 4.176 3.168 1.872 19.584-55.728 6.192-94.752-36.216-117.5-2.16-1.008-3.744 1.872-1.584 2.952z" fill="#b77200"/>
     <path d="m72.008,569.512c-33.696,57.744-33.912,93.168-9.504,111.816 1.224.936 1.944-1.296.792-2.16-27-23.688-14.4-63.648 10.872-108.288 .72-1.296-1.656-2.448-2.16-1.368z" fill="#b77200"/>
     <path d="m289.376,586.864c-.144,2.304-1.008,2.664-2.952.504-6.624-11.52-51.336-35.928-73.08-38.664-4.104-1.44-3.888-3.312.144-3.888 15.696,0 27.792-6.912 41.472-6.912 3.744.144 7.344,1.584 9.432,3.744 5.112,3.312 23.688,28.944 24.984,45.216z" fill="#c1c1bf"/>
     <path d="m180.152,546.832c.72,3.96-16.344-1.152-15.408,9.864 .288,3.024-4.248,4.68-4.104,0 0-8.424.432-8.28-7.92-9.864-1.512-.072-1.368-2.304 0-2.016 5.976,1.656 14.04-1.944 13.68-5.976-.144-1.368 2.16-1.152 2.088,0-.504,6.408 13.176,3.312 11.664,7.992z" fill="#c1c1bf"/>
     <path d="m151.57 705.38c0.072 2.952-2.808 2.304-3.024 0.216-8.352-25.056-4.824-86.76 3.312-106.63 0.576-2.88 4.392-2.016 3.888 0-8.64 36.504-8.496 74.088-4.176 106.42z" fill="#c1c1bf"/>
     <path d="m51.704,684.424c23.976,23.4 39.672,58.824 62.928,90.864 33.84,40.752 6.84,83.016-48.168,70.272-27.576-10.368-67.248-9.216-99.144-19.728-22.392-5.472-23.184-16.56-11.736-38.232 4.032-13.824 4.392-36.288.648-55.008-2.016-14.184 4.536-22.104 19.656-23.76 12.816-.144 30.672,5.04 40.392-22.392 7.272-13.104 24.696-13.464 35.424-2.016z" fill="#b77200"/>
     <path d="m24.632,699.04c-.792-18.072 14.688-21.744 25.056-10.728 18.504,22.68 35.424,47.736 50.688,76.68 24.336,39.168 4.248,77.688-32.472,63.072-18.216-10.224-61.776-14.76-85.248-18.936-15.696-1.296-17.784-11.52-11.808-17.28 8.208-9.432 9.072-32.04 1.296-51.336-7.704-11.952 6.768-25.128 18.144-19.656 10.512,6.192 35.352-7.776 34.344-21.816z" fill="#f2b700"/>
    </g>
   </g>
  </g>
  <g transform="matrix(.67334 0 -.09611 .4952 211.07 188.07)">
   <path d="m21 5h103c8.864 0 16 7.136 16 16v153c0 8.864-7.136 16-16 16h-103c-8.864 0-16-7.136-16-16v-153c0-8.864 7.136-16 16-16z" fill-opacity=".49804"/>
   <path d="m17 1h103c8.864 0 16 7.136 16 16v153c0 8.864-7.136 16-16 16h-103c-8.864 0-16-7.136-16-16v-153c0-8.864 7.136-16 16-16z" fill="#fff"/>
   <path d="m19 3h103c8.864 0 16 7.136 16 16v153c0 8.864-7.136 16-16 16h-103c-8.864 0-16-7.136-16-16v-153c0-8.864 7.136-16 16-16z" fill="#c7891f"/>
   <path d="m18 2h103c8.864 0 16 7.136 16 16v153c0 8.864-7.136 16-16 16h-103c-8.864 0-16-7.136-16-16v-153c0-8.864 7.136-16 16-16z" fill="url(#a)"/>
   <path d="m22.167 10h94.417c8.1253 0 14.667 6.5413 14.667 14.667v140.25c0 8.1253-6.5413 14.667-14.667 14.667h-94.417c-8.1253 0-14.667-6.5413-14.667-14.667v-140.25c0-8.1253 6.5413-14.667 14.667-14.667z" fill="url(#d)"/>
   <path d="m22.167 10h94.417c8.1253 0 14.667 6.5413 14.667 14.667v140.25c0 8.1253-6.5413 14.667-14.667 14.667h-94.417c-8.1253 0-14.667-6.5413-14.667-14.667v-140.25c0-8.1253 6.5413-14.667 14.667-14.667z" fill="url(#b)"/>
   <path d="m22.156 9.375c-8.4608 0-15.281 6.8205-15.281 15.281v140.25c0 8.4608 6.8205 15.312 15.281 15.312h94.438c8.4608 0 15.281-6.8517 15.281-15.312v-140.25c0-8.4608-6.8205-15.281-15.281-15.281h-94.438zm0 1.25h94.438c7.7899 0 14.031 6.2414 14.031 14.031v140.25c0 7.7899-6.2414 14.062-14.031 14.062h-94.438c-7.7899 0-14.031-6.2726-14.031-14.062v-140.25c0-7.7899 6.2414-14.031 14.031-14.031z" fill="url(#c)"/>
  </g>
  <g transform="matrix(.66577 .10065 -.16906 .47527 204.95 184.83)">
   <path d="m21 5h103c8.864 0 16 7.136 16 16v153c0 8.864-7.136 16-16 16h-103c-8.864 0-16-7.136-16-16v-153c0-8.864 7.136-16 16-16z" fill-opacity=".49804"/>
   <path d="m17 1h103c8.864 0 16 7.136 16 16v153c0 8.864-7.136 16-16 16h-103c-8.864 0-16-7.136-16-16v-153c0-8.864 7.136-16 16-16z" fill="#fff"/>
   <path d="m19 3h103c8.864 0 16 7.136 16 16v153c0 8.864-7.136 16-16 16h-103c-8.864 0-16-7.136-16-16v-153c0-8.864 7.136-16 16-16z" fill="#c7891f"/>
   <path d="m18 2h103c8.864 0 16 7.136 16 16v153c0 8.864-7.136 16-16 16h-103c-8.864 0-16-7.136-16-16v-153c0-8.864 7.136-16 16-16z" fill="url(#a)"/>
   <path d="m22.167 10h94.417c8.1253 0 14.667 6.5413 14.667 14.667v140.25c0 8.1253-6.5413 14.667-14.667 14.667h-94.417c-8.1253 0-14.667-6.5413-14.667-14.667v-140.25c0-8.1253 6.5413-14.667 14.667-14.667z" fill="url(#d)"/>
   <path d="m22.167 10h94.417c8.1253 0 14.667 6.5413 14.667 14.667v140.25c0 8.1253-6.5413 14.667-14.667 14.667h-94.417c-8.1253 0-14.667-6.5413-14.667-14.667v-140.25c0-8.1253 6.5413-14.667 14.667-14.667z" fill="url(#b)"/>
   <path d="m22.156 9.375c-8.4608 0-15.281 6.8205-15.281 15.281v140.25c0 8.4608 6.8205 15.312 15.281 15.312h94.438c8.4608 0 15.281-6.8517 15.281-15.312v-140.25c0-8.4608-6.8205-15.281-15.281-15.281h-94.438zm0 1.25h94.438c7.7899 0 14.031 6.2414 14.031 14.031v140.25c0 7.7899-6.2414 14.062-14.031 14.062h-94.438c-7.7899 0-14.031-6.2726-14.031-14.062v-140.25c0-7.7899 6.2414-14.031 14.031-14.031z" fill="url(#c)"/>
  </g>
  <g transform="matrix(.6586 .1401 -.19705 .46436 200.35 163.64)">
   <path d="m21 5h103c8.864 0 16 7.136 16 16v153c0 8.864-7.136 16-16 16h-103c-8.864 0-16-7.136-16-16v-153c0-8.864 7.136-16 16-16z" fill-opacity=".49804"/>
   <path d="m17 1h103c8.864 0 16 7.136 16 16v153c0 8.864-7.136 16-16 16h-103c-8.864 0-16-7.136-16-16v-153c0-8.864 7.136-16 16-16z" fill="#fff"/>
   <path d="m19 3h103c8.864 0 16 7.136 16 16v153c0 8.864-7.136 16-16 16h-103c-8.864 0-16-7.136-16-16v-153c0-8.864 7.136-16 16-16z" fill="#c7891f"/>
   <path d="m18 2h103c8.864 0 16 7.136 16 16v153c0 8.864-7.136 16-16 16h-103c-8.864 0-16-7.136-16-16v-153c0-8.864 7.136-16 16-16z" fill="url(#a)"/>
   <path d="m22.167 10h94.417c8.1253 0 14.667 6.5413 14.667 14.667v140.25c0 8.1253-6.5413 14.667-14.667 14.667h-94.417c-8.1253 0-14.667-6.5413-14.667-14.667v-140.25c0-8.1253 6.5413-14.667 14.667-14.667z" fill="url(#d)"/>
   <path d="m22.167 10h94.417c8.1253 0 14.667 6.5413 14.667 14.667v140.25c0 8.1253-6.5413 14.667-14.667 14.667h-94.417c-8.1253 0-14.667-6.5413-14.667-14.667v-140.25c0-8.1253 6.5413-14.667 14.667-14.667z" fill="url(#b)"/>
   <path d="m22.156 9.375c-8.4608 0-15.281 6.8205-15.281 15.281v140.25c0 8.4608 6.8205 15.312 15.281 15.312h94.438c8.4608 0 15.281-6.8517 15.281-15.312v-140.25c0-8.4608-6.8205-15.281-15.281-15.281h-94.438zm0 1.25h94.438c7.7899 0 14.031 6.2414 14.031 14.031v140.25c0 7.7899-6.2414 14.062-14.031 14.062h-94.438c-7.7899 0-14.031-6.2726-14.031-14.062v-140.25c0-7.7899 6.2414-14.031 14.031-14.031z" fill="url(#c)"/>
  </g>
  <g transform="matrix(.67334 0 -.09611 .4952 636.88 430.02)">
   <path d="m21 5h103c8.864 0 16 7.136 16 16v153c0 8.864-7.136 16-16 16h-103c-8.864 0-16-7.136-16-16v-153c0-8.864 7.136-16 16-16z" fill-opacity=".49804"/>
   <path d="m17 1h103c8.864 0 16 7.136 16 16v153c0 8.864-7.136 16-16 16h-103c-8.864 0-16-7.136-16-16v-153c0-8.864 7.136-16 16-16z" fill="#fff"/>
   <path d="m19 3h103c8.864 0 16 7.136 16 16v153c0 8.864-7.136 16-16 16h-103c-8.864 0-16-7.136-16-16v-153c0-8.864 7.136-16 16-16z" fill="#c7891f"/>
   <path d="m18 2h103c8.864 0 16 7.136 16 16v153c0 8.864-7.136 16-16 16h-103c-8.864 0-16-7.136-16-16v-153c0-8.864 7.136-16 16-16z" fill="url(#a)"/>
   <path d="m22.167 10h94.417c8.1253 0 14.667 6.5413 14.667 14.667v140.25c0 8.1253-6.5413 14.667-14.667 14.667h-94.417c-8.1253 0-14.667-6.5413-14.667-14.667v-140.25c0-8.1253 6.5413-14.667 14.667-14.667z" fill="url(#d)"/>
   <path d="m22.167 10h94.417c8.1253 0 14.667 6.5413 14.667 14.667v140.25c0 8.1253-6.5413 14.667-14.667 14.667h-94.417c-8.1253 0-14.667-6.5413-14.667-14.667v-140.25c0-8.1253 6.5413-14.667 14.667-14.667z" fill="url(#b)"/>
   <path d="m22.156 9.375c-8.4608 0-15.281 6.8205-15.281 15.281v140.25c0 8.4608 6.8205 15.312 15.281 15.312h94.438c8.4608 0 15.281-6.8517 15.281-15.312v-140.25c0-8.4608-6.8205-15.281-15.281-15.281h-94.438zm0 1.25h94.438c7.7899 0 14.031 6.2414 14.031 14.031v140.25c0 7.7899-6.2414 14.062-14.031 14.062h-94.438c-7.7899 0-14.031-6.2726-14.031-14.062v-140.25c0-7.7899 6.2414-14.031 14.031-14.031z" fill="url(#c)"/>
  </g>
  <g transform="matrix(.66577 .10065 -.16906 .47527 630.77 426.77)">
   <path d="m21 5h103c8.864 0 16 7.136 16 16v153c0 8.864-7.136 16-16 16h-103c-8.864 0-16-7.136-16-16v-153c0-8.864 7.136-16 16-16z" fill-opacity=".49804"/>
   <path d="m17 1h103c8.864 0 16 7.136 16 16v153c0 8.864-7.136 16-16 16h-103c-8.864 0-16-7.136-16-16v-153c0-8.864 7.136-16 16-16z" fill="#fff"/>
   <path d="m19 3h103c8.864 0 16 7.136 16 16v153c0 8.864-7.136 16-16 16h-103c-8.864 0-16-7.136-16-16v-153c0-8.864 7.136-16 16-16z" fill="#c7891f"/>
   <path d="m18 2h103c8.864 0 16 7.136 16 16v153c0 8.864-7.136 16-16 16h-103c-8.864 0-16-7.136-16-16v-153c0-8.864 7.136-16 16-16z" fill="url(#a)"/>
   <path d="m22.167 10h94.417c8.1253 0 14.667 6.5413 14.667 14.667v140.25c0 8.1253-6.5413 14.667-14.667 14.667h-94.417c-8.1253 0-14.667-6.5413-14.667-14.667v-140.25c0-8.1253 6.5413-14.667 14.667-14.667z" fill="url(#d)"/>
   <path d="m22.167 10h94.417c8.1253 0 14.667 6.5413 14.667 14.667v140.25c0 8.1253-6.5413 14.667-14.667 14.667h-94.417c-8.1253 0-14.667-6.5413-14.667-14.667v-140.25c0-8.1253 6.5413-14.667 14.667-14.667z" fill="url(#b)"/>
   <path d="m22.156 9.375c-8.4608 0-15.281 6.8205-15.281 15.281v140.25c0 8.4608 6.8205 15.312 15.281 15.312h94.438c8.4608 0 15.281-6.8517 15.281-15.312v-140.25c0-8.4608-6.8205-15.281-15.281-15.281h-94.438zm0 1.25h94.438c7.7899 0 14.031 6.2414 14.031 14.031v140.25c0 7.7899-6.2414 14.062-14.031 14.062h-94.438c-7.7899 0-14.031-6.2726-14.031-14.062v-140.25c0-7.7899 6.2414-14.031 14.031-14.031z" fill="url(#c)"/>
  </g>
  <g transform="matrix(.6586 .1401 -.19705 .46436 630.16 409.58)">
   <path d="m21 5h103c8.864 0 16 7.136 16 16v153c0 8.864-7.136 16-16 16h-103c-8.864 0-16-7.136-16-16v-153c0-8.864 7.136-16 16-16z" fill-opacity=".49804"/>
   <path d="m17 1h103c8.864 0 16 7.136 16 16v153c0 8.864-7.136 16-16 16h-103c-8.864 0-16-7.136-16-16v-153c0-8.864 7.136-16 16-16z" fill="#fff"/>
   <path d="m19 3h103c8.864 0 16 7.136 16 16v153c0 8.864-7.136 16-16 16h-103c-8.864 0-16-7.136-16-16v-153c0-8.864 7.136-16 16-16z" fill="#c7891f"/>
   <path d="m18 2h103c8.864 0 16 7.136 16 16v153c0 8.864-7.136 16-16 16h-103c-8.864 0-16-7.136-16-16v-153c0-8.864 7.136-16 16-16z" fill="url(#a)"/>
   <path d="m22.167 10h94.417c8.1253 0 14.667 6.5413 14.667 14.667v140.25c0 8.1253-6.5413 14.667-14.667 14.667h-94.417c-8.1253 0-14.667-6.5413-14.667-14.667v-140.25c0-8.1253 6.5413-14.667 14.667-14.667z" fill="url(#d)"/>
   <path d="m22.167 10h94.417c8.1253 0 14.667 6.5413 14.667 14.667v140.25c0 8.1253-6.5413 14.667-14.667 14.667h-94.417c-8.1253 0-14.667-6.5413-14.667-14.667v-140.25c0-8.1253 6.5413-14.667 14.667-14.667z" fill="url(#b)"/>
   <path d="m22.156 9.375c-8.4608 0-15.281 6.8205-15.281 15.281v140.25c0 8.4608 6.8205 15.312 15.281 15.312h94.438c8.4608 0 15.281-6.8517 15.281-15.312v-140.25c0-8.4608-6.8205-15.281-15.281-15.281h-94.438zm0 1.25h94.438c7.7899 0 14.031 6.2414 14.031 14.031v140.25c0 7.7899-6.2414 14.062-14.031 14.062h-94.438c-7.7899 0-14.031-6.2726-14.031-14.062v-140.25c0-7.7899 6.2414-14.031 14.031-14.031z" fill="url(#c)"/>
  </g>
 </g>
</svg>
