<svg height="512" viewBox="0 0 128 128" width="512" xmlns="http://www.w3.org/2000/svg"><g><path d="m1.75 1.747h124.5v124.5h-124.5z" fill="#5b5555"/><path d="m9.75 9.747h108.5v108.5h-108.5z" fill="#fff5f5"/><g fill="#c86e59"><path d="m9.75 9.747h21.7v21.7h-21.7z"/><path d="m53.15 9.747h21.7v21.7h-21.7z"/><path d="m96.55 9.747h21.7v21.7h-21.7z"/><path d="m31.45 31.447h21.7v21.7h-21.7z"/><path d="m74.85 31.447h21.7v21.7h-21.7z"/><path d="m9.75 53.147h21.7v21.7h-21.7z"/><path d="m53.15 53.147h21.7v21.7h-21.7z"/><path d="m96.55 53.147h21.7v21.7h-21.7z"/><path d="m31.45 74.847h21.7v21.7h-21.7z"/><path d="m74.85 74.847h21.7v21.7h-21.7z"/><path d="m9.75 96.547h21.7v21.7h-21.7z"/><path d="m53.15 96.547h21.7v21.7h-21.7z"/><path d="m96.55 96.547h21.7v21.7h-21.7z"/></g><g fill="#fabe2c"><circle cx="20.6" cy="20.597" r="4.5"/><circle cx="42.3" cy="42.297" r="4.5"/><circle cx="85.7" cy="42.297" r="4.5"/><circle cx="42.3" cy="85.697" r="4.5"/><circle cx="85.7" cy="85.697" r="4.5"/><circle cx="63.89" cy="20.597" r="4.5"/><circle cx="107.181" cy="20.597" r="4.5"/><circle cx="20.6" cy="63.997" r="4.5"/><circle cx="63.89" cy="63.997" r="4.5"/><circle cx="107.181" cy="63.997" r="4.5"/><circle cx="20.6" cy="107.397" r="4.5"/><circle cx="63.89" cy="107.397" r="4.5"/><circle cx="107.181" cy="107.397" r="4.5"/></g></g></svg>