<?xml version="1.0" encoding="utf-8"?>
<svg xmlns="http://www.w3.org/2000/svg" xmlns:xlink="http://www.w3.org/1999/xlink" version= "1.1" width="1618px" height="1000px" viewBox="-449 213 1618 1000">
<g id="layer1">
<g style="fill:rgb(242,102,85); fill-opacity:1.0; stroke-linejoin: miter">
<path d="M-449.001,212.05887C-449.25034,212.05887,-449.48947,212.15791,-449.66577,212.33423C-449.84207,212.51054,-449.94113,212.74965,-449.94113,212.999L-449.94012,1213.0C-449.94012,1213.5192,-449.51923,1213.9401,-449.0,1213.9401L1169.001,1213.941C1169.2504,1213.941,1169.4895,1213.842,1169.6658,1213.6658C1169.842,1213.4895,1169.941,1213.2504,1169.941,1213.001L1169.9401,213.0C1169.9401,212.48079,1169.5192,212.05988,1169.0,212.05988L-449.001,212.05887 Z"/>
</g>
<g style="fill:rgb(0,0,0); fill-opacity:0.50980395; stroke-linejoin: miter">
<path d="M372.48422,1020.2517Q375.86993,1020.24744,379.24554,1020.2372L381.6414,966.32947L382.68582,942.8652L382.70703,942.39294L383.55362,923.3745L384.4836,902.4817L385.4201,881.4436L386.42087,858.9619L387.55997,833.37915L388.7512,806.61176L389.91928,780.3751L389.93973,779.9138L390.41827,769.1662L380.25378,769.3978L390.41846,769.1652L396.22415,638.74146Q384.89755,639.0887,373.7197,639.5088Q133.23906,648.5449,-44.30703,691.79395Q-245.97025,741.2444,-289.53082,814.0361L-296.32773,838.0102Q-293.31906,913.2432,-115.69216,963.56494Q71.35039,1016.5548,372.48422,1020.2517 Z M171.67114,962.28394C171.66878,962.28455,171.6664,962.28467,171.66397,962.28394L171.66972,962.2833L172.00856,962.27826L172.00859,962.27747L171.67142,962.2842 Z"/>
</g>
<g style="fill:rgb(255,255,255); fill-opacity:0.5137255; stroke-linejoin: miter">
<path d="M400.71347,637.274Q397.661,637.3457,394.61972,637.4237L392.4323,689.8429L391.47305,712.79333L391.45364,713.25604L390.67368,731.9192L389.81406,752.4829L388.94586,773.25616L388.01505,795.52795L386.95187,820.9653L385.83493,847.68616L384.73575,873.98395L384.71637,874.4471L384.26483,885.2517L393.59396,885.0835L384.26483,885.25256L378.72516,1017.7904Q389.2203,1017.6715,399.6029,1017.47485Q629.13116,1013.1218,805.22723,970.4761Q1012.4697,919.92957,1054.704,841.4086L1060.5541,815.60077Q1053.0581,735.30426,867.3856,685.057Q681.3905,634.72253,400.71347,637.274 Z M586.67004,690.7596C586.67236,690.7596,586.6746,690.7596,586.67664,690.7596L586.6713,690.7606L586.35077,690.7704L586.35077,690.7713L586.6696,690.7596 Z"/>
</g>
<g style="fill:rgb(255,255,255); fill-opacity:0.99607843; stroke-linejoin: miter">
<path d="M547.5737,875.14526L545.4015,875.1911L468.26355,876.8684C468.26337,876.8684,468.26315,876.8684,468.2629,876.8684L468.25854,876.8693L545.40173,875.1906L547.5737,875.14526 Z"/>
</g>
<g style="fill:rgb(255,255,255); fill-opacity:0.99607843; stroke-linejoin: miter">
<path d="M706.27264,871.69214L632.61536,873.2951L632.6081,873.2962L706.27264,871.69214 Z"/>
</g>
<g style="fill:rgb(255,255,255); fill-opacity:0.99607843; stroke-linejoin: miter">
<path d="M695.31525,844.14984C695.31665,844.1499,695.3182,844.15,695.3195,844.1499L695.31287,844.1509L624.78845,845.8074L695.31525,844.14984 Z"/>
</g>
<g style="fill:rgb(255,255,255); fill-opacity:0.99607843; stroke-linejoin: miter">
<path d="M673.6558,791.5146L608.6299,793.2773L673.65436,791.5146 Z"/>
</g>
<g style="fill:rgb(255,255,255); fill-opacity:0.99607843; stroke-linejoin: miter">
<path d="M639.6306,708.8315L583.2158,710.66565L639.6265,708.8317 Z"/>
</g>
<g style="fill:rgb(255,255,255); fill-opacity:0.99607843; stroke-linejoin: miter">
<path d="M454.60043,699.30884C454.60287,699.3087,454.60535,699.3087,454.6078,699.3088L454.60358,699.3097L454.55566,699.3103L454.55566,699.3112L454.60043,699.30884 Z"/>
</g>
<g style="fill:rgb(0,0,0); fill-opacity:1.0; stroke-linejoin: miter">
<path d="M36.913902,895.8008L394.30887,889.34125L749.93726,882.91394Q749.96356,891.1106,749.98975,899.3078Q394.31564,905.778,36.873764,912.2799Q36.893852,904.04016,36.913902,895.8008"/>
</g>
<g>
<g style="fill:rgb(0,0,0); fill-opacity:1.0; stroke-linejoin: miter">
<path d="M517.2069,713.2846L582.87646,711.1449L588.6354,729.86035L520.7229,731.9866L517.2069,713.2846 Z M517.2069,713.2846L582.87646,711.1449L588.6354,729.86035L520.7229,731.9866L517.2069,713.2846 Z M517.2069,713.2846L582.87646,711.1449L588.6354,729.86035L520.7229,731.9866L517.2069,713.2846 Z M517.2069,713.2846L582.87646,711.1449L588.6354,729.86035L520.7229,731.9866L517.2069,713.2846 Z"/>
</g>
<g style="fill:rgb(0,0,0); fill-opacity:1.0; stroke-linejoin: miter">
<path d="M391.23065,717.38806L455.8046,715.2828L457.2503,733.9735L390.5114,736.06213L391.23065,717.38806 Z M391.23065,717.38806L455.8046,715.2828L457.2503,733.9735L390.5114,736.06213L391.23065,717.38806 Z M391.23065,717.38806L455.8046,715.2828L457.2503,733.9735L390.5114,736.06213L391.23065,717.38806 Z M391.23065,717.38806L455.8046,715.2828L457.2503,733.9735L390.5114,736.06213L391.23065,717.38806 Z"/>
</g>
<g style="fill:rgb(0,0,0); fill-opacity:1.0; stroke-linejoin: miter">
<path d="M270.96277,721.30396L330.85193,719.3545L328.12997,738.0158L266.2693,739.9553L270.96277,721.30396 Z M270.96277,721.30396L330.85193,719.3545L328.12997,738.0158L266.2693,739.9553L270.96277,721.30396 Z M270.96277,721.30396L330.85193,719.3545L328.12997,738.0158L266.2693,739.9553L270.96277,721.30396 Z M270.96277,721.30396L330.85193,719.3545L328.12997,738.0158L266.2693,739.9553L270.96277,721.30396 Z"/>
</g>
<g style="fill:rgb(0,0,0); fill-opacity:1.0; stroke-linejoin: miter">
<path d="M457.2503,733.9735L520.7229,731.9866L524.6009,752.6009L458.84113,754.571L457.2503,733.9735 Z M457.2503,733.9735L520.7229,731.9866L524.6009,752.6009L458.84113,754.571L457.2503,733.9735 Z M457.2503,733.9735L520.7229,731.9866L524.6009,752.6009L458.84113,754.571L457.2503,733.9735 Z M457.2503,733.9735L520.7229,731.9866L524.6009,752.6009L458.84113,754.571L457.2503,733.9735 Z"/>
</g>
<g style="fill:rgb(0,0,0); fill-opacity:1.0; stroke-linejoin: miter">
<path d="M328.12997,738.0158L390.5114,736.06213L389.71915,756.63794L325.13367,758.57214L328.12997,738.0158 Z M328.12997,738.0158L390.5114,736.06213L389.71915,756.63794L325.13367,758.57214L328.12997,738.0158 Z M328.12997,738.0158L390.5114,736.06213L389.71915,756.63794L325.13367,758.57214L328.12997,738.0158 Z M328.12997,738.0158L390.5114,736.06213L389.71915,756.63794L325.13367,758.57214L328.12997,738.0158 Z"/>
</g>
<g style="fill:rgb(0,0,0); fill-opacity:1.0; stroke-linejoin: miter">
<path d="M199.36993,742.0487L266.2693,739.9553L261.10226,760.487L191.87762,762.5612L199.36993,742.0487 Z M199.36993,742.0487L266.2693,739.9553L261.10226,760.487L191.87762,762.5612L199.36993,742.0487 Z M199.36993,742.0487L266.2693,739.9553L261.10226,760.487L191.87762,762.5612L199.36993,742.0487 Z M199.36993,742.0487L266.2693,739.9553L261.10226,760.487L191.87762,762.5612L199.36993,742.0487 Z"/>
</g>
<g style="fill:rgb(0,0,0); fill-opacity:1.0; stroke-linejoin: miter">
<path d="M524.6009,752.6009L594.98157,750.4949L601.4018,771.36084L528.5232,773.44275L524.6009,752.6009 Z M524.6009,752.6009L594.98157,750.4949L601.4018,771.36084L528.5232,773.44275L524.6009,752.6009 Z M524.6009,752.6009L594.98157,750.4949L601.4018,771.36084L528.5232,773.44275L524.6009,752.6009 Z M524.6009,752.6009L594.98157,750.4949L601.4018,771.36084L528.5232,773.44275L524.6009,752.6009 Z"/>
</g>
<g style="fill:rgb(0,0,0); fill-opacity:1.0; stroke-linejoin: miter">
<path d="M389.71915,756.63794L458.84113,754.571L460.44952,775.38434L388.9202,777.42316L389.71915,756.63794 Z M389.71915,756.63794L458.84113,754.571L460.44952,775.38434L388.9202,777.42316L389.71915,756.63794 Z M389.71915,756.63794L458.84113,754.571L460.44952,775.38434L388.9202,777.42316L389.71915,756.63794 Z M389.71915,756.63794L458.84113,754.571L460.44952,775.38434L388.9202,777.42316L389.71915,756.63794 Z"/>
</g>
<g style="fill:rgb(0,0,0); fill-opacity:1.0; stroke-linejoin: miter">
<path d="M261.10226,760.487L325.13367,758.57214L322.10474,779.3345L255.88596,781.22107L261.10226,760.487 Z M261.10226,760.487L325.13367,758.57214L322.10474,779.3345L255.88596,781.22107L261.10226,760.487 Z M261.10226,760.487L325.13367,758.57214L322.10474,779.3345L255.88596,781.22107L261.10226,760.487 Z M261.10226,760.487L325.13367,758.57214L322.10474,779.3345L255.88596,781.22107L261.10226,760.487 Z"/>
</g>
<g style="fill:rgb(0,0,0); fill-opacity:1.0; stroke-linejoin: miter">
<path d="M460.44952,775.38434L528.5232,773.44275L532.7297,795.79626L462.17557,797.7026L460.44952,775.38434 Z M460.44952,775.38434L528.5232,773.44275L532.7297,795.79626L462.17557,797.7026L460.44952,775.38434 Z M460.44952,775.38434L528.5232,773.44275L532.7297,795.79626L462.17557,797.7026L460.44952,775.38434 Z M460.44952,775.38434L528.5232,773.44275L532.7297,795.79626L462.17557,797.7026L460.44952,775.38434 Z"/>
</g>
<g style="fill:rgb(0,0,0); fill-opacity:1.0; stroke-linejoin: miter">
<path d="M322.10474,779.3345L388.9202,777.42316L388.0661,799.7095L318.85986,801.581L322.10474,779.3345 Z M322.10474,779.3345L388.9202,777.42316L388.0661,799.7095L318.85986,801.581L322.10474,779.3345 Z M322.10474,779.3345L388.9202,777.42316L388.0661,799.7095L318.85986,801.581L322.10474,779.3345 Z M322.10474,779.3345L388.9202,777.42316L388.0661,799.7095L318.85986,801.581L322.10474,779.3345 Z"/>
</g>
<g style="fill:rgb(0,0,0); fill-opacity:1.0; stroke-linejoin: miter">
<path d="M184.31316,783.26416L255.88596,781.22107L250.29492,803.43396L176.21623,805.4378L184.31316,783.26416 Z M184.31316,783.26416L255.88596,781.22107L250.29492,803.43396L176.21623,805.4378L184.31316,783.26416 Z M184.31316,783.26416L255.88596,781.22107L250.29492,803.43396L176.21623,805.4378L184.31316,783.26416 Z M184.31316,783.26416L255.88596,781.22107L250.29492,803.43396L176.21623,805.4378L184.31316,783.26416 Z"/>
</g>
<g style="fill:rgb(0,0,0); fill-opacity:1.0; stroke-linejoin: miter">
<path d="M532.7297,795.79626L608.2894,793.75507L616.1645,819.3588L537.53644,821.3495L532.7297,795.79626 Z M532.7297,795.79626L608.2894,793.75507L616.1645,819.3588L537.53644,821.3495L532.7297,795.79626 Z M532.7297,795.79626L608.2894,793.75507L616.1645,819.3588L537.53644,821.3495L532.7297,795.79626 Z M532.7297,795.79626L608.2894,793.75507L616.1645,819.3588L537.53644,821.3495L532.7297,795.79626 Z"/>
</g>
<g style="fill:rgb(0,0,0); fill-opacity:1.0; stroke-linejoin: miter">
<path d="M388.0661,799.7095L462.17557,797.7026L464.14484,823.20825L387.0898,825.16205L388.0661,799.7095 Z M388.0661,799.7095L462.17557,797.7026L464.14484,823.20825L387.0898,825.16205L388.0661,799.7095 Z M388.0661,799.7095L462.17557,797.7026L464.14484,823.20825L387.0898,825.16205L388.0661,799.7095 Z M388.0661,799.7095L462.17557,797.7026L464.14484,823.20825L387.0898,825.16205L388.0661,799.7095 Z"/>
</g>
<g style="fill:rgb(0,0,0); fill-opacity:1.0; stroke-linejoin: miter">
<path d="M250.29492,803.43396L318.85986,801.581L315.15387,826.9871L243.91418,828.79016L250.29492,803.43396 Z M250.29492,803.43396L318.85986,801.581L315.15387,826.9871L243.91418,828.79016L250.29492,803.43396 Z M250.29492,803.43396L318.85986,801.581L315.15387,826.9871L243.91418,828.79016L250.29492,803.43396 Z M250.29492,803.43396L318.85986,801.581L315.15387,826.9871L243.91418,828.79016L250.29492,803.43396 Z"/>
</g>
<g style="fill:rgb(0,0,0); fill-opacity:1.0; stroke-linejoin: miter">
<path d="M464.14484,823.20825L537.53644,821.3495L542.58923,848.2112L466.21716,850.0091L464.14484,823.20825 Z M464.14484,823.20825L537.53644,821.3495L542.58923,848.2112L466.21716,850.0091L464.14484,823.20825 Z M464.14484,823.20825L537.53644,821.3495L542.58923,848.2112L466.21716,850.0091L464.14484,823.20825 Z M464.14484,823.20825L537.53644,821.3495L542.58923,848.2112L466.21716,850.0091L464.14484,823.20825 Z"/>
</g>
<g style="fill:rgb(0,0,0); fill-opacity:1.0; stroke-linejoin: miter">
<path d="M315.15387,826.9871L387.0898,825.16205L386.05972,851.90063L311.2641,853.6588L315.15387,826.9871 Z M315.15387,826.9871L387.0898,825.16205L386.05972,851.90063L311.2641,853.6588L315.15387,826.9871 Z M315.15387,826.9871L387.0898,825.16205L386.05972,851.90063L311.2641,853.6588L315.15387,826.9871 Z M315.15387,826.9871L387.0898,825.16205L386.05972,851.90063L311.2641,853.6588L315.15387,826.9871 Z"/>
</g>
<g style="fill:rgb(0,0,0); fill-opacity:1.0; stroke-linejoin: miter">
<path d="M166.97386,830.73883L243.91418,828.79016L237.21478,855.40356L157.27524,857.286L166.97386,830.73883 Z M166.97386,830.73883L243.91418,828.79016L237.21478,855.40356L157.27524,857.286L166.97386,830.73883 Z M166.97386,830.73883L243.91418,828.79016L237.21478,855.40356L157.27524,857.286L166.97386,830.73883 Z M166.97386,830.73883L243.91418,828.79016L237.21478,855.40356L157.27524,857.286L166.97386,830.73883 Z"/>
</g>
<g style="fill:rgb(0,0,0); fill-opacity:1.0; stroke-linejoin: miter">
<path d="M630.50836,685.82434L573.2032,687.779L511.18457,689.8959L453.7602,691.8561L392.71786,693.94196L334.1782,695.938L278.098,697.8537L218.47354,699.88654L162.27914,701.8044L134.39207,702.7594L130.30128,710.7648L121.94339,727.12256L112.57892,745.45435L102.58995,765.0034L91.91375,785.8985L80.47631,808.2882L68.19392,832.3307L54.966965,858.22003L40.94036,885.67633L33.673706,899.89667L71.41571,899.11316L147.63159,897.5256L228.72446,895.8396L305.22324,894.24585L385.29825,892.58L469.04697,890.834L548.07086,889.19324L633.66754,887.4073L712.9902,885.7623L752.6642,884.9339L745.832,870.32086L732.68097,842.19696L720.32117,815.76697L708.8814,791.30554L698.26587,768.59796L688.3843,747.45966L679.1594,727.7372L670.5357,709.2937L662.8582,692.8727L659.10474,684.8444L630.50836,685.82434 Z M640.0365,710.2866L647.33765,728.01953L588.63696,729.8599L594.98157,750.4949L655.83594,748.6742L664.4316,769.56213L601.40295,771.36316L608.2894,793.75507L673.6609,791.9847L673.7744,792.2558L683.83124,816.69855L684.215,817.6333L616.1645,819.3588L624.4477,846.28455L695.3214,844.6205L706.2662,871.2207L632.60913,872.8259L624.4477,846.28455L542.5894,848.21405L547.56824,874.6781L545.39606,874.72406L468.25778,876.4035L466.21716,850.0091L386.059,851.9011L385.0486,878.2152L307.43707,879.908L311.2641,853.6588L237.21515,855.4063L230.62952,881.5799L152.7402,883.27747L147.74321,883.3842L157.27524,857.286L89.130104,858.8904L89.820076,857.3955L101.3589,832.4026L166.97202,830.74164L176.21623,805.4378L113.01701,807.1462L123.238495,785.0069L184.31436,783.2642L191.87762,762.5612L132.78468,764.32996L132.89276,764.0977L141.92287,744.53326L142.24611,743.8348L199.36858,742.0494L206.17744,723.41327L150.84193,725.21564L157.98903,709.74054L211.83273,707.93164L206.17744,723.41327L270.9623,721.3049L274.85968,705.8121L276.12192,705.77106L333.02155,703.858L333.1131,703.8552L330.85193,719.3545L391.23065,717.38806L391.8264,701.88153L454.36523,699.78107L454.60724,699.7727L455.8046,715.2828L517.2069,713.2846L514.2851,697.7673L575.6059,695.70764L578.10486,695.62274L582.87646,711.1449L639.63354,709.30035L640.0365,710.2866 Z"/>
</g>
</g>
<g style="fill:rgb(255,255,255); fill-opacity:1.0; stroke-linejoin: miter">
<path d="M582.53754,711.62335L588.0106,729.41223L521.10175,731.50867L517.75916,713.7323L582.53754,711.62335 Z M455.38397,715.7609L456.75797,733.52454L390.98187,735.58484L391.66556,717.8366L455.38397,715.7609 Z M330.32944,719.83246L327.74292,737.5671L266.848,739.4779L271.30862,721.75214L330.32944,719.83246 Z M520.3443,732.46466L524.0476,752.15137L459.2619,754.0937L457.7426,734.4224L520.3443,732.46466 Z M390.04074,736.54004L389.28427,756.1882L325.6557,758.0963L328.5175,738.4648L390.04074,736.54004 Z M265.6906,740.43274L260.75684,760.0382L192.5217,762.0845L199.67651,742.49664L265.6906,740.43274 Z M594.6419,750.973L600.7763,770.9104L528.90234,772.9655L525.15436,753.0506L594.6419,750.973 Z M458.42035,755.0483L459.9571,774.9338L389.39062,776.9472L390.15408,757.08795L458.42035,755.0483 Z M324.61133,759.04865L321.71796,778.88477L256.4639,780.7456L261.4478,760.93585L324.61133,759.04865 Z M528.14404,773.9199L532.17566,795.34454L462.5967,797.22687L460.942,775.8351L528.14404,773.9199 Z M388.44965,777.8995L387.63126,799.25854L319.38177,801.1063L322.49207,779.7845L388.44965,777.8995 Z M255.30789,781.6968L249.94989,802.9842L176.8591,804.9637L184.61946,783.71295L255.30789,781.6968 Z M607.9493,794.2325L615.53766,818.90594L537.91614,820.87274L533.2836,796.2476L607.9493,794.2325 Z M461.75436,798.1786L463.6519,822.7556L387.5603,824.6878L388.50107,800.1603L461.75436,798.1786 Z M318.33804,802.056L314.76712,826.53625L244.49142,828.31647L244.49136,828.3171L250.64001,803.8835L318.33804,802.056 Z M537.1572,821.82556L542.0345,847.7572L466.63852,849.5341L464.63757,823.6602L537.1572,821.82556 Z M386.61948,825.6369L385.62497,851.4482L311.78546,853.18536L315.54068,827.43823L386.61948,825.6369 Z M243.337,829.2639L236.87042,854.9532L157.91675,856.81433L157.91675,856.81494L167.27913,831.1877L243.337,829.2639 Z M578.1057,695.15546C578.1033,695.1556,578.1007,695.15564,578.09814,695.1558L575.59894,695.2404L575.59906,695.24115L514.2787,697.3021C514.14307,697.3064,514.0153,697.37164,513.92975,697.48C513.84393,697.58777,513.80914,697.72833,513.83466,697.8631L516.65405,712.8368L456.22513,714.80493L455.06134,699.7278C455.04257,699.48645,454.8451,699.30475,454.60837,699.3088C454.60574,699.30865,454.6031,699.3087,454.60043,699.30884L454.35858,699.3169L454.3587,699.31744L391.8201,701.4192C391.57977,701.4273,391.3842,701.6262,391.37457,701.8722L390.79572,716.9397L331.37448,718.8763L333.55713,703.91516C333.57675,703.781,333.53815,703.6462,333.45166,703.54584C333.3666,703.4472,333.2436,703.392,333.11435,703.39417C333.11215,703.3942,333.11008,703.3942,333.10788,703.39417L333.0166,703.3973L333.0154,703.39777L276.11594,705.3121L276.1165,705.31256L274.85413,705.35284C274.65317,705.3593,274.47858,705.5033,274.42798,705.7045L270.6166,720.85675L206.82259,722.9346L212.24673,708.0862C212.29881,707.9435,212.2797,707.7847,212.1957,707.6625C212.11295,707.5416,211.9781,707.47186,211.83415,707.47394C211.83167,707.474,211.82925,707.47406,211.8268,707.47437L157.98303,709.2843C157.81636,709.28973,157.66527,709.3928,157.59273,709.54956L150.44603,725.0246C150.37968,725.1682,150.38913,725.3357,150.471,725.4678C150.55154,725.5975,150.69081,725.67444,150.84038,725.672C150.84286,725.67206,150.84528,725.6719,150.84778,725.6719L205.53235,723.8923L199.06215,741.60175L142.24045,743.379C142.07408,743.3841,141.92328,743.48645,141.85072,743.64276L141.52747,744.3412L141.52722,744.342L132.49806,763.9049L132.39008,764.13666C132.32347,764.2805,132.33246,764.4484,132.41405,764.58014C132.49432,764.71063,132.63358,764.7879,132.78314,764.78595C132.7855,764.7858,132.7879,764.7859,132.79033,764.78595L191.23363,763.0379L184.00893,782.81616L123.232925,784.55145C123.06676,784.5564,122.916,784.6581,122.843704,784.8147L112.622665,806.95325C112.5567,807.0965,112.56604,807.26355,112.64749,807.39557C112.7276,807.5254,112.86635,807.603,113.01532,807.6014C113.017715,807.60144,113.02002,807.6013,113.022354,807.6014L175.57341,805.9123L175.57343,805.9131L166.6668,830.2924L101.35359,831.9472C101.18773,831.95166,101.03729,832.053,100.96507,832.20953L89.42677,857.2019L89.42675,857.202L88.736855,858.6971C88.67106,858.83966,88.68041,859.0069,88.761536,859.1386C88.841446,859.2688,88.97987,859.34625,89.128555,859.3454C89.13079,859.34534,89.13303,859.3454,89.13527,859.3455L156.63388,857.7579L147.3325,883.2257C147.30118,883.3117,147.29572,883.4035,147.31488,883.4901L147.3143,883.4902C147.35246,883.6647,147.48755,883.8028,147.66331,883.8348C147.68968,883.8396,147.71596,883.8416,147.742,883.84155C147.75339,883.8413,147.76474,883.84106,147.77597,883.84L147.77542,883.84076L152.74515,883.734L152.7453,883.7345L230.63486,882.03876C230.83502,882.0343,231.00882,881.8922,231.0593,881.6917L237.55957,855.85706L310.7426,854.1318L306.994,879.84375C306.97455,879.9777,307.01306,880.11273,307.0994,880.2139C307.18417,880.3131,307.30692,880.36975,307.4356,880.36865C307.43802,880.3687,307.4402,880.3686,307.4426,880.36865L385.0542,878.67804C385.29495,878.67285,385.49078,878.4755,385.5003,878.2293L386.49384,852.35364L465.79578,850.4837L467.80292,876.4441C467.82153,876.6856,468.01932,876.8702,468.25662,876.86847C468.25876,876.86835,468.26117,876.8683,468.26355,876.8684L545.40173,875.1906L545.4015,875.1911L547.5737,875.14526C547.70996,875.14233,547.83856,875.0782,547.9247,874.97034C548.01086,874.8627,548.04614,874.7223,548.02045,874.58655L543.14435,848.6681L624.1066,846.7618L632.16516,872.9689C632.22516,873.1644,632.405,873.2968,632.60815,873.29517C632.6104,873.2952,632.61273,873.2952,632.61536,873.2951L706.27264,871.69214C706.42804,871.6887,706.57214,871.6081,706.65753,871.477C706.7431,871.3461,706.75903,871.18146,706.69977,871.03754L695.7544,844.4368C695.6822,844.26105,695.51135,844.14813,695.32275,844.1499C695.3201,844.14984,695.3179,844.14996,695.31525,844.14984L624.78845,845.8074L616.7916,819.81177L684.2212,818.1038C684.3761,818.09973,684.5197,818.01904,684.605,817.8879C684.69037,817.75696,684.7062,817.59283,684.64734,817.4492L684.2637,816.51465L684.2633,816.51416L674.206,792.07074L674.20496,792.0681L674.0913,791.797C674.0187,791.62354,673.84924,791.5121,673.66174,791.5144C673.6594,791.5144,673.65656,791.5144,673.65436,791.5146L608.6299,793.2773L602.0286,771.81335L664.438,770.0319C664.59265,770.02716,664.7359,769.9462,664.821,769.8152C664.9062,769.684,664.92175,769.51996,664.86304,769.37695L656.2671,748.4886C656.19495,748.3138,656.02527,748.20215,655.8369,748.20447C655.8346,748.20447,655.83203,748.2045,655.8295,748.20483L595.32153,750.0165L589.2613,730.3082L647.34436,728.48883C647.49835,728.484,647.64136,728.40234,647.72644,728.27136C647.8109,728.13995,647.8268,727.9759,647.76794,727.8333L640.4668,710.1003L640.4671,710.1011L640.06366,709.11505C639.99243,708.9403,639.8226,708.8285,639.6345,708.83136C639.6318,708.8314,639.62933,708.8316,639.6265,708.8317L583.2158,710.66565L578.54596,695.47656C578.4863,695.28217,578.30756,695.1522,578.1057,695.15546 Z"/>
</g>
<g style="fill:rgb(0,0,0); fill-opacity:1.0; stroke-linejoin: miter">
<path d="M-75.551575,501.88837C-76.619934,502.08655,-77.68457,502.30585,-78.81111,502.54736C-79.71719,502.73688,-80.655075,502.93225,-81.65976,503.18317C-81.87137,503.22296,-82.089905,503.28473,-82.30846,503.34656C-107.20281,509.18085,-126.531296,522.3207,-137.59949,540.824C-144.0339,551.61896,-147.52983,564.1865,-147.72626,577.5054C-147.88513,589.6499,-145.52174,602.08923,-140.5935,614.7503C-137.6568,622.33026,-136.62204,624.0803,-129.20102,634.06647C-123.97325,641.10205,-122.412,643.4308,-120.261536,647.4C-117.21215,653.09174,-116.22425,657.04266,-116.3256,663.3027C-116.43453,667.99634,-116.93289,675.76135,-117.37132,679.6252C-117.484344,680.3019,-117.71696,682.5055,-117.94663,684.47174C-118.34358,688.0069,-118.49384,689.2928,-119.41616,695.9356L-119.45821,695.9448C-120.83441,699.641,-122.816696,704.0108,-125.297424,708.5391C-127.49451,712.7462,-129.26715,719.73413,-128.92123,724.1534C-128.63995,730.23083,-129.91615,733.81476,-134.56558,739.2367C-137.87723,743.08484,-140.8074,746.8625,-141.26198,747.59283C-141.72887,748.3153,-143.67374,750.8211,-145.51714,752.8996C-157.53859,765.5946,-179.1117,803.14276,-177.82367,808.9754L-178.21634,809.0514Q-111.83143,851.19836,-33.131496,839.12726Q-31.697054,838.8782,-30.276852,838.6107Q6.3396072,831.7064,36.76313,814.5635L37.970215,814.33765C37.828087,814.21173,37.688133,814.09845,37.560684,813.9935C28.224758,806.93024,25.14534,800.5167,20.022526,777.7096C13.06102,747.5683,4.337078,729.95575,-10.798044,716.3324C-15.740875,711.96155,-15.783922,711.7763,-12.184765,702.7101C-12.051937,702.3416,-11.919107,701.973,-11.7899,701.58386L-11.757853,701.57947Q-12.685514,701.397,-13.643082,701.1681L-13.66387,701.1734C-13.172821,698.8992,-12.68025,696.88403,-12.158882,695.164C-11.328167,692.4514,-9.80275,689.1474,-8.883741,688.0192L-8.187914,687.17975L7.767208,686.4574L23.77171,685.72406L25.427876,685.19904C27.535172,684.568,28.74316,684.0411,30.485664,683.0703C34.26438,680.93427,37.873558,676.6937,38.675217,673.38684C39.306305,670.6702,38.768333,667.9476,36.231712,661.0696C34.45858,656.32495,34.440445,656.2209,34.47358,654.7766C34.581985,652.75995,35.451508,650.977,37.8852,648.0209C39.929535,645.5245,40.143204,645.1834,40.1211,644.49066C40.10723,643.6564,39.605194,642.9025,38.03859,641.2962C36.408157,639.6377,35.80008,638.77484,35.978012,638.2911C36.01986,638.15454,36.578377,637.59937,37.221535,637.09314C40.165382,634.7506,41.03659,633.5472,41.027924,631.7995C41.021286,630.6309,40.67298,629.8816,39.12307,627.99347C37.861763,626.448,37.396095,625.52704,37.203415,624.4795C37.124214,624.02246,36.73665,622.79675,36.379906,621.7478C35.588463,619.5146,35.499855,618.50104,36.016518,617.64355C36.59761,616.5905,37.742706,615.9585,40.12375,615.4064C40.33149,615.34644,40.539238,615.28577,40.77176,615.2424C40.896736,615.20807,41.02343,615.1842,41.16088,615.1586C41.446297,615.10547,41.74398,615.06085,42.05031,615.00323C42.115654,615.0019,42.178955,614.9902,42.24243,614.97833C42.358635,614.95636,42.48362,614.9226,42.599945,614.90045C43.4487,614.6995,44.184204,614.34753,45.868988,613.43207C49.859062,611.21765,51.437393,609.7533,51.973473,607.6908C52.416183,606.03186,51.891846,604.0816,50.15249,601.0398C47.94821,597.2049,44.807846,593.2556,35.55436,582.6214C29.82352,576.0044,26.767681,572.35046,24.662857,569.527L23.392635,567.80225L23.837402,566.59375C25.376099,562.5129,25.432003,558.7515,24.07692,552.8313C21.92804,543.40564,17.58395,534.52856,11.53112,527.05304C6.8860703,521.3404,0.7866516,515.9834,-5.6586285,511.96533C-17.32885,504.67676,-32.365128,500.38037,-48.008247,499.83728C-49.489586,499.79095,-51.05723,499.75018,-51.52983,499.7306C-53.102898,499.65845,-64.5472,500.31635,-66.84613,500.59357C-70.27699,501.01624,-72.90725,501.39752,-75.551575,501.88837 Z M-73.842255,520.28906Q-49.939575,515.84686,-29.103895,528.7081Q-8.358271,542.44336,-3.1337223,566.65753Q1.4214058,591.0369,-12.390528,612.11676Q-26.460579,632.6427,-51.368454,638.39185L-52.21488,638.55206Q-76.69254,643.1245,-97.45378,630.08185Q-117.928314,616.5554,-123.24201,592.22675Q-127.779015,567.83734,-113.93437,546.7389Q-99.84109,526.2468,-74.961845,520.50793L-74.950836,520.5097Q-74.39226,520.3913,-73.842255,520.28906 Z"/>
</g>
<g style="fill:rgb(255,255,255); fill-opacity:1.0; stroke-linejoin: miter">
<path d="M838.9553,530.59607L838.9553,530.597L839.1241,530.61273C853.3338,532.18646,865.15063,538.3245,874.1521,549.37506C883.0413,560.288,886.79315,573.02814,885.2244,587.1998C883.6564,601.3681,877.1716,613.1279,866.0308,622.122C854.7992,631.1899,841.85486,635.07965,827.5935,633.7039C813.3441,632.3299,801.52057,626.03644,792.4921,614.98364C783.57623,604.06903,779.8096,591.319,781.3722,577.13385C782.93317,562.95966,789.4149,551.1963,800.55066,542.19775C811.77045,533.13153,824.6854,529.40546,838.9553,530.59607L838.9553,530.597 Z M818.28107,498.40002L818.28094,498.40082C817.57605,498.33276,816.87427,498.27686,816.1765,498.23102C815.60736,498.19397,814.8411,498.17352,813.97064,498.16974C813.71356,498.16864,813.44763,498.16937,813.17444,498.17096C810.39954,498.18665,806.9276,498.33447,805.27094,498.54578C796.5001,499.6632,788.6001,502.93274,782.85486,507.82544C782.4111,508.20337,780.96423,509.16748,779.64386,509.96204C776.91815,511.60254,775.6428,512.49963,774.0421,513.96576C771.8139,516.0069,770.3844,517.83124,769.16833,520.24C766.99005,524.55444,766.48,529.5391,767.6132,534.8831C767.6128,534.8846,767.61206,534.88544,767.6114,534.8866L767.61365,534.8882C768.21204,537.70557,769.26794,540.6256,770.7795,543.6018L772.181,546.3592L771.6084,547.00385C770.09625,548.7034,768.47516,551.54114,766.3025,556.24884C765.5324,557.91675,764.5702,559.79785,764.1847,560.40936C763.9448,560.7898,763.707,561.1712,763.4817,561.5611C762.0295,564.07623,760.9553,566.85706,760.1858,570.1534C760.18524,570.15594,760.1839,570.15686,760.18207,570.1587L760.18463,570.1603C759.7645,571.9622,759.44183,573.9208,759.1865,576.0732C758.9693,577.9065,758.9309,579.47516,758.93414,585.3716L758.9497,592.4749L758.0263,592.3977C757.9935,592.39526,757.96136,592.39215,757.92944,592.389C756.043,592.20996,755.02625,591.5971,752.9608,589.3296C752.32446,588.6311,751.76605,588.0692,751.69415,588.0626C751.6936,588.0626,751.6935,588.0627,751.69324,588.06256C751.69073,588.0627,751.68915,588.0637,751.6875,588.0651C751.5261,588.21204,752.1864,590.4107,752.73596,591.5694C753.4416,593.0558,754.3018,594.36816,756.0101,596.5312C756.6562,597.3494,757.1943,598.08716,757.1943,598.17456C757.1939,598.3775,754.9324,601.3246,753.51965,602.9516C752.00055,604.7005,750.1454,606.7375,748.67645,608.29395C747.5066,609.5338,746.57886,610.4653,746.2613,610.7027C745.8491,611.0106,745.01886,611.6258,744.4107,612.05994C742.7867,613.22,742.20795,613.7995,742.20667,614.3371C742.2043,615.5433,744.2383,618.2231,746.8134,620.4198C748.9814,622.26904,749.7676,623.0916,750.12115,623.8428C750.7605,625.20276,750.28217,626.853,748.5257,629.35394C747.03107,631.4831,747.03644,632.26654,748.5761,633.42444C749.56964,634.172,750.8696,635.524,751.19556,636.14264C751.41046,636.5502,751.4011,636.5766,750.90063,637.13446C749.6076,638.5739,749.3865,639.9273,750.1874,641.53375C750.52594,642.21204,751.0237,642.81506,752.1192,643.8668C753.67316,645.3588,754.16675,645.98157,754.79584,647.2099C755.7587,649.0897,755.9192,651.39954,755.33826,654.8228C754.9103,657.344,755.03406,659.1755,755.77985,661.50757C756.68176,664.3275,758.5617,666.5181,761.2792,667.9389C761.2804,667.93964,761.28125,667.94055,761.2828,667.9419L761.28485,667.9437C761.45667,668.03186,761.6317,668.1181,761.80945,668.20123C763.2145,668.86066,764.4331,669.2396,766.0644,669.39386C766.6285,669.4472,767.2404,669.4734,767.9266,669.47546C769.2342,669.4795,770.80817,669.39185,772.8212,669.23846C776.7331,668.94147,783.32074,668.73425,787.17816,668.7468C788.26636,668.7504,789.1377,668.772,789.6699,668.81396C789.77985,668.82275,789.8885,668.83234,789.9966,668.8427C790.65186,668.9043,791.27423,668.98737,791.84607,669.0872L791.8388,669.0889L791.91425,669.1084L791.9096,669.1144C793.3691,669.3244,794.67444,669.36383,796.7955,669.6791L799.85187,670.38965L800.5313,671.0986C801.4302,672.0528,803.0045,674.94574,803.9087,677.35754C804.4822,678.88586,805.03986,680.68854,805.614,682.726L805.5949,682.72565C805.0228,682.91815,804.45905,683.0956,803.9036,683.25775L803.93274,683.26263C804.0724,683.6061,804.2037,683.9371,804.3552,684.2585C808.1241,692.2517,808.077,692.39343,803.8568,696.8364C790.82605,710.5557,783.83215,727.4273,779.25854,755.6106C775.80206,776.9077,773.42725,783.04596,765.32983,790.3173C765.2155,790.4199,765.09894,790.5401,764.9766,790.66547L766.088,790.77106C785.18317,799.4813,805.95496,804.8893,828.4011,806.99524C829.2708,807.07666,830.14386,807.1694,831.02313,807.22144C879.09143,810.0723,926.2437,825.3986,964.7582,795.9391L960.53314,767.2688C961.37415,761.83527,939.7055,729.45795,928.16077,718.8365C926.3251,717.1476,924.47046,714.9744,924.0104,714.3524C923.8414,714.12384,923.3531,713.544,922.63873,712.74603L922.6392,712.748C908.2233,704.6647,893.4747,695.3471,884.5041,688.8509L884.4957,688.85126C884.54974,688.5521,884.6026,688.24164,884.654,687.9194L884.66235,687.91943C885.72437,687.98737,886.762,688.0232,887.7872,688.0261C888.5094,688.0283,889.22546,688.0144,889.9384,687.98596C897.58215,687.6797,902.94183,685.72797,907.0884,681.7703L907.9098,680.9919L907.9104,680.9933C907.91046,680.9917,907.9104,680.9917,907.9103,680.9916L908.39197,680.5346L909.38696,680.81354C910.842,681.21594,912.3323,681.491,913.7713,681.6273C914.44366,681.691,915.1053,681.72424,915.7471,681.7265C916.3972,681.7287,917.0273,681.69977,917.6274,681.63464C923.1458,681.03503,927.20465,678.3,929.7791,673.4449C930.13464,672.7745,931.099,671.22266,931.9321,670.00635C933.86707,667.18176,935.0714,664.6844,936.2827,661.0377C937.35754,657.8026,938.5519,653.1254,938.67224,651.7301C938.72833,651.0752,938.6735,650.4953,938.49817,649.8448C938.0019,648.00555,938.25867,644.85333,939.1454,642.00977C939.2987,641.51666,939.8242,640.45166,940.3166,639.6159C940.8048,638.7856,941.38293,637.68585,941.5905,637.1764C943.17017,633.2958,943.0019,628.9715,941.05634,622.9987C940.5048,621.30615,940.1616,620.5592,939.6399,619.79297C938.9341,618.75806,937.07184,616.69574,930.8691,610.0776C927.5121,606.4958,927.3758,606.3446,927.75586,606.2368C927.9614,606.1783,928.7356,605.99207,929.46686,605.826C933.2402,604.9699,935.83185,603.2313,937.17694,600.67676C937.9984,599.11615,938.2039,598.0393,938.1151,595.6316C938.074,594.5146,937.99036,593.44025,937.9413,593.2393C937.859,592.9046,937.92865,592.83734,938.99414,592.357C942.1843,590.9193,943.711,589.21576,943.71954,587.1115C943.7282,584.99365,942.40576,582.803,939.8778,580.74164L938.92773,579.9686L939.9078,579.27594C941.03375,578.4807,942.3526,577.13354,942.99365,576.12427C944.532,573.70184,944.3138,570.59796,942.3985,567.84894C942.1371,567.474,941.2005,566.4259,940.30896,565.55084L938.7162,563.9284L938.7463,562.08685C938.7617,560.6221,938.7063,559.9877,938.46967,559.0875C937.69904,556.15497,935.5779,554.2459,931.7047,553.04004L930.43286,552.64777L930.4333,552.0528C930.4338,550.8932,930.13385,549.5743,929.63165,548.55255C928.47925,546.20624,926.23236,545.14795,921.31433,544.67847C921.0866,544.65686,920.8535,544.6366,920.614,544.6171L919.649,544.5403L919.1383,543.7776C918.5911,542.96234,917.7195,542.07745,917.0032,541.5725C916.8204,541.4438,916.6478,541.3406,916.49396,541.268C915.9347,541.0049,915.3756,540.8433,914.8084,540.78894C914.6703,540.7757,914.5318,540.7695,914.39264,540.7686C912.80035,540.76184,911.1278,541.58374,909.1963,543.2879L907.8062,544.5206L907.6163,544.0582C907.2076,543.0185,904.8309,538.43085,903.90814,536.8912C898.2747,527.49475,890.84766,520.05255,881.37744,514.32074C878.55536,512.6127,873.0162,509.91315,869.85785,508.69824C862.3962,505.82788,853.7332,503.8443,845.3459,503.04175C843.379,502.85364,841.4283,502.72974,839.51056,502.67523C838.6228,502.6501,838.04974,502.63147,837.5881,502.5874C836.8547,502.51727,836.4006,502.38812,835.41486,502.0653C829.67224,500.18402,823.87366,498.93567,818.28107,498.40002L818.28094,498.40082 Z"/>
</g>
<g style="fill:rgb(255,255,255); fill-opacity:1.0; stroke-linejoin: miter">
<path d="M658.4809,762.8326L658.22064,763.51825Q656.3632,765.60956,647.329,767.0004Q638.23047,768.3908,625.8949,768.3704Q614.1199,768.2476,607.0564,766.7877Q599.99774,765.31665,601.32684,763.1353Q603.18646,761.0434,612.2266,759.6531Q621.3277,758.26276,633.6631,758.2839Q645.434,758.4074,652.4939,759.8672Q654.75586,760.3391,656.22076,760.9168L657.4522,761.51526Q658.46747,762.13727,658.4809,762.8326"/>
</g>
<g style="fill:rgb(255,255,255); fill-opacity:1.0; stroke-linejoin: miter">
<path d="M868.8357,530.6515Q884.29944,538.97974,895.2008,569.5093Q903.66864,601.6316,896.8203,613.8483Q886.3822,631.4752,875.89484,641.08496Q868.4197,647.6595,858.08496,652.4641Q833.6443,661.79395,814.53217,654.5327Q794.42615,647.5039,786.69354,630.3551Q781.6465,622.2507,776.4217,596.29156Q774.79755,591.11456,776.22925,578.34937Q777.4456,561.02295,796.0464,539.79987Q812.5613,523.57056,828.3391,517.12384 Z"/>
</g>
<g style="fill:rgb(0,0,0); fill-opacity:1.0; stroke-linejoin: miter">
<path d="M2.2787056,539.8395Q14.710484,586.44025,11.527241,599.524Q9.3403015,617.6285,-6.529484,636.08093Q-28.114988,658.23535,-48.70973,662.33154Q-69.53386,668.30194,-99.536316,651.90295Q-120.66458,632.8032,-122.49581,625.0564Q-123.69874,625.9461,-127.09944,603.8357L-127.31082,590.5595Q-126.34902,565.7049,-121.78384,558.95703Q-110.34771,535.5115,-98.068504,526.4217Q-70.90394,507.1563,-28.940697,513.6235Q9.71133,520.5396,17.698673,550.145 Z"/>
</g>
<g style="fill:rgb(255,255,255); fill-opacity:1.0; stroke-linejoin: miter">
<path d="M973.6068,792.9379L972.6253,797.33234Q965.5431,810.6831,931.0989,819.10626Q919.9712,821.8039,906.86456,823.6239L893.3959,825.1832Q879.49896,826.5027,864.4191,826.69696Q818.66187,826.89594,789.1064,818.2324Q759.55066,809.56885,759.4283,796.089Q761.5236,782.77014,791.7145,773.49036Q821.9054,764.2106,866.6595,763.1085Q911.8861,762.65466,942.12964,771.0443Q972.3734,779.4341,973.6068,792.9379"/>
</g>
<g style="fill:rgb(0,0,0); fill-opacity:1.0; stroke-linejoin: miter">
<path d="M39.47833,805.2949L38.450493,809.89667Q31.85803,822.32416,2.6257865,830.67456Q-12.175585,834.9074,-30.41424,837.4294Q-49.45687,840.198,-74.8632,840.6475Q-85.51143,840.6938,-95.32184,840.2818Q-119.11473,838.85065,-122.86785,838.0145Q-139.97511,835.81555,-153.73093,831.7834Q-167.48688,827.75116,-175.15437,822.72266Q-178.98813,820.2085,-181.29976,817.4452Q-185.74702,810.31885,-184.80995,808.5948Q-183.83473,802.39594,-177.0478,797.0324Q-176.25914,795.561,-163.59836,789.4573Q-158.0255,787.08887,-150.99974,784.92944Q-136.94817,780.6105,-119.88413,777.983Q-97.89513,775.0688,-92.59358,774.99347Q-82.9319,774.314,-72.51709,774.0575Q-51.46757,773.84625,-33.517387,775.4644Q-24.542284,776.27356,-16.342003,777.5398Q3.4806683,781.10596,6.5154047,782.368Q20.591532,786.27264,28.666754,791.2353Q37.448067,797.6701,37.40406,799.27435Q39.191296,802.1524,39.47833,805.2949"/>
</g>
</g>
</svg>