<?xml version="1.0" encoding="UTF-8"?>
<svg viewBox="0 0 554.8858 454.32214" xmlns="http://www.w3.org/2000/svg" xmlns:xlink="http://www.w3.org/1999/xlink">
 <defs>
  <filter id="af">
   <feGaussianBlur stdDeviation="1.47088"/>
  </filter>
  <filter id="ae">
   <feGaussianBlur stdDeviation="2.46586"/>
  </filter>
  <filter id="ab">
   <feGaussianBlur stdDeviation="5.86394"/>
  </filter>
  <filter id="ad" x="-.32186" y="-.02605" width="1.6437" height="1.0521">
   <feGaussianBlur stdDeviation="2.81627"/>
  </filter>
  <filter id="ac" x="-.16707" y="-.2148" width="1.3341" height="1.4296">
   <feGaussianBlur stdDeviation="2.81928"/>
  </filter>
  <linearGradient id="b">
   <stop stop-color="#a40000" offset="0"/>
   <stop stop-color="#d14040" offset="1"/>
  </linearGradient>
  <linearGradient id="a">
   <stop stop-color="#5c0000" offset="0"/>
   <stop stop-color="#c00" offset="1"/>
  </linearGradient>
  <linearGradient id="c">
   <stop stop-color="#fff" offset="0"/>
   <stop stop-color="#fff" stop-opacity="0" offset="1"/>
  </linearGradient>
  <linearGradient id="d">
   <stop offset="0"/>
   <stop stop-opacity="0" offset="1"/>
  </linearGradient>
  <linearGradient id="e">
   <stop stop-color="#eeeeec" offset="0"/>
   <stop stop-color="#d3d7cf" offset="1"/>
  </linearGradient>
  <linearGradient id="aa" x1="371" x2="397" gradientUnits="userSpaceOnUse">
   <stop stop-color="#babdb6" offset="0"/>
   <stop stop-color="#d3d7cf" offset="1"/>
  </linearGradient>
  <linearGradient id="z" x2="0" y1="423.04" y2="391.22" gradientUnits="userSpaceOnUse">
   <stop stop-color="#2e3436" offset="0"/>
   <stop stop-color="#2e3436" stop-opacity="0" offset="1"/>
  </linearGradient>
  <linearGradient id="v" x1="291.22" x2="121.26" y1="336.36" y2="80.362" gradientUnits="userSpaceOnUse">
   <stop stop-color="#babdb6" offset="0"/>
   <stop stop-color="#babdb6" stop-opacity="0" offset="1"/>
  </linearGradient>
  <linearGradient id="r" x1="345.77" x2="440" y1="-213.28" y2="-223.64" gradientUnits="userSpaceOnUse">
   <stop stop-color="#a40000" offset="0"/>
   <stop offset="1"/>
  </linearGradient>
  <linearGradient id="q" x1="353.25" x2="421" y1="-177.82" y2="-223.64" gradientUnits="userSpaceOnUse">
   <stop stop-color="#c00" offset="0"/>
   <stop stop-color="#690000" offset="1"/>
  </linearGradient>
  <linearGradient id="f" x1="126" x2="512" y1="308.36" y2="300.28" gradientUnits="userSpaceOnUse">
   <stop stop-color="#d3d7cf" offset="0"/>
   <stop stop-color="#555753" offset="1"/>
  </linearGradient>
  <linearGradient id="y" x1="394" x2="384.68" y1="-12.638" y2="286.36" gradientUnits="userSpaceOnUse" xlink:href="#e"/>
  <linearGradient id="x" x1="256.68" x2="304.74" y1="410.07" y2="338.15" gradientUnits="userSpaceOnUse" xlink:href="#d"/>
  <linearGradient id="w" x1="240.76" x2="304.74" y1="441.03" y2="338.15" gradientTransform="matrix(-.9984 -.05656 -.05656 .9984 800.66 7.8786)" gradientUnits="userSpaceOnUse" xlink:href="#d"/>
  <linearGradient id="u" x2="0" y1="116.1" y2="344.61" gradientUnits="userSpaceOnUse" xlink:href="#e"/>
  <linearGradient id="t" x1="237" x2="386.53" y1="61.362" y2="130.89" gradientUnits="userSpaceOnUse" xlink:href="#c"/>
  <linearGradient id="s" x1="544" x2="379.58" y1="82.112" y2="135.78" gradientUnits="userSpaceOnUse" xlink:href="#c"/>
  <linearGradient id="p" x1="294.54" x2="333.68" y1="115.57" y2="144.56" gradientUnits="userSpaceOnUse" xlink:href="#a"/>
  <linearGradient id="o" x1="296.93" x2="335.29" y1="204.41" y2="246.97" gradientUnits="userSpaceOnUse" xlink:href="#a"/>
  <linearGradient id="n" x1="300.02" x2="337.61" y1="282.64" y2="338.33" gradientUnits="userSpaceOnUse" xlink:href="#a"/>
  <linearGradient id="m" x1="188.06" x2="224.16" y1="71.818" y2="98.558" gradientUnits="userSpaceOnUse" xlink:href="#a"/>
  <linearGradient id="l" x1="196.42" x2="231.8" y1="152.35" y2="204.76" gradientUnits="userSpaceOnUse" xlink:href="#a"/>
  <linearGradient id="k" x1="203.77" x2="238.45" y1="227.88" y2="279.24" gradientUnits="userSpaceOnUse" xlink:href="#a"/>
  <linearGradient id="j" x1="674.69" x2="688.11" y1="477.82" y2="519.55" gradientUnits="userSpaceOnUse" xlink:href="#b"/>
  <linearGradient id="i" x1="674.02" x2="711.61" y1="628.64" y2="656.49" gradientUnits="userSpaceOnUse" xlink:href="#b"/>
  <linearGradient id="h" x1="563.34" x2="598.01" y1="565.66" y2="591.34" gradientUnits="userSpaceOnUse" xlink:href="#b"/>
  <linearGradient id="g" x1="543.41" x2="575.78" y1="405.38" y2="434.97" gradientUnits="userSpaceOnUse" xlink:href="#b"/>
 </defs>
 <g transform="translate(-49.198 30.844)">
  <path d="m368.45 409.4c-2.2737-0.35318-6.6523-1.3575-9.7303-2.2319-8.4729-2.4069-253.44-61.869-258.85-64.457-5.7863-2.7714-8.2876-5.8731-10.29-12.76-0.80731-2.7766-7.1417-26.721-14.076-53.209-14.372-54.898-14.432-55.322-8.596-61.388 5.3359-5.5465 16.929-10.161 30.216-12.028 13.343-1.8747 287.46-12.174 291.75-12.174 4.6927 0 173.44 91.942 186.21 93.844l-206.63 124.4z" fill="url(#f)" filter="url(#ab)"/>
  <path d="m368.45 408.73c-2.2737-0.71135-6.6523-2.7342-9.7303-4.4952-8.4729-4.8477-151.44-108.5-156.85-113.71-5.7863-5.5819-8.2876-11.829-10.29-25.7-0.80731-5.5923-7.1417-53.818-14.076-107.17-14.372-110.57-14.432-111.42-8.596-123.64 5.3359-11.171 16.929-20.466 30.216-24.226 13.343-3.7759 185.46-40.632 189.75-40.632 4.6927 0 169.44 36.137 182.21 39.967 15.16 4.5472 27.391 16.215 31.412 29.964 0.87354 2.9873 1.5883 9.0402 1.5883 13.451 0 11.174-21.721 221.95-23.522 228.25-2.9167 10.207-4.0801 11.066-90.765 66.977-89.433 57.684-89.527 57.742-97.394 60.449-6.5415 2.2506-17.635 2.487-23.953 0.51052z" fill="url(#y)"/>
  <path d="m172.53 30.594-5.75 8.3125c-3.4161 9.8076-1.6049 23.941 10.719 118.75 6.9347 53.35 13.286 101.56 14.094 107.16 2.0025 13.871 4.4949 20.137 10.281 25.719 5.4024 5.2115 148.37 108.84 156.84 113.69 3.0779 1.761 7.445 3.7886 9.7188 4.5 6.3176 1.9765 17.427 1.7506 23.969-0.5 4.461-1.5348 6.9551-2.584 24.125-13.406l0.65625-1.4688s-31.819 10.611-41.719-9.1875l-3.5312-229.12c-5.6569-21.676-19.799-35.575-36.062-45.938l-162.62-67.906c-2.5-5.25-0.71875-10.594-0.71875-10.594z" fill="url(#v)"/>
  <path d="m192.3 266.23c2.0025 13.871 3.7878 18.723 9.5741 24.305 5.4024 5.2115 148.37 108.84 156.84 113.69 3.0779 1.761 7.445 3.7886 9.7188 4.5 6.3176 1.9765 17.427 1.7506 23.969-0.5 4.461-1.5348 6.9551-2.584 24.125-13.406l0.65625-1.4688s-31.112 12.026-41.012-7.7733l-183.88-119.34z" fill="url(#x)" opacity=".99"/>
  <path d="m580.88 272.7c-2.7839 13.736-13.334 35.465-10.934 23.724 1.5036-7.3543-141.56 90.374-150.3 94.735-3.1726 1.5841-7.6474 3.3615-9.9577 3.9431-6.4193 1.616-17.498 0.76208-23.902-1.8549-4.367-1.7847-6.7978-2.9733-23.328-14.749l-0.57213-1.5035s30.382 13.766 41.386-5.4412l177.6-98.853z" fill="url(#w)" opacity=".99"/>
  <path d="m376 122.86 21 0.5-15 259h-2l-4-259.5z" fill="url(#u)" filter="url(#ad)" opacity=".99"/>
  <path d="m380.5 127.36 2.5-8-207-84h-2l206.5 92z" fill="url(#t)" filter="url(#af)" opacity=".99"/>
  <path d="m385.5 129.86 0.5-7.5 209-88h2l-211.5 95.5z" fill="url(#s)" filter="url(#ae)" opacity=".99"/>
  <path transform="translate(-5,1)" d="m410 118.11c0 8.6985-9.0662 15.75-20.25 15.75s-20.25-7.0515-20.25-15.75 9.0662-15.75 20.25-15.75 20.25 7.0515 20.25 15.75z" fill="#efefed" filter="url(#ac)" opacity=".44898"/>
 </g>
 <g transform="translate(-49.198 30.844)">
  <path d="m370 142.36 14 144 14-144v262.51c-11.5 6.0479-28 1.728-28 1.728v-264.24z" fill="url(#aa)"/>
  <path d="m412.24 396.17-31.466-4.9498-21.92 12.374 18.385 7.4246 12.728-0.70711 22.274-14.142z" fill="url(#z)"/>
  <path d="m335.29 232.83c0 15.691-7.772 28.412-18.366 28.412s-19.997-12.72-19.997-28.412 5.6334-28.412 17.958-28.412c10.594 0 20.405 12.72 20.405 28.412z" fill="url(#o)"/>
  <path d="m337.61 310.49c0 15.377-7.6165 27.843-17.998 27.843s-19.597-12.466-19.597-27.843 5.5207-27.843 17.598-27.843c10.382 0 19.997 12.466 19.997 27.843z" fill="url(#n)"/>
  <path d="m224.16 98.558c0 14.768-7.3149 26.741-17.286 26.741s-18.821-11.972-18.821-26.741 5.3021-26.741 16.902-26.741c9.9706 0 19.205 11.972 19.205 26.741z" fill="url(#m)"/>
  <path d="m231.8 178.56c0 14.473-7.1686 26.206-16.94 26.206s-18.445-11.733-18.445-26.206 5.196-26.206 16.564-26.206c9.7712 0 18.821 11.733 18.821 26.206z" fill="url(#l)"/>
  <path d="m238.45 253.56c0 14.184-7.0252 25.682-16.601 25.682s-18.076-11.498-18.076-25.682 5.0921-25.682 16.232-25.682c9.5758 0 18.445 11.498 18.445 25.682z" fill="url(#k)"/>
  <g transform="matrix(-.94857 0 0 .94857 1096.1 -308.81)">
   <path d="m707.68 490.56c0 16.012-7.9306 28.991-18.74 28.991s-20.405-12.98-20.405-28.991 5.7484-28.991 18.324-28.991c10.81 0 20.822 12.98 20.822 28.991z" fill="url(#j)"/>
   <path d="m711.61 656.49c0 15.377-7.6165 27.843-17.998 27.843s-19.597-12.466-19.597-27.843 5.5207-27.843 17.598-27.843c10.382 0 19.997 12.466 19.997 27.843z" fill="url(#i)"/>
   <path d="m579.51 432.12c0 14.768-7.3149 26.741-17.286 26.741s-18.821-11.972-18.821-26.741 5.3021-26.741 16.902-26.741c9.9706 0 19.205 11.972 19.205 26.741z" fill="url(#g)"/>
   <path d="m598.01 591.34c0 14.184-7.0252 25.682-16.601 25.682s-18.076-11.498-18.076-25.682 5.0921-25.682 16.232-25.682c9.5758 0 18.445 11.498 18.445 25.682z" fill="url(#h)"/>
   <path d="m702.64 494.01c0 15.691-7.772 28.412-18.366 28.412s-19.997-12.72-19.997-28.412 5.6334-28.412 17.958-28.412c10.594 0 20.405 12.72 20.405 28.412z" fill="#fff" opacity=".25"/>
   <path d="m705.24 657.27c0 15.377-7.6165 27.843-17.998 27.843s-19.597-12.466-19.597-27.843 5.5207-27.843 17.598-27.843c10.382 0 19.997 12.466 19.997 27.843z" fill="#fff" opacity=".25"/>
   <path d="m592.19 594.21c0 14.473-7.1686 26.206-16.94 26.206s-18.445-11.733-18.445-26.206 5.196-26.206 16.564-26.206c9.7712 0 18.821 11.733 18.821 26.206z" fill="#fff" opacity=".25"/>
   <path d="m573.66 434.97c0 15.07-7.4642 27.286-17.638 27.286s-19.205-12.217-19.205-27.286 5.4103-27.286 17.247-27.286c10.174 0 19.597 12.217 19.597 27.286z" fill="#fff" opacity=".25"/>
  </g>
  <path transform="matrix(.72036 0 0 .57143 114.73 141.16)" d="m421-202.64c0 11.598-21.043 21-47 21s-47-9.402-47-21 21.043-21 47-21 47 9.402 47 21z" fill="url(#r)"/>
  <path transform="matrix(.68047 0 0 .37049 129.09 103.3)" d="m421-202.64c0 11.598-21.043 24.817-47 24.817s-47-13.219-47-24.817 21.043-21 47-21 47 9.402 47 21z" fill="url(#q)"/>
  <path d="m333.68 144.56c0 16.012-7.9306 28.991-18.74 28.991s-20.405-12.98-20.405-28.991 5.7484-28.991 18.324-28.991c10.81 0 20.822 12.98 20.822 28.991z" fill="url(#p)"/>
  <path d="m333.3 145.44c2.9121 13.241-1.2855 25.417-10.225 27.383s-19.235-7.0226-22.147-20.264-0.51914-25.02 9.8806-27.307c8.9393-1.966 19.579 6.9469 22.491 20.188z" fill="#fff" opacity=".25"/>
  <path d="m335.47 233.01c2.8539 12.976-1.2598 24.909-10.02 26.836s-18.85-6.8822-21.704-19.858-0.50876-24.52 9.6829-26.761c8.7605-1.9267 19.188 6.808 22.042 19.784z" fill="#fff" opacity=".25"/>
  <path d="m337.15 310.08c2.7968 12.717-1.2346 24.411-9.8199 26.299s-18.473-6.7446-21.27-19.461-0.49858-24.029 9.4893-26.226c8.5853-1.8882 18.804 6.6718 21.601 19.388z" fill="#fff" opacity=".25"/>
  <path d="m226.65 99.791c2.7968 12.717-1.2346 24.411-9.8199 26.299s-18.473-6.7446-21.27-19.461-0.49858-24.029 9.4893-26.226c8.5853-1.8882 18.804 6.6718 21.601 19.388z" fill="#fff" opacity=".25"/>
  <path d="m234.34 177.86c2.7408 12.462-1.2099 23.922-9.6235 25.773s-18.104-6.6097-20.845-19.072-0.48861-23.549 9.2995-25.702c8.4136-1.8504 18.428 6.5384 21.169 19.001z" fill="#fff" opacity=".25"/>
  <path d="m241.03 253.93c2.686 12.213-1.1857 23.444-9.431 25.257s-17.742-6.4775-20.428-18.69-0.47884-23.078 9.1135-25.188c8.2453-1.8134 18.059 6.4076 20.745 18.621z" fill="#fff" opacity=".25"/>
 </g>
 <g transform="translate(-49.198 30.844)">
  <path d="m368.45 408.73c-2.2737-0.71135-6.6523-2.7342-9.7303-4.4952-8.4729-4.8477-151.44-108.5-156.85-113.71-5.7863-5.5819-8.2876-11.829-10.29-25.7-0.80731-5.5923-7.1417-53.818-14.076-107.17-14.372-110.57-14.432-111.42-8.596-123.64 5.3359-11.171 16.929-20.466 30.216-24.226 13.343-3.7759 185.46-40.632 189.75-40.632 4.6927 0 169.44 36.137 182.21 39.967 15.16 4.5472 27.391 16.215 31.412 29.964 0.87354 2.9873 1.5883 9.0402 1.5883 13.451 0 11.174-21.721 221.95-23.522 228.25-2.9167 10.207-4.0801 11.066-90.765 66.977-89.433 57.684-89.527 57.742-97.394 60.449-6.5415 2.2506-17.635 2.487-23.953 0.51052z" fill="none" stroke="#888a85" stroke-width="4"/>
 </g>
</svg>
