<?xml version="1.0"?>
<svg xmlns="http://www.w3.org/2000/svg" xmlns:xlink="http://www.w3.org/1999/xlink" xmlns:svgjs="http://svgjs.com/svgjs" version="1.1" width="512" height="512" x="0" y="0" viewBox="0 0 512 512" style="enable-background:new 0 0 512 512" xml:space="preserve" class=""><g><g xmlns="http://www.w3.org/2000/svg"><circle cx="91" cy="91" r="15" fill="#ffb300" data-original="#000000" style="" class=""/><circle cx="211" cy="91" r="15" fill="#ffb300" data-original="#000000" style="" class=""/><circle cx="91" cy="211" r="15" fill="#ffb300" data-original="#000000" style="" class=""/><path d="m257 182h43v-137c0-3.978-1.581-7.793-4.394-10.606l-30-30c-2.813-2.813-6.628-4.394-10.606-4.394h-210c-3.978 0-7.793 1.581-10.606 4.394l-30 30c-2.813 2.813-4.394 6.628-4.394 10.606v210c0 3.978 1.581 7.793 4.394 10.606l30 30c2.813 2.813 6.628 4.394 10.606 4.394h137v-43c0-12.02 4.681-23.32 13.18-31.82l30-30c8.5-8.499 19.8-13.18 31.82-13.18zm-166 74c-24.813 0-45-20.187-45-45s20.187-45 45-45 45 20.187 45 45-20.187 45-45 45zm0-120c-24.813 0-45-20.187-45-45s20.187-45 45-45 45 20.187 45 45-20.187 45-45 45zm75-45c0-24.813 20.187-45 45-45s45 20.187 45 45-20.187 45-45 45-45-20.187-45-45z" fill="#ffb300" data-original="#000000" style="" class=""/><circle cx="301" cy="421" r="15" fill="#ffb300" data-original="#000000" style="" class=""/><circle cx="421" cy="301" r="15" fill="#ffb300" data-original="#000000" style="" class=""/><path d="m507.606 246.394-30-30c-2.813-2.813-6.628-4.394-10.606-4.394h-210c-3.978 0-7.793 1.581-10.606 4.394l-30 30c-2.813 2.813-4.394 6.628-4.394 10.606v210c0 3.978 1.581 7.793 4.394 10.606l30 30c2.813 2.813 6.628 4.394 10.606 4.394h210c3.978 0 7.793-1.581 10.606-4.394l30-30c2.813-2.813 4.394-6.628 4.394-10.606v-210c0-3.978-1.581-7.793-4.394-10.606zm-206.606 219.606c-24.813 0-45-20.187-45-45s20.187-45 45-45 45 20.187 45 45-20.187 45-45 45zm120-120c-24.813 0-45-20.187-45-45s20.187-45 45-45 45 20.187 45 45-20.187 45-45 45z" fill="#ffb300" data-original="#000000" style="" class=""/></g></g></svg>
