<svg id="Layer_1" enable-background="new 0 0 512 512" height="512" viewBox="0 0 512 512" width="512" xmlns="http://www.w3.org/2000/svg"><g><g><g><g><g><g><path d="m492.502 456.039-174.507 47.88c-8.671 2.379-17.62-2.764-19.997-11.49l-.008-.031c-2.38-8.738 2.733-17.759 11.415-20.141l36.776-10.09 50.528-21.699 57.618-7.974 29.584-8.117c8.671-2.379 17.62 2.764 19.997 11.49l.008.031c2.38 8.738-2.732 17.759-11.414 20.141z" fill="#828cb3"/><path d="m443.911 435.284c8.671-2.379 17.62 2.763 19.997 11.49l.008.031c2.38 8.738-2.733 17.759-11.415 20.141l40-10.907c8.682-2.382 13.794-11.403 11.415-20.141l-.008-.031c-2.377-8.727-11.326-13.869-19.997-11.49l-29.584 8.117z" fill="#717eb3"/><path d="m450.112 399.631-57.779 32.863-66.4 1.209-27.936-204.925 31.397-27.394 40.915 7.554z" fill="#828cb3"/><g><path d="m330.309 208.938 87.493 209.07 32.31-18.377-79.803-190.693-40.915-7.554-6.986 6.095z" fill="#717eb3"/></g><ellipse cx="314.01" cy="144.893" fill="#828cb3" rx="58.081" ry="58.555" transform="matrix(.989 -.148 .148 .989 -17.996 48.105)"/><path d="m370.028 129.523c-8.496-31.199-40.464-49.609-71.402-41.121-1.62.445-3.196.968-4.744 1.539 17.067 6.321 30.968 20.569 36.146 39.582 8.052 29.565-7.872 59.991-35.889 70.322 10.938 4.051 23.172 4.854 35.256 1.539 30.937-8.489 49.129-40.662 40.633-71.861z" fill="#717eb3"/><g fill="#cc8b66"><path d="m384.71 204.986-101.144 27.751c-8.671 2.379-17.62-2.764-19.997-11.49l-.008-.031c-2.38-8.738 2.733-17.759 11.415-20.141l101.144-27.751c8.671-2.379 17.62 2.764 19.997 11.49l.008.031c2.38 8.739-2.732 17.759-11.415 20.141z"/><path d="m467.216 428.958-141.176 38.735c-8.671 2.379-17.62-2.764-19.997-11.49l-.008-.031c-2.38-8.738 2.733-17.759 11.415-20.141l141.177-38.735c8.671-2.379 17.62 2.764 19.997 11.49l.008.031c2.379 8.738-2.734 17.758-11.416 20.141z"/></g></g></g></g><g><g><g><path d="m61.888 399.631 57.779 32.863 66.4 1.209 27.936-204.925-31.846-25.747-40.466 5.907z" fill="#fff6e0"/><path d="m182.157 203.031-4.738.692-31.253 229.254 39.901.726 27.936-204.925z" fill="#fff0cc"/><path d="m19.498 456.039 174.507 47.88c8.671 2.379 17.62-2.764 19.997-11.49l.008-.031c2.38-8.738-2.733-17.759-11.415-20.141l-29.555-8.109-53.374-31.654-65.589-.986-25.989-7.131c-8.671-2.379-17.62 2.764-19.997 11.49l-.008.031c-2.379 8.738 2.733 17.759 11.415 20.141z" fill="#fff6e0"/><path d="m202.596 472.257-29.555-8.109-7.945-2.019c8.682 2.382 13.794 11.403 11.415 20.141l-.008.031c-2.185 8.025-9.93 13.001-17.903 11.903l35.406 9.715c8.671 2.379 17.62-2.764 19.997-11.49l.008-.031c2.379-8.738-2.733-17.759-11.415-20.141z" fill="#fff0cc"/><ellipse cx="197.99" cy="144.893" fill="#fff6e0" rx="58.555" ry="58.081" transform="matrix(.148 -.989 .989 .148 25.372 319.24)"/><path d="m213.374 88.402c-12.083-3.315-24.318-2.511-35.256 1.539 28.017 10.33 43.941 40.756 35.889 70.322-5.178 19.013-19.079 33.261-36.146 39.582 1.548.571 3.124 1.094 4.744 1.539 30.938 8.489 62.905-9.922 71.402-41.121s-9.695-63.373-40.633-71.861z" fill="#fff0cc"/><g fill="#cc8b66"><path d="m127.29 204.986 101.144 27.751c8.671 2.379 17.62-2.764 19.997-11.49l.008-.031c2.38-8.738-2.733-17.759-11.415-20.141l-101.144-27.751c-8.671-2.379-17.62 2.764-19.997 11.49l-.008.031c-2.38 8.739 2.732 17.759 11.415 20.141z"/><path d="m44.784 428.958 141.177 38.735c8.671 2.379 17.62-2.764 19.997-11.49l.008-.031c2.38-8.738-2.733-17.759-11.415-20.141l-141.177-38.735c-8.671-2.379-17.62 2.764-19.997 11.49l-.008.031c-2.38 8.738 2.733 17.758 11.415 20.141z"/></g></g></g></g></g><g><path d="m202.099 137.228 18.687-39.193-40.939-14.572 40.961-14.517-18.631-39.219 39.24 18.663 14.592-40.89 14.533 40.91 39.267-18.609-18.688 39.193 40.94 14.572-40.961 15.486 18.63 39.218-39.239-19.632-14.593 40.891-14.532-40.91z" fill="#ffea00"/></g></g><g><g fill="#e1e3f5"><path d="m474.449 111.098h-8.425c-4.142 0-7.5-3.357-7.5-7.5s3.358-7.5 7.5-7.5h8.425c4.142 0 7.5 3.357 7.5 7.5s-3.358 7.5-7.5 7.5z"/><path d="m442.995 86.945c-4.142 0-7.5-3.357-7.5-7.5v-8.425c0-4.143 3.358-7.5 7.5-7.5s7.5 3.357 7.5 7.5v8.425c0 4.143-3.358 7.5-7.5 7.5z"/><path d="m418.843 109.975h-8.425c-4.142 0-7.5-3.357-7.5-7.5s3.358-7.5 7.5-7.5h8.425c4.142 0 7.5 3.357 7.5 7.5s-3.358 7.5-7.5 7.5z"/><path d="m441.872 142.553c-4.142 0-7.5-3.357-7.5-7.5v-8.426c0-4.143 3.358-7.5 7.5-7.5s7.5 3.357 7.5 7.5v8.426c0 4.142-3.358 7.5-7.5 7.5z"/></g></g><g><g fill="#e1e3f5"><path d="m504.5 229.521h-8.425c-4.142 0-7.5-3.357-7.5-7.5s3.358-7.5 7.5-7.5h8.425c4.142 0 7.5 3.357 7.5 7.5s-3.358 7.5-7.5 7.5z"/><path d="m473.046 205.369c-4.142 0-7.5-3.357-7.5-7.5v-8.426c0-4.143 3.358-7.5 7.5-7.5s7.5 3.357 7.5 7.5v8.426c0 4.143-3.358 7.5-7.5 7.5z"/><path d="m448.894 228.397h-8.425c-4.142 0-7.5-3.357-7.5-7.5s3.358-7.5 7.5-7.5h8.425c4.142 0 7.5 3.357 7.5 7.5s-3.358 7.5-7.5 7.5z"/><path d="m471.922 260.976c-4.142 0-7.5-3.357-7.5-7.5v-8.425c0-4.143 3.358-7.5 7.5-7.5s7.5 3.357 7.5 7.5v8.425c0 4.142-3.358 7.5-7.5 7.5z"/></g></g><g fill="#e1e3f5"><path d="m101.583 96.098h-8.425c-4.142 0-7.5 3.357-7.5 7.5s3.358 7.5 7.5 7.5h8.425c4.142 0 7.5-3.357 7.5-7.5s-3.358-7.5-7.5-7.5z"/><path d="m70.128 86.945c4.142 0 7.5-3.357 7.5-7.5v-8.425c0-4.143-3.358-7.5-7.5-7.5s-7.5 3.357-7.5 7.5v8.425c0 4.143 3.358 7.5 7.5 7.5z"/><path d="m45.976 94.975h-8.425c-4.142 0-7.5 3.357-7.5 7.5s3.358 7.5 7.5 7.5h8.425c4.142 0 7.5-3.357 7.5-7.5s-3.358-7.5-7.5-7.5z"/><path d="m69.005 142.553c4.142 0 7.5-3.357 7.5-7.5v-8.426c0-4.143-3.358-7.5-7.5-7.5s-7.5 3.357-7.5 7.5v8.426c0 4.142 3.358 7.5 7.5 7.5z"/><path d="m71.532 214.521h-8.425c-4.142 0-7.5 3.357-7.5 7.5s3.358 7.5 7.5 7.5h8.425c4.142 0 7.5-3.357 7.5-7.5s-3.358-7.5-7.5-7.5z"/><path d="m40.078 181.943c-4.142 0-7.5 3.357-7.5 7.5v8.426c0 4.143 3.358 7.5 7.5 7.5s7.5-3.357 7.5-7.5v-8.426c0-4.142-3.358-7.5-7.5-7.5z"/><path d="m15.925 213.397h-8.425c-4.142 0-7.5 3.357-7.5 7.5s3.358 7.5 7.5 7.5h8.425c4.142 0 7.5-3.357 7.5-7.5s-3.358-7.5-7.5-7.5z"/><path d="m38.954 237.551c-4.142 0-7.5 3.357-7.5 7.5v8.425c0 4.143 3.358 7.5 7.5 7.5s7.5-3.357 7.5-7.5v-8.425c0-4.143-3.358-7.5-7.5-7.5z"/></g></g></svg>