<?xml version="1.0" encoding="UTF-8"?>
<svg viewBox="0 0 3200 3048" xmlns="http://www.w3.org/2000/svg">
 <path d="m1786.7 1495.7z" fill="none" stroke="#000"/>
 <g transform="translate(-79.909 9.1325)" stroke-width=".86603">
  <path d="m1582 1651.4 15.938 0.6804-0.105 19.953 17.895-0.047-0.1051-144.05h-15.75l0.75-14.207h-15.75v-14.518h-13.789l-0.2554-16.29h-86.153l-0.3027 16.29h-15v14.518h-15v14.207h-15v144.1h15v-20h15v-20h15v20h15v20h15v-40h22.5v40h15v-20h15v-20h15" fill="#80b3ff" stroke="#80b3ff"/>
  <path d="m1484.6 1513.8 0.3297 14.951h-15.713l0.3027 29.921h15.424v12.933h29.886l0.014-42.854h-14.516l-0.014-14.951h-15.714z" fill="#f9f9f9" stroke="#f9f9f9"/>
  <path d="m1557 1513.5v44.872l13.608-0.4036v14.108h30.23l-0.6189-44.047h-15.897l-0.027-14.969s-19.524-0.037-27.294 0.036c-1.9999 0.019 0 0.4036 0 0.4036v1e-4z" fill="#f9f9f9" stroke="#fff"/>
  <path d="m1484.3 1528h14.962v16.162h14.969v14.126h-29.931v-30.288z" stroke="#000"/>
  <path d="m1570.8 1528.6h14.962v14.162h14.969v14.126h-29.931v-28.288z" stroke="#000"/>
 </g>
 <path d="m1249.7 1657.3 15.938 0.6804-0.105 19.953 17.895-0.047-0.1051-144.05h-15.75l0.75-14.207h-15.75v-14.518h-13.789l-0.2554-16.29h-86.153l-0.3027 16.29h-15v14.518h-15v14.207h-15v144.1h15v-20h15v-20h15v20h15v20h15v-40h22.5v40h15v-20h15v-20h15" fill="#0f0" stroke="#0f0" stroke-width=".86603"/>
 <path d="m1152.2 1519.8 0.3297 14.951h-15.713l0.3027 29.921h15.424v12.933h29.886l0.014-42.854h-14.516l-0.014-14.951h-15.714z" fill="#f9f9f9" stroke="#f9f9f9" stroke-width=".86603"/>
 <path d="m1224.7 1519.4v44.872l13.608-0.4036v14.108h30.23l-0.6189-44.047h-15.897l-0.027-14.969s-19.524-0.037-27.294 0.036c-1.9999 0.019 0 0.4036 0 0.4036v1e-4z" fill="#f9f9f9" stroke="#fff" stroke-width=".86603"/>
 <path d="m1151.9 1534h14.962v16.162h14.969v14.126h-29.931v-30.288z" stroke="#000" stroke-width=".86603"/>
 <path d="m1238.4 1534.5h14.962v14.162h14.969v14.126h-29.931v-28.288z" stroke="#000" stroke-width=".86603"/>
 <g transform="translate(-139.27 -296.23)">
  <path d="m1832.8 1976.9 0.4324-13.314-12.155 0.064-0.791-31.75-0.1-29.25h-16v51h-58v-15h-17v-51h14.925l0.5751-14.5 13.233-0.5853v-13.608c5.6703 0.9499 45.197-1.9932 46.267 0v13.704l29.571-1.1889v16.178h61.704l0.1992 10.807 12.325 0.3928 1.2 32v30.8h-12v16.965l-34.855 1.0352h-28.986l-0.5452-2.75 3e-4 -1e-4v4e-4zm-3.0098-79.512v-2e-4 2e-4z" fill="#f00" stroke="#f00"/>
  <path d="m1819.6 1887.4h14.53v15.337h-14.53z" fill="#fff" stroke="#f9f9f9"/>
  <g transform="translate(-7.063 36.122)" fill="#fff" stroke="#f9f9f9">
   <path d="m1857 1918.5h14.53v15.337h-14.53z"/>
   <path d="m1842.6 1903.2h14.53v15.337h-14.53z"/>
  </g>
  <g transform="translate(-96.965 5.4486)" fill="#fff" stroke="#f9f9f9">
   <path d="m1857 1918.5h14.53v15.337h-14.53z"/>
   <path d="m1842.6 1903.2h14.53v15.337h-14.53z"/>
  </g>
  <path d="m1803.9 1856.8-0.4036 14.897h14.144v-14.897h14.53v-15.337h29.83v-13.758h15.74v29.095h-15.74v14.897h-13.319l-0.4036 44.36h13.722v-44.36h15.74v-14.897h14.915v-29.095h29.866v-31.517h-29.866v16.548h-30.656v14.969h-29.83v13.758h-14.53v15.337h-13.74z" fill="#800000" stroke="#800000"/>
 </g>
 <g transform="translate(-392.3 258.31)">
  <path d="m2256 1248.3h-15.982v17.409h-12.557v15.126h-15.982v102.74h15.982v15.411h12.557v13.984h15.982v15.696l113.58-0.2854v-15.411h15.126v-15.411h16.559v-14.555h-31.685v-15.126h-28.818v-15.411h-31.092v-15.114l-14.84 0.8562v-15.696l14.84 0.2854v-15.411h31.092v-13.395h28.818v-15.411h31.685v-14.555h-16.559v-15.982h-15.126v-14.555h-113.58v14.811z" fill="#ff0" stroke="#ff0"/>
  <path d="m2294.4 1262.7h15.337v15.135h-15.337z" stroke="#000"/>
 </g>
</svg>
