<svg id="Layer_1" enable-background="new 0 0 512 512" height="512" viewBox="0 0 512 512" width="512" xmlns="http://www.w3.org/2000/svg"><g><path d="m416.667 431.667h-401.667c-8.284 0-15-6.716-15-15v-401.667c0-8.284 6.716-15 15-15h401.667c8.284 0 15 6.716 15 15v401.667c0 8.284-6.716 15-15 15z" fill="#ffd845"/><path d="m416.667 431.667h-200.832v-431.667h200.832c8.284 0 15 6.716 15 15v401.667c0 8.284-6.716 15-15 15z" fill="#ecbe00"/><path d="m431.668 172.67v-86.333h-86.335v-86.337h-86.333v86.337h-86.333v-86.337h-86.334v86.337h-86.331v86.333h86.332v86.333h-86.332v86.333h86.332v86.33h86.333v-86.33h86.333v86.33h86.333v-86.33h86.335v-86.333h-86.335v-86.333z" fill="#ecbe00"/><path d="m345.333 0h-86.333v86.337h-43.165v259h43.165v86.33h86.333v-86.33h86.335v-86.333h-86.335v-86.334h86.335v-86.333h-86.335z" fill="#ec8600"/><path d="m86.333 86.333h259v259h-259z" fill="#ec8600"/><path d="m215.833 86.333h129.5v259h-129.5z" fill="#ff4d05"/><path d="m497 512h-160.667c-8.284 0-15-6.716-15-15v-160.667c0-8.284 6.716-15 15-15h160.667c8.284 0 15 6.716 15 15v160.667c0 8.284-6.716 15-15 15z" fill="#faf5f5"/><path d="m497 321.333h-80.333v190.667h80.333c8.284 0 15-6.716 15-15v-160.667c0-8.284-6.716-15-15-15z" fill="#ede6e6"/><g clip-rule="evenodd" fill-rule="evenodd"><circle cx="392.567" cy="440.767" fill="#00366d" r="15"/><circle cx="440.767" cy="392.567" fill="#01223c" r="15"/></g></g></svg>