<svg id="Layer_1" enable-background="new 0 0 128 128" height="512" viewBox="0 0 128 128" width="512" xmlns="http://www.w3.org/2000/svg"><path d="m99.971 29.961h-1.198v-1.188c0-4.946-4.019-8.969-8.959-8.969h-2.953v-.622c0-4.945-4.023-8.967-8.968-8.967h-46.712c-4.945 0-8.968 4.023-8.968 8.967v74.101c0 4.945 4.023 8.967 8.968 8.967h2.953v.623c0 4.946 4.019 8.969 8.959 8.969h1.198v1.188c0 4.946 4.018 8.969 8.958 8.969h46.722c4.94 0 8.958-4.024 8.958-8.969v-74.1c.001-4.945-4.018-8.969-8.958-8.969z" fill="#e6e7e8"/><path d="m96.751 26.747h-2.261v71.84c0 4.361-3.535 7.896-7.896 7.896h-44.45v2.261c0 4.361 3.535 7.896 7.896 7.896h46.711c4.361 0 7.896-3.535 7.896-7.896v-74.101c.001-4.361-3.535-7.896-7.896-7.896z" fill="#6dc9f7"/><path d="m86.594 16.59h-4.02v72.407c0 4.361-3.535 7.896-7.896 7.896h-42.691v1.694c0 4.361 3.535 7.896 7.896 7.896h46.711c4.361 0 7.896-3.535 7.896-7.896v-74.101c.001-4.361-3.535-7.896-7.896-7.896z" fill="#0089ef"/><path d="m86.594 103.269h-46.711c-4.361 0-7.896-3.535-7.896-7.896v3.215c0 4.361 3.535 7.896 7.896 7.896h46.711c4.361 0 7.896-3.535 7.896-7.896v-3.215c.001 4.36-3.535 7.896-7.896 7.896z" fill="#fff"/><path d="m74.678 7h-46.711c-4.361 0-7.896 3.535-7.896 7.896v74.101c0 4.361 3.535 7.896 7.896 7.896h46.711c4.361 0 7.896-3.535 7.896-7.896v-74.101c0-4.361-3.535-7.896-7.896-7.896z" fill="#fa759e"/><path d="m75.344 42.009c-2.868-7.245-15.974-8.851-29.272-3.587s-21.753 15.405-18.885 22.65 15.974 8.851 29.272 3.587 21.753-15.405 18.885-22.65z" fill="#ffd7e5"/><g fill="#3a2c60"><path d="m96.756 25.746h-1.27v-1.26c0-4.906-3.987-8.897-8.887-8.897h-3.025v-.692c0-4.906-3.99-8.897-8.896-8.897h-46.711c-4.906 0-8.896 3.991-8.896 8.896v74.101c0 4.905 3.991 8.896 8.896 8.896h3.024v.694c0 4.906 3.987 8.897 8.887 8.897h1.27v1.26c0 4.906 3.986 8.897 8.887 8.897h46.722c4.9 0 8.887-3.991 8.887-8.897v-74.1c0-4.907-3.987-8.898-8.888-8.898zm-63.765 72.842v-.694h41.688c4.905 0 8.896-3.991 8.896-8.896v-38.026c0-.553-.448-1-1-1s-1 .447-1 1v38.025c0 3.803-3.094 6.896-6.896 6.896h-46.712c-3.803 0-6.896-3.094-6.896-6.896v-74.101c-.001-3.802 3.093-6.896 6.896-6.896h46.711c3.802 0 6.896 3.094 6.896 6.896v21.538c0 .553.448 1 1 1s1-.447 1-1v-18.845h3.025c3.798 0 6.887 3.094 6.887 6.897v74.102c0 3.804-3.089 6.897-6.887 6.897h-46.721c-3.798 0-6.887-3.093-6.887-6.897zm70.653 10.157c0 3.804-3.089 6.897-6.887 6.897h-46.722c-3.797 0-6.887-3.094-6.887-6.897v-1.26h43.451c4.9 0 8.887-3.991 8.887-8.897v-70.842h1.27c3.798 0 6.887 3.094 6.887 6.897v74.102z"/><path d="m82.574 39.534c-.552 0-1 .447-1 1v6.401c0 .553.448 1 1 1s1-.447 1-1v-6.401c0-.553-.447-1-1-1z"/><path d="m64.741 34.531c-5.691-.696-12.453.354-19.037 2.961-14.023 5.552-22.565 16.071-19.447 23.948 1.528 3.86 5.624 6.385 11.533 7.109 1.148.141 2.339.21 3.563.21 4.848 0 10.217-1.09 15.473-3.171 14.023-5.552 22.565-16.071 19.447-23.948-1.527-3.86-5.623-6.384-11.532-7.109zm-8.651 29.198c-6.278 2.485-12.694 3.489-18.057 2.835-5.148-.631-8.67-2.712-9.917-5.86-2.661-6.721 5.559-16.299 18.323-21.353 5.024-1.989 10.135-3.031 14.726-3.031 1.146 0 2.26.065 3.332.196 5.148.631 8.67 2.712 9.917 5.86 2.661 6.722-5.559 16.3-18.324 21.353z"/><path d="m44.608 54.578-1.954-4.936c-.168-.425-.39-.703-.667-.834-.276-.131-.57-.135-.883-.011-.312.124-.521.326-.625.608-.105.281-.073.635.095 1.06l2.016 5.09c.347.878.438 1.599.272 2.165-.165.563-.653 1.006-1.466 1.328-.588.232-1.087.309-1.498.225-.411-.082-.757-.291-1.038-.626-.281-.334-.535-.788-.762-1.362l-1.998-5.048c-.167-.42-.386-.698-.658-.833-.272-.137-.569-.14-.891-.012-.308.121-.516.324-.621.61-.106.284-.076.638.09 1.058l1.954 4.936c.307.774.654 1.408 1.044 1.9.389.49.833.844 1.334 1.059.501.214 1.07.295 1.706.239.638-.056 1.351-.238 2.14-.551.663-.263 1.21-.571 1.642-.926s.766-.778 1.003-1.271c.273-.578.381-1.167.326-1.766-.057-.598-.243-1.299-.561-2.102z"/><path d="m53.493 45.271c-.157-.396-.362-.66-.613-.791-.251-.129-.526-.135-.825-.017-.289.114-.48.305-.572.569-.092.267-.059.599.098.995l2.417 6.105-6.393-4.467c-.183-.133-.358-.261-.528-.382-.169-.123-.325-.214-.466-.278-.141-.062-.29-.098-.447-.105-.157-.009-.329.024-.515.099-.239.094-.434.248-.586.462-.153.216-.232.444-.237.689.001.222.068.5.201.837l3.135 7.919c.153.388.359.647.616.779.258.134.534.142.828.025.285-.112.479-.307.581-.579.103-.271.076-.604-.079-.996l-2.381-6.015 6.267 4.435c.177.119.352.234.526.347.174.112.35.201.526.267.177.064.351.094.521.089.17-.006.35-.045.536-.119.747-.295.942-.894.585-1.795z"/><path d="m65.273 42.109c-.707-.64-1.528-1.026-2.462-1.155-.934-.13-1.933.017-2.997.438-.784.311-1.437.711-1.956 1.198-.519.489-.901 1.051-1.147 1.683s-.353 1.322-.319 2.069c.034.748.208 1.517.52 2.306.305.771.696 1.443 1.176 2.021s1.025 1.018 1.637 1.319c.611.304 1.285.46 2.023.468s1.508-.147 2.311-.465c.807-.319 1.474-.73 1.999-1.229.526-.5.909-1.072 1.15-1.72.241-.646.341-1.335.298-2.069-.042-.733-.221-1.497-.535-2.291-.425-1.075-.991-1.932-1.698-2.573zm-.575 7.253c-.34.443-.777.77-1.309.979-.416.165-.828.239-1.237.223-.408-.016-.809-.126-1.2-.331-.391-.204-.753-.513-1.086-.925-.334-.414-.616-.912-.847-1.496-.229-.579-.362-1.129-.399-1.652-.036-.522.013-.982.149-1.382.136-.399.35-.748.64-1.043.291-.296.644-.527 1.059-.691.583-.231 1.157-.294 1.719-.19s1.074.384 1.534.838c.461.455.84 1.058 1.138 1.81.322.812.461 1.55.417 2.208-.045.659-.238 1.21-.578 1.652z"/></g></svg>